<?xml version="1.0" encoding="utf-8" standalone="no"?>
<!DOCTYPE svg PUBLIC "-//W3C//DTD SVG 1.1//EN"
  "http://www.w3.org/Graphics/SVG/1.1/DTD/svg11.dtd">
<svg xmlns:xlink="http://www.w3.org/1999/xlink" width="1069.31375pt" height="617.731875pt" viewBox="0 0 1069.31375 617.731875" xmlns="http://www.w3.org/2000/svg" version="1.1">
 <metadata>
  <rdf:RDF xmlns:dc="http://purl.org/dc/elements/1.1/" xmlns:cc="http://creativecommons.org/ns#" xmlns:rdf="http://www.w3.org/1999/02/22-rdf-syntax-ns#">
   <cc:Work>
    <dc:type rdf:resource="http://purl.org/dc/dcmitype/StillImage"/>
    <dc:date>2025-06-11T04:04:43.358185</dc:date>
    <dc:format>image/svg+xml</dc:format>
    <dc:creator>
     <cc:Agent>
      <dc:title>Matplotlib v3.7.3, https://matplotlib.org/</dc:title>
     </cc:Agent>
    </dc:creator>
   </cc:Work>
  </rdf:RDF>
 </metadata>
 <defs>
  <style type="text/css">*{stroke-linejoin: round; stroke-linecap: butt}</style>
 </defs>
 <g id="figure_1">
  <g id="patch_1">
   <path d="M 0 617.731875 
L 1069.31375 617.731875 
L 1069.31375 0 
L 0 0 
z
" style="fill: #ffffff"/>
  </g>
  <g id="axes_1">
   <g id="patch_2">
    <path d="M 57.71375 578.24 
L 1062.11375 578.24 
L 1062.11375 23.84 
L 57.71375 23.84 
z
" style="fill: #ffffff"/>
   </g>
   <g id="matplotlib.axis_1">
    <g id="xtick_1">
     <g id="line2d_1">
      <path d="M 103.368295 578.24 
L 103.368295 23.84 
" clip-path="url(#pf6ccbe01fa)" style="fill: none; stroke: #b0b0b0; stroke-width: 0.5; stroke-linecap: square"/>
     </g>
     <g id="line2d_2">
      <defs>
       <path id="mbf31d3bc08" d="M 0 0 
L 0 3.5 
" style="stroke: #000000; stroke-width: 0.8"/>
      </defs>
      <g>
       <use xlink:href="#mbf31d3bc08" x="103.368295" y="578.24" style="stroke: #000000; stroke-width: 0.8"/>
      </g>
     </g>
     <g id="text_1">
      <!-- $\mathdefault{10^{1}}$ -->
      <g transform="translate(94.568295 592.838438) scale(0.1 -0.1)">
       <defs>
        <path id="DejaVuSans-31" d="M 794 531 
L 1825 531 
L 1825 4091 
L 703 3866 
L 703 4441 
L 1819 4666 
L 2450 4666 
L 2450 531 
L 3481 531 
L 3481 0 
L 794 0 
L 794 531 
z
" transform="scale(0.015625)"/>
        <path id="DejaVuSans-30" d="M 2034 4250 
Q 1547 4250 1301 3770 
Q 1056 3291 1056 2328 
Q 1056 1369 1301 889 
Q 1547 409 2034 409 
Q 2525 409 2770 889 
Q 3016 1369 3016 2328 
Q 3016 3291 2770 3770 
Q 2525 4250 2034 4250 
z
M 2034 4750 
Q 2819 4750 3233 4129 
Q 3647 3509 3647 2328 
Q 3647 1150 3233 529 
Q 2819 -91 2034 -91 
Q 1250 -91 836 529 
Q 422 1150 422 2328 
Q 422 3509 836 4129 
Q 1250 4750 2034 4750 
z
" transform="scale(0.015625)"/>
       </defs>
       <use xlink:href="#DejaVuSans-31" transform="translate(0 0.684375)"/>
       <use xlink:href="#DejaVuSans-30" transform="translate(63.623047 0.684375)"/>
       <use xlink:href="#DejaVuSans-31" transform="translate(128.203125 38.965625) scale(0.7)"/>
      </g>
     </g>
    </g>
    <g id="xtick_2">
     <g id="line2d_3">
      <path d="M 560.012959 578.24 
L 560.012959 23.84 
" clip-path="url(#pf6ccbe01fa)" style="fill: none; stroke: #b0b0b0; stroke-width: 0.5; stroke-linecap: square"/>
     </g>
     <g id="line2d_4">
      <g>
       <use xlink:href="#mbf31d3bc08" x="560.012959" y="578.24" style="stroke: #000000; stroke-width: 0.8"/>
      </g>
     </g>
     <g id="text_2">
      <!-- $\mathdefault{10^{2}}$ -->
      <g transform="translate(551.212959 592.838438) scale(0.1 -0.1)">
       <defs>
        <path id="DejaVuSans-32" d="M 1228 531 
L 3431 531 
L 3431 0 
L 469 0 
L 469 531 
Q 828 903 1448 1529 
Q 2069 2156 2228 2338 
Q 2531 2678 2651 2914 
Q 2772 3150 2772 3378 
Q 2772 3750 2511 3984 
Q 2250 4219 1831 4219 
Q 1534 4219 1204 4116 
Q 875 4013 500 3803 
L 500 4441 
Q 881 4594 1212 4672 
Q 1544 4750 1819 4750 
Q 2544 4750 2975 4387 
Q 3406 4025 3406 3419 
Q 3406 3131 3298 2873 
Q 3191 2616 2906 2266 
Q 2828 2175 2409 1742 
Q 1991 1309 1228 531 
z
" transform="scale(0.015625)"/>
       </defs>
       <use xlink:href="#DejaVuSans-31" transform="translate(0 0.765625)"/>
       <use xlink:href="#DejaVuSans-30" transform="translate(63.623047 0.765625)"/>
       <use xlink:href="#DejaVuSans-32" transform="translate(128.203125 39.046875) scale(0.7)"/>
      </g>
     </g>
    </g>
    <g id="xtick_3">
     <g id="line2d_5">
      <path d="M 1016.657622 578.24 
L 1016.657622 23.84 
" clip-path="url(#pf6ccbe01fa)" style="fill: none; stroke: #b0b0b0; stroke-width: 0.5; stroke-linecap: square"/>
     </g>
     <g id="line2d_6">
      <g>
       <use xlink:href="#mbf31d3bc08" x="1016.657622" y="578.24" style="stroke: #000000; stroke-width: 0.8"/>
      </g>
     </g>
     <g id="text_3">
      <!-- $\mathdefault{10^{3}}$ -->
      <g transform="translate(1007.857622 592.838438) scale(0.1 -0.1)">
       <defs>
        <path id="DejaVuSans-33" d="M 2597 2516 
Q 3050 2419 3304 2112 
Q 3559 1806 3559 1356 
Q 3559 666 3084 287 
Q 2609 -91 1734 -91 
Q 1441 -91 1130 -33 
Q 819 25 488 141 
L 488 750 
Q 750 597 1062 519 
Q 1375 441 1716 441 
Q 2309 441 2620 675 
Q 2931 909 2931 1356 
Q 2931 1769 2642 2001 
Q 2353 2234 1838 2234 
L 1294 2234 
L 1294 2753 
L 1863 2753 
Q 2328 2753 2575 2939 
Q 2822 3125 2822 3475 
Q 2822 3834 2567 4026 
Q 2313 4219 1838 4219 
Q 1578 4219 1281 4162 
Q 984 4106 628 3988 
L 628 4550 
Q 988 4650 1302 4700 
Q 1616 4750 1894 4750 
Q 2613 4750 3031 4423 
Q 3450 4097 3450 3541 
Q 3450 3153 3228 2886 
Q 3006 2619 2597 2516 
z
" transform="scale(0.015625)"/>
       </defs>
       <use xlink:href="#DejaVuSans-31" transform="translate(0 0.765625)"/>
       <use xlink:href="#DejaVuSans-30" transform="translate(63.623047 0.765625)"/>
       <use xlink:href="#DejaVuSans-33" transform="translate(128.203125 39.046875) scale(0.7)"/>
      </g>
     </g>
    </g>
    <g id="xtick_4">
     <g id="line2d_7">
      <defs>
       <path id="m6e0b505f28" d="M 0 0 
L 0 2 
" style="stroke: #000000; stroke-width: 0.6"/>
      </defs>
      <g>
       <use xlink:href="#m6e0b505f28" x="59.114855" y="578.24" style="stroke: #000000; stroke-width: 0.6"/>
      </g>
     </g>
    </g>
    <g id="xtick_5">
     <g id="line2d_8">
      <g>
       <use xlink:href="#m6e0b505f28" x="82.473382" y="578.24" style="stroke: #000000; stroke-width: 0.6"/>
      </g>
     </g>
    </g>
    <g id="xtick_6">
     <g id="line2d_9">
      <g>
       <use xlink:href="#m6e0b505f28" x="240.832036" y="578.24" style="stroke: #000000; stroke-width: 0.6"/>
      </g>
     </g>
    </g>
    <g id="xtick_7">
     <g id="line2d_10">
      <g>
       <use xlink:href="#m6e0b505f28" x="321.24317" y="578.24" style="stroke: #000000; stroke-width: 0.6"/>
      </g>
     </g>
    </g>
    <g id="xtick_8">
     <g id="line2d_11">
      <g>
       <use xlink:href="#m6e0b505f28" x="378.295777" y="578.24" style="stroke: #000000; stroke-width: 0.6"/>
      </g>
     </g>
    </g>
    <g id="xtick_9">
     <g id="line2d_12">
      <g>
       <use xlink:href="#m6e0b505f28" x="422.549218" y="578.24" style="stroke: #000000; stroke-width: 0.6"/>
      </g>
     </g>
    </g>
    <g id="xtick_10">
     <g id="line2d_13">
      <g>
       <use xlink:href="#m6e0b505f28" x="458.706911" y="578.24" style="stroke: #000000; stroke-width: 0.6"/>
      </g>
     </g>
    </g>
    <g id="xtick_11">
     <g id="line2d_14">
      <g>
       <use xlink:href="#m6e0b505f28" x="489.277805" y="578.24" style="stroke: #000000; stroke-width: 0.6"/>
      </g>
     </g>
    </g>
    <g id="xtick_12">
     <g id="line2d_15">
      <g>
       <use xlink:href="#m6e0b505f28" x="515.759518" y="578.24" style="stroke: #000000; stroke-width: 0.6"/>
      </g>
     </g>
    </g>
    <g id="xtick_13">
     <g id="line2d_16">
      <g>
       <use xlink:href="#m6e0b505f28" x="539.118045" y="578.24" style="stroke: #000000; stroke-width: 0.6"/>
      </g>
     </g>
    </g>
    <g id="xtick_14">
     <g id="line2d_17">
      <g>
       <use xlink:href="#m6e0b505f28" x="697.4767" y="578.24" style="stroke: #000000; stroke-width: 0.6"/>
      </g>
     </g>
    </g>
    <g id="xtick_15">
     <g id="line2d_18">
      <g>
       <use xlink:href="#m6e0b505f28" x="777.887833" y="578.24" style="stroke: #000000; stroke-width: 0.6"/>
      </g>
     </g>
    </g>
    <g id="xtick_16">
     <g id="line2d_19">
      <g>
       <use xlink:href="#m6e0b505f28" x="834.940441" y="578.24" style="stroke: #000000; stroke-width: 0.6"/>
      </g>
     </g>
    </g>
    <g id="xtick_17">
     <g id="line2d_20">
      <g>
       <use xlink:href="#m6e0b505f28" x="879.193881" y="578.24" style="stroke: #000000; stroke-width: 0.6"/>
      </g>
     </g>
    </g>
    <g id="xtick_18">
     <g id="line2d_21">
      <g>
       <use xlink:href="#m6e0b505f28" x="915.351574" y="578.24" style="stroke: #000000; stroke-width: 0.6"/>
      </g>
     </g>
    </g>
    <g id="xtick_19">
     <g id="line2d_22">
      <g>
       <use xlink:href="#m6e0b505f28" x="945.922469" y="578.24" style="stroke: #000000; stroke-width: 0.6"/>
      </g>
     </g>
    </g>
    <g id="xtick_20">
     <g id="line2d_23">
      <g>
       <use xlink:href="#m6e0b505f28" x="972.404182" y="578.24" style="stroke: #000000; stroke-width: 0.6"/>
      </g>
     </g>
    </g>
    <g id="xtick_21">
     <g id="line2d_24">
      <g>
       <use xlink:href="#m6e0b505f28" x="995.762708" y="578.24" style="stroke: #000000; stroke-width: 0.6"/>
      </g>
     </g>
    </g>
    <g id="text_4">
     <!-- Dimensione matrice $n$ -->
     <g transform="translate(493.67375 608.03625) scale(0.12 -0.12)">
      <defs>
       <path id="DejaVuSans-44" d="M 1259 4147 
L 1259 519 
L 2022 519 
Q 2988 519 3436 956 
Q 3884 1394 3884 2338 
Q 3884 3275 3436 3711 
Q 2988 4147 2022 4147 
L 1259 4147 
z
M 628 4666 
L 1925 4666 
Q 3281 4666 3915 4102 
Q 4550 3538 4550 2338 
Q 4550 1131 3912 565 
Q 3275 0 1925 0 
L 628 0 
L 628 4666 
z
" transform="scale(0.015625)"/>
       <path id="DejaVuSans-69" d="M 603 3500 
L 1178 3500 
L 1178 0 
L 603 0 
L 603 3500 
z
M 603 4863 
L 1178 4863 
L 1178 4134 
L 603 4134 
L 603 4863 
z
" transform="scale(0.015625)"/>
       <path id="DejaVuSans-6d" d="M 3328 2828 
Q 3544 3216 3844 3400 
Q 4144 3584 4550 3584 
Q 5097 3584 5394 3201 
Q 5691 2819 5691 2113 
L 5691 0 
L 5113 0 
L 5113 2094 
Q 5113 2597 4934 2840 
Q 4756 3084 4391 3084 
Q 3944 3084 3684 2787 
Q 3425 2491 3425 1978 
L 3425 0 
L 2847 0 
L 2847 2094 
Q 2847 2600 2669 2842 
Q 2491 3084 2119 3084 
Q 1678 3084 1418 2786 
Q 1159 2488 1159 1978 
L 1159 0 
L 581 0 
L 581 3500 
L 1159 3500 
L 1159 2956 
Q 1356 3278 1631 3431 
Q 1906 3584 2284 3584 
Q 2666 3584 2933 3390 
Q 3200 3197 3328 2828 
z
" transform="scale(0.015625)"/>
       <path id="DejaVuSans-65" d="M 3597 1894 
L 3597 1613 
L 953 1613 
Q 991 1019 1311 708 
Q 1631 397 2203 397 
Q 2534 397 2845 478 
Q 3156 559 3463 722 
L 3463 178 
Q 3153 47 2828 -22 
Q 2503 -91 2169 -91 
Q 1331 -91 842 396 
Q 353 884 353 1716 
Q 353 2575 817 3079 
Q 1281 3584 2069 3584 
Q 2775 3584 3186 3129 
Q 3597 2675 3597 1894 
z
M 3022 2063 
Q 3016 2534 2758 2815 
Q 2500 3097 2075 3097 
Q 1594 3097 1305 2825 
Q 1016 2553 972 2059 
L 3022 2063 
z
" transform="scale(0.015625)"/>
       <path id="DejaVuSans-6e" d="M 3513 2113 
L 3513 0 
L 2938 0 
L 2938 2094 
Q 2938 2591 2744 2837 
Q 2550 3084 2163 3084 
Q 1697 3084 1428 2787 
Q 1159 2491 1159 1978 
L 1159 0 
L 581 0 
L 581 3500 
L 1159 3500 
L 1159 2956 
Q 1366 3272 1645 3428 
Q 1925 3584 2291 3584 
Q 2894 3584 3203 3211 
Q 3513 2838 3513 2113 
z
" transform="scale(0.015625)"/>
       <path id="DejaVuSans-73" d="M 2834 3397 
L 2834 2853 
Q 2591 2978 2328 3040 
Q 2066 3103 1784 3103 
Q 1356 3103 1142 2972 
Q 928 2841 928 2578 
Q 928 2378 1081 2264 
Q 1234 2150 1697 2047 
L 1894 2003 
Q 2506 1872 2764 1633 
Q 3022 1394 3022 966 
Q 3022 478 2636 193 
Q 2250 -91 1575 -91 
Q 1294 -91 989 -36 
Q 684 19 347 128 
L 347 722 
Q 666 556 975 473 
Q 1284 391 1588 391 
Q 1994 391 2212 530 
Q 2431 669 2431 922 
Q 2431 1156 2273 1281 
Q 2116 1406 1581 1522 
L 1381 1569 
Q 847 1681 609 1914 
Q 372 2147 372 2553 
Q 372 3047 722 3315 
Q 1072 3584 1716 3584 
Q 2034 3584 2315 3537 
Q 2597 3491 2834 3397 
z
" transform="scale(0.015625)"/>
       <path id="DejaVuSans-6f" d="M 1959 3097 
Q 1497 3097 1228 2736 
Q 959 2375 959 1747 
Q 959 1119 1226 758 
Q 1494 397 1959 397 
Q 2419 397 2687 759 
Q 2956 1122 2956 1747 
Q 2956 2369 2687 2733 
Q 2419 3097 1959 3097 
z
M 1959 3584 
Q 2709 3584 3137 3096 
Q 3566 2609 3566 1747 
Q 3566 888 3137 398 
Q 2709 -91 1959 -91 
Q 1206 -91 779 398 
Q 353 888 353 1747 
Q 353 2609 779 3096 
Q 1206 3584 1959 3584 
z
" transform="scale(0.015625)"/>
       <path id="DejaVuSans-20" transform="scale(0.015625)"/>
       <path id="DejaVuSans-61" d="M 2194 1759 
Q 1497 1759 1228 1600 
Q 959 1441 959 1056 
Q 959 750 1161 570 
Q 1363 391 1709 391 
Q 2188 391 2477 730 
Q 2766 1069 2766 1631 
L 2766 1759 
L 2194 1759 
z
M 3341 1997 
L 3341 0 
L 2766 0 
L 2766 531 
Q 2569 213 2275 61 
Q 1981 -91 1556 -91 
Q 1019 -91 701 211 
Q 384 513 384 1019 
Q 384 1609 779 1909 
Q 1175 2209 1959 2209 
L 2766 2209 
L 2766 2266 
Q 2766 2663 2505 2880 
Q 2244 3097 1772 3097 
Q 1472 3097 1187 3025 
Q 903 2953 641 2809 
L 641 3341 
Q 956 3463 1253 3523 
Q 1550 3584 1831 3584 
Q 2591 3584 2966 3190 
Q 3341 2797 3341 1997 
z
" transform="scale(0.015625)"/>
       <path id="DejaVuSans-74" d="M 1172 4494 
L 1172 3500 
L 2356 3500 
L 2356 3053 
L 1172 3053 
L 1172 1153 
Q 1172 725 1289 603 
Q 1406 481 1766 481 
L 2356 481 
L 2356 0 
L 1766 0 
Q 1100 0 847 248 
Q 594 497 594 1153 
L 594 3053 
L 172 3053 
L 172 3500 
L 594 3500 
L 594 4494 
L 1172 4494 
z
" transform="scale(0.015625)"/>
       <path id="DejaVuSans-72" d="M 2631 2963 
Q 2534 3019 2420 3045 
Q 2306 3072 2169 3072 
Q 1681 3072 1420 2755 
Q 1159 2438 1159 1844 
L 1159 0 
L 581 0 
L 581 3500 
L 1159 3500 
L 1159 2956 
Q 1341 3275 1631 3429 
Q 1922 3584 2338 3584 
Q 2397 3584 2469 3576 
Q 2541 3569 2628 3553 
L 2631 2963 
z
" transform="scale(0.015625)"/>
       <path id="DejaVuSans-63" d="M 3122 3366 
L 3122 2828 
Q 2878 2963 2633 3030 
Q 2388 3097 2138 3097 
Q 1578 3097 1268 2742 
Q 959 2388 959 1747 
Q 959 1106 1268 751 
Q 1578 397 2138 397 
Q 2388 397 2633 464 
Q 2878 531 3122 666 
L 3122 134 
Q 2881 22 2623 -34 
Q 2366 -91 2075 -91 
Q 1284 -91 818 406 
Q 353 903 353 1747 
Q 353 2603 823 3093 
Q 1294 3584 2113 3584 
Q 2378 3584 2631 3529 
Q 2884 3475 3122 3366 
z
" transform="scale(0.015625)"/>
       <path id="DejaVuSans-Oblique-6e" d="M 3566 2113 
L 3156 0 
L 2578 0 
L 2988 2091 
Q 3016 2238 3031 2350 
Q 3047 2463 3047 2528 
Q 3047 2791 2881 2937 
Q 2716 3084 2419 3084 
Q 1956 3084 1622 2776 
Q 1288 2469 1184 1941 
L 800 0 
L 225 0 
L 903 3500 
L 1478 3500 
L 1363 2950 
Q 1603 3253 1940 3418 
Q 2278 3584 2650 3584 
Q 3113 3584 3367 3334 
Q 3622 3084 3622 2631 
Q 3622 2519 3608 2391 
Q 3594 2263 3566 2113 
z
" transform="scale(0.015625)"/>
      </defs>
      <use xlink:href="#DejaVuSans-44" transform="translate(0 0.015625)"/>
      <use xlink:href="#DejaVuSans-69" transform="translate(77.001953 0.015625)"/>
      <use xlink:href="#DejaVuSans-6d" transform="translate(104.785156 0.015625)"/>
      <use xlink:href="#DejaVuSans-65" transform="translate(202.197266 0.015625)"/>
      <use xlink:href="#DejaVuSans-6e" transform="translate(263.720703 0.015625)"/>
      <use xlink:href="#DejaVuSans-73" transform="translate(327.099609 0.015625)"/>
      <use xlink:href="#DejaVuSans-69" transform="translate(379.199219 0.015625)"/>
      <use xlink:href="#DejaVuSans-6f" transform="translate(406.982422 0.015625)"/>
      <use xlink:href="#DejaVuSans-6e" transform="translate(468.164062 0.015625)"/>
      <use xlink:href="#DejaVuSans-65" transform="translate(531.542969 0.015625)"/>
      <use xlink:href="#DejaVuSans-20" transform="translate(593.066406 0.015625)"/>
      <use xlink:href="#DejaVuSans-6d" transform="translate(624.853516 0.015625)"/>
      <use xlink:href="#DejaVuSans-61" transform="translate(722.265625 0.015625)"/>
      <use xlink:href="#DejaVuSans-74" transform="translate(783.544922 0.015625)"/>
      <use xlink:href="#DejaVuSans-72" transform="translate(822.753906 0.015625)"/>
      <use xlink:href="#DejaVuSans-69" transform="translate(863.867188 0.015625)"/>
      <use xlink:href="#DejaVuSans-63" transform="translate(891.650391 0.015625)"/>
      <use xlink:href="#DejaVuSans-65" transform="translate(946.630859 0.015625)"/>
      <use xlink:href="#DejaVuSans-20" transform="translate(1008.154297 0.015625)"/>
      <use xlink:href="#DejaVuSans-Oblique-6e" transform="translate(1039.941406 0.015625)"/>
     </g>
    </g>
   </g>
   <g id="matplotlib.axis_2">
    <g id="ytick_1">
     <g id="line2d_25">
      <path d="M 57.71375 577.598879 
L 1062.11375 577.598879 
" clip-path="url(#pf6ccbe01fa)" style="fill: none; stroke: #b0b0b0; stroke-width: 0.5; stroke-linecap: square"/>
     </g>
     <g id="line2d_26">
      <defs>
       <path id="mcbcf1506db" d="M 0 0 
L -3.5 0 
" style="stroke: #000000; stroke-width: 0.8"/>
      </defs>
      <g>
       <use xlink:href="#mcbcf1506db" x="57.71375" y="577.598879" style="stroke: #000000; stroke-width: 0.8"/>
      </g>
     </g>
     <g id="text_5">
      <!-- $\mathdefault{10^{-16}}$ -->
      <g transform="translate(22.81375 581.398098) scale(0.1 -0.1)">
       <defs>
        <path id="DejaVuSans-2212" d="M 678 2272 
L 4684 2272 
L 4684 1741 
L 678 1741 
L 678 2272 
z
" transform="scale(0.015625)"/>
        <path id="DejaVuSans-36" d="M 2113 2584 
Q 1688 2584 1439 2293 
Q 1191 2003 1191 1497 
Q 1191 994 1439 701 
Q 1688 409 2113 409 
Q 2538 409 2786 701 
Q 3034 994 3034 1497 
Q 3034 2003 2786 2293 
Q 2538 2584 2113 2584 
z
M 3366 4563 
L 3366 3988 
Q 3128 4100 2886 4159 
Q 2644 4219 2406 4219 
Q 1781 4219 1451 3797 
Q 1122 3375 1075 2522 
Q 1259 2794 1537 2939 
Q 1816 3084 2150 3084 
Q 2853 3084 3261 2657 
Q 3669 2231 3669 1497 
Q 3669 778 3244 343 
Q 2819 -91 2113 -91 
Q 1303 -91 875 529 
Q 447 1150 447 2328 
Q 447 3434 972 4092 
Q 1497 4750 2381 4750 
Q 2619 4750 2861 4703 
Q 3103 4656 3366 4563 
z
" transform="scale(0.015625)"/>
       </defs>
       <use xlink:href="#DejaVuSans-31" transform="translate(0 0.765625)"/>
       <use xlink:href="#DejaVuSans-30" transform="translate(63.623047 0.765625)"/>
       <use xlink:href="#DejaVuSans-2212" transform="translate(128.203125 39.046875) scale(0.7)"/>
       <use xlink:href="#DejaVuSans-31" transform="translate(186.855469 39.046875) scale(0.7)"/>
       <use xlink:href="#DejaVuSans-36" transform="translate(231.391602 39.046875) scale(0.7)"/>
      </g>
     </g>
    </g>
    <g id="ytick_2">
     <g id="line2d_27">
      <path d="M 57.71375 286.369478 
L 1062.11375 286.369478 
" clip-path="url(#pf6ccbe01fa)" style="fill: none; stroke: #b0b0b0; stroke-width: 0.5; stroke-linecap: square"/>
     </g>
     <g id="line2d_28">
      <g>
       <use xlink:href="#mcbcf1506db" x="57.71375" y="286.369478" style="stroke: #000000; stroke-width: 0.8"/>
      </g>
     </g>
     <g id="text_6">
      <!-- $\mathdefault{10^{-15}}$ -->
      <g transform="translate(22.81375 290.168697) scale(0.1 -0.1)">
       <defs>
        <path id="DejaVuSans-35" d="M 691 4666 
L 3169 4666 
L 3169 4134 
L 1269 4134 
L 1269 2991 
Q 1406 3038 1543 3061 
Q 1681 3084 1819 3084 
Q 2600 3084 3056 2656 
Q 3513 2228 3513 1497 
Q 3513 744 3044 326 
Q 2575 -91 1722 -91 
Q 1428 -91 1123 -41 
Q 819 9 494 109 
L 494 744 
Q 775 591 1075 516 
Q 1375 441 1709 441 
Q 2250 441 2565 725 
Q 2881 1009 2881 1497 
Q 2881 1984 2565 2268 
Q 2250 2553 1709 2553 
Q 1456 2553 1204 2497 
Q 953 2441 691 2322 
L 691 4666 
z
" transform="scale(0.015625)"/>
       </defs>
       <use xlink:href="#DejaVuSans-31" transform="translate(0 0.684375)"/>
       <use xlink:href="#DejaVuSans-30" transform="translate(63.623047 0.684375)"/>
       <use xlink:href="#DejaVuSans-2212" transform="translate(128.203125 38.965625) scale(0.7)"/>
       <use xlink:href="#DejaVuSans-31" transform="translate(186.855469 38.965625) scale(0.7)"/>
       <use xlink:href="#DejaVuSans-35" transform="translate(231.391602 38.965625) scale(0.7)"/>
      </g>
     </g>
    </g>
    <g id="ytick_3">
     <g id="line2d_29">
      <defs>
       <path id="m6c757d63d1" d="M 0 0 
L -2 0 
" style="stroke: #000000; stroke-width: 0.6"/>
      </defs>
      <g>
       <use xlink:href="#m6c757d63d1" x="57.71375" y="489.930094" style="stroke: #000000; stroke-width: 0.6"/>
      </g>
     </g>
    </g>
    <g id="ytick_4">
     <g id="line2d_30">
      <g>
       <use xlink:href="#m6c757d63d1" x="57.71375" y="438.647142" style="stroke: #000000; stroke-width: 0.6"/>
      </g>
     </g>
    </g>
    <g id="ytick_5">
     <g id="line2d_31">
      <g>
       <use xlink:href="#m6c757d63d1" x="57.71375" y="402.261309" style="stroke: #000000; stroke-width: 0.6"/>
      </g>
     </g>
    </g>
    <g id="ytick_6">
     <g id="line2d_32">
      <g>
       <use xlink:href="#m6c757d63d1" x="57.71375" y="374.038264" style="stroke: #000000; stroke-width: 0.6"/>
      </g>
     </g>
    </g>
    <g id="ytick_7">
     <g id="line2d_33">
      <g>
       <use xlink:href="#m6c757d63d1" x="57.71375" y="350.978357" style="stroke: #000000; stroke-width: 0.6"/>
      </g>
     </g>
    </g>
    <g id="ytick_8">
     <g id="line2d_34">
      <g>
       <use xlink:href="#m6c757d63d1" x="57.71375" y="331.481483" style="stroke: #000000; stroke-width: 0.6"/>
      </g>
     </g>
    </g>
    <g id="ytick_9">
     <g id="line2d_35">
      <g>
       <use xlink:href="#m6c757d63d1" x="57.71375" y="314.592523" style="stroke: #000000; stroke-width: 0.6"/>
      </g>
     </g>
    </g>
    <g id="ytick_10">
     <g id="line2d_36">
      <g>
       <use xlink:href="#m6c757d63d1" x="57.71375" y="299.695405" style="stroke: #000000; stroke-width: 0.6"/>
      </g>
     </g>
    </g>
    <g id="ytick_11">
     <g id="line2d_37">
      <g>
       <use xlink:href="#m6c757d63d1" x="57.71375" y="198.700693" style="stroke: #000000; stroke-width: 0.6"/>
      </g>
     </g>
    </g>
    <g id="ytick_12">
     <g id="line2d_38">
      <g>
       <use xlink:href="#m6c757d63d1" x="57.71375" y="147.417741" style="stroke: #000000; stroke-width: 0.6"/>
      </g>
     </g>
    </g>
    <g id="ytick_13">
     <g id="line2d_39">
      <g>
       <use xlink:href="#m6c757d63d1" x="57.71375" y="111.031908" style="stroke: #000000; stroke-width: 0.6"/>
      </g>
     </g>
    </g>
    <g id="ytick_14">
     <g id="line2d_40">
      <g>
       <use xlink:href="#m6c757d63d1" x="57.71375" y="82.808863" style="stroke: #000000; stroke-width: 0.6"/>
      </g>
     </g>
    </g>
    <g id="ytick_15">
     <g id="line2d_41">
      <g>
       <use xlink:href="#m6c757d63d1" x="57.71375" y="59.748956" style="stroke: #000000; stroke-width: 0.6"/>
      </g>
     </g>
    </g>
    <g id="ytick_16">
     <g id="line2d_42">
      <g>
       <use xlink:href="#m6c757d63d1" x="57.71375" y="40.252082" style="stroke: #000000; stroke-width: 0.6"/>
      </g>
     </g>
    </g>
    <g id="text_7">
     <!-- Errore -->
     <g transform="translate(16.318125 319.219063) rotate(-90) scale(0.12 -0.12)">
      <defs>
       <path id="DejaVuSans-45" d="M 628 4666 
L 3578 4666 
L 3578 4134 
L 1259 4134 
L 1259 2753 
L 3481 2753 
L 3481 2222 
L 1259 2222 
L 1259 531 
L 3634 531 
L 3634 0 
L 628 0 
L 628 4666 
z
" transform="scale(0.015625)"/>
      </defs>
      <use xlink:href="#DejaVuSans-45"/>
      <use xlink:href="#DejaVuSans-72" x="63.183594"/>
      <use xlink:href="#DejaVuSans-72" x="102.546875"/>
      <use xlink:href="#DejaVuSans-6f" x="141.410156"/>
      <use xlink:href="#DejaVuSans-72" x="202.591797"/>
      <use xlink:href="#DejaVuSans-65" x="241.455078"/>
     </g>
    </g>
   </g>
   <g id="line2d_43">
    <path d="M 103.368295 553.04 
L 139.525989 549.476967 
L 196.578596 546.011563 
L 240.832036 543.055317 
L 292.86366 534.579848 
L 340.144919 524.231089 
L 387.971758 513.751601 
L 437.811997 503.271789 
L 486.424256 493.310054 
L 534.661267 480.720854 
L 582.488106 466.983614 
L 630.946331 456.539688 
L 679.859848 441.286182 
L 727.76408 428.923639 
L 775.894668 414.521896 
L 824.245466 401.474371 
L 872.333766 385.404817 
L 920.24857 371.607258 
L 968.397616 357.297366 
L 1016.459205 341.676348 
" clip-path="url(#pf6ccbe01fa)" style="fill: none; stroke: #1f77b4; stroke-width: 1.5; stroke-linecap: square"/>
    <defs>
     <path id="md8b62e41e8" d="M 0 1.5 
C 0.397805 1.5 0.77937 1.341951 1.06066 1.06066 
C 1.341951 0.77937 1.5 0.397805 1.5 0 
C 1.5 -0.397805 1.341951 -0.77937 1.06066 -1.06066 
C 0.77937 -1.341951 0.397805 -1.5 0 -1.5 
C -0.397805 -1.5 -0.77937 -1.341951 -1.06066 -1.06066 
C -1.341951 -0.77937 -1.5 -0.397805 -1.5 0 
C -1.5 0.397805 -1.341951 0.77937 -1.06066 1.06066 
C -0.77937 1.341951 -0.397805 1.5 0 1.5 
z
" style="stroke: #1f77b4"/>
    </defs>
    <g clip-path="url(#pf6ccbe01fa)">
     <use xlink:href="#md8b62e41e8" x="103.368295" y="553.04" style="fill: #1f77b4; stroke: #1f77b4"/>
     <use xlink:href="#md8b62e41e8" x="139.525989" y="549.476967" style="fill: #1f77b4; stroke: #1f77b4"/>
     <use xlink:href="#md8b62e41e8" x="196.578596" y="546.011563" style="fill: #1f77b4; stroke: #1f77b4"/>
     <use xlink:href="#md8b62e41e8" x="240.832036" y="543.055317" style="fill: #1f77b4; stroke: #1f77b4"/>
     <use xlink:href="#md8b62e41e8" x="292.86366" y="534.579848" style="fill: #1f77b4; stroke: #1f77b4"/>
     <use xlink:href="#md8b62e41e8" x="340.144919" y="524.231089" style="fill: #1f77b4; stroke: #1f77b4"/>
     <use xlink:href="#md8b62e41e8" x="387.971758" y="513.751601" style="fill: #1f77b4; stroke: #1f77b4"/>
     <use xlink:href="#md8b62e41e8" x="437.811997" y="503.271789" style="fill: #1f77b4; stroke: #1f77b4"/>
     <use xlink:href="#md8b62e41e8" x="486.424256" y="493.310054" style="fill: #1f77b4; stroke: #1f77b4"/>
     <use xlink:href="#md8b62e41e8" x="534.661267" y="480.720854" style="fill: #1f77b4; stroke: #1f77b4"/>
     <use xlink:href="#md8b62e41e8" x="582.488106" y="466.983614" style="fill: #1f77b4; stroke: #1f77b4"/>
     <use xlink:href="#md8b62e41e8" x="630.946331" y="456.539688" style="fill: #1f77b4; stroke: #1f77b4"/>
     <use xlink:href="#md8b62e41e8" x="679.859848" y="441.286182" style="fill: #1f77b4; stroke: #1f77b4"/>
     <use xlink:href="#md8b62e41e8" x="727.76408" y="428.923639" style="fill: #1f77b4; stroke: #1f77b4"/>
     <use xlink:href="#md8b62e41e8" x="775.894668" y="414.521896" style="fill: #1f77b4; stroke: #1f77b4"/>
     <use xlink:href="#md8b62e41e8" x="824.245466" y="401.474371" style="fill: #1f77b4; stroke: #1f77b4"/>
     <use xlink:href="#md8b62e41e8" x="872.333766" y="385.404817" style="fill: #1f77b4; stroke: #1f77b4"/>
     <use xlink:href="#md8b62e41e8" x="920.24857" y="371.607258" style="fill: #1f77b4; stroke: #1f77b4"/>
     <use xlink:href="#md8b62e41e8" x="968.397616" y="357.297366" style="fill: #1f77b4; stroke: #1f77b4"/>
     <use xlink:href="#md8b62e41e8" x="1016.459205" y="341.676348" style="fill: #1f77b4; stroke: #1f77b4"/>
    </g>
   </g>
   <g id="line2d_44">
    <path d="M 103.368295 448.482255 
L 139.525989 425.422348 
L 196.578596 400.266427 
L 240.832036 384.547089 
L 292.86366 370.247418 
L 340.144919 348.264906 
L 387.971758 330.773052 
L 437.811997 306.407413 
L 486.424256 274.986045 
L 534.661267 275.733943 
L 582.488106 246.457573 
L 630.946331 220.45737 
L 679.859848 209.793866 
L 727.76408 181.458035 
L 775.894668 158.963942 
L 824.245466 145.926674 
L 872.333766 117.759431 
L 920.24857 95.334604 
L 968.397616 54.952305 
L 1016.459205 49.04 
" clip-path="url(#pf6ccbe01fa)" style="fill: none; stroke: #ff7f0e; stroke-width: 1.5; stroke-linecap: square"/>
    <defs>
     <path id="m879a0697b8" d="M 0 1.5 
C 0.397805 1.5 0.77937 1.341951 1.06066 1.06066 
C 1.341951 0.77937 1.5 0.397805 1.5 0 
C 1.5 -0.397805 1.341951 -0.77937 1.06066 -1.06066 
C 0.77937 -1.341951 0.397805 -1.5 0 -1.5 
C -0.397805 -1.5 -0.77937 -1.341951 -1.06066 -1.06066 
C -1.341951 -0.77937 -1.5 -0.397805 -1.5 0 
C -1.5 0.397805 -1.341951 0.77937 -1.06066 1.06066 
C -0.77937 1.341951 -0.397805 1.5 0 1.5 
z
" style="stroke: #ff7f0e"/>
    </defs>
    <g clip-path="url(#pf6ccbe01fa)">
     <use xlink:href="#m879a0697b8" x="103.368295" y="448.482255" style="fill: #ff7f0e; stroke: #ff7f0e"/>
     <use xlink:href="#m879a0697b8" x="139.525989" y="425.422348" style="fill: #ff7f0e; stroke: #ff7f0e"/>
     <use xlink:href="#m879a0697b8" x="196.578596" y="400.266427" style="fill: #ff7f0e; stroke: #ff7f0e"/>
     <use xlink:href="#m879a0697b8" x="240.832036" y="384.547089" style="fill: #ff7f0e; stroke: #ff7f0e"/>
     <use xlink:href="#m879a0697b8" x="292.86366" y="370.247418" style="fill: #ff7f0e; stroke: #ff7f0e"/>
     <use xlink:href="#m879a0697b8" x="340.144919" y="348.264906" style="fill: #ff7f0e; stroke: #ff7f0e"/>
     <use xlink:href="#m879a0697b8" x="387.971758" y="330.773052" style="fill: #ff7f0e; stroke: #ff7f0e"/>
     <use xlink:href="#m879a0697b8" x="437.811997" y="306.407413" style="fill: #ff7f0e; stroke: #ff7f0e"/>
     <use xlink:href="#m879a0697b8" x="486.424256" y="274.986045" style="fill: #ff7f0e; stroke: #ff7f0e"/>
     <use xlink:href="#m879a0697b8" x="534.661267" y="275.733943" style="fill: #ff7f0e; stroke: #ff7f0e"/>
     <use xlink:href="#m879a0697b8" x="582.488106" y="246.457573" style="fill: #ff7f0e; stroke: #ff7f0e"/>
     <use xlink:href="#m879a0697b8" x="630.946331" y="220.45737" style="fill: #ff7f0e; stroke: #ff7f0e"/>
     <use xlink:href="#m879a0697b8" x="679.859848" y="209.793866" style="fill: #ff7f0e; stroke: #ff7f0e"/>
     <use xlink:href="#m879a0697b8" x="727.76408" y="181.458035" style="fill: #ff7f0e; stroke: #ff7f0e"/>
     <use xlink:href="#m879a0697b8" x="775.894668" y="158.963942" style="fill: #ff7f0e; stroke: #ff7f0e"/>
     <use xlink:href="#m879a0697b8" x="824.245466" y="145.926674" style="fill: #ff7f0e; stroke: #ff7f0e"/>
     <use xlink:href="#m879a0697b8" x="872.333766" y="117.759431" style="fill: #ff7f0e; stroke: #ff7f0e"/>
     <use xlink:href="#m879a0697b8" x="920.24857" y="95.334604" style="fill: #ff7f0e; stroke: #ff7f0e"/>
     <use xlink:href="#m879a0697b8" x="968.397616" y="54.952305" style="fill: #ff7f0e; stroke: #ff7f0e"/>
     <use xlink:href="#m879a0697b8" x="1016.459205" y="49.04" style="fill: #ff7f0e; stroke: #ff7f0e"/>
    </g>
   </g>
   <g id="line2d_45">
    <path d="M 103.368295 454.969796 
L 139.525989 439.887901 
L 196.578596 430.119733 
L 240.832036 406.633251 
L 292.86366 383.774603 
L 340.144919 375.131396 
L 387.971758 344.997452 
L 437.811997 319.248689 
L 486.424256 301.94028 
L 534.661267 284.749731 
L 582.488106 264.321179 
L 630.946331 257.924096 
L 679.859848 229.55822 
L 727.76408 205.165461 
L 775.894668 197.226673 
L 824.245466 163.745108 
L 872.333766 139.393805 
L 920.24857 123.155705 
L 968.397616 106.96788 
L 1016.459205 91.200412 
" clip-path="url(#pf6ccbe01fa)" style="fill: none; stroke: #2ca02c; stroke-width: 1.5; stroke-linecap: square"/>
    <defs>
     <path id="m03c0204348" d="M 0 1.5 
C 0.397805 1.5 0.77937 1.341951 1.06066 1.06066 
C 1.341951 0.77937 1.5 0.397805 1.5 0 
C 1.5 -0.397805 1.341951 -0.77937 1.06066 -1.06066 
C 0.77937 -1.341951 0.397805 -1.5 0 -1.5 
C -0.397805 -1.5 -0.77937 -1.341951 -1.06066 -1.06066 
C -1.341951 -0.77937 -1.5 -0.397805 -1.5 0 
C -1.5 0.397805 -1.341951 0.77937 -1.06066 1.06066 
C -0.77937 1.341951 -0.397805 1.5 0 1.5 
z
" style="stroke: #2ca02c"/>
    </defs>
    <g clip-path="url(#pf6ccbe01fa)">
     <use xlink:href="#m03c0204348" x="103.368295" y="454.969796" style="fill: #2ca02c; stroke: #2ca02c"/>
     <use xlink:href="#m03c0204348" x="139.525989" y="439.887901" style="fill: #2ca02c; stroke: #2ca02c"/>
     <use xlink:href="#m03c0204348" x="196.578596" y="430.119733" style="fill: #2ca02c; stroke: #2ca02c"/>
     <use xlink:href="#m03c0204348" x="240.832036" y="406.633251" style="fill: #2ca02c; stroke: #2ca02c"/>
     <use xlink:href="#m03c0204348" x="292.86366" y="383.774603" style="fill: #2ca02c; stroke: #2ca02c"/>
     <use xlink:href="#m03c0204348" x="340.144919" y="375.131396" style="fill: #2ca02c; stroke: #2ca02c"/>
     <use xlink:href="#m03c0204348" x="387.971758" y="344.997452" style="fill: #2ca02c; stroke: #2ca02c"/>
     <use xlink:href="#m03c0204348" x="437.811997" y="319.248689" style="fill: #2ca02c; stroke: #2ca02c"/>
     <use xlink:href="#m03c0204348" x="486.424256" y="301.94028" style="fill: #2ca02c; stroke: #2ca02c"/>
     <use xlink:href="#m03c0204348" x="534.661267" y="284.749731" style="fill: #2ca02c; stroke: #2ca02c"/>
     <use xlink:href="#m03c0204348" x="582.488106" y="264.321179" style="fill: #2ca02c; stroke: #2ca02c"/>
     <use xlink:href="#m03c0204348" x="630.946331" y="257.924096" style="fill: #2ca02c; stroke: #2ca02c"/>
     <use xlink:href="#m03c0204348" x="679.859848" y="229.55822" style="fill: #2ca02c; stroke: #2ca02c"/>
     <use xlink:href="#m03c0204348" x="727.76408" y="205.165461" style="fill: #2ca02c; stroke: #2ca02c"/>
     <use xlink:href="#m03c0204348" x="775.894668" y="197.226673" style="fill: #2ca02c; stroke: #2ca02c"/>
     <use xlink:href="#m03c0204348" x="824.245466" y="163.745108" style="fill: #2ca02c; stroke: #2ca02c"/>
     <use xlink:href="#m03c0204348" x="872.333766" y="139.393805" style="fill: #2ca02c; stroke: #2ca02c"/>
     <use xlink:href="#m03c0204348" x="920.24857" y="123.155705" style="fill: #2ca02c; stroke: #2ca02c"/>
     <use xlink:href="#m03c0204348" x="968.397616" y="106.96788" style="fill: #2ca02c; stroke: #2ca02c"/>
     <use xlink:href="#m03c0204348" x="1016.459205" y="91.200412" style="fill: #2ca02c; stroke: #2ca02c"/>
    </g>
   </g>
   <g id="line2d_46">
    <path d="M 103.368295 369.504356 
L 139.525989 352.403892 
L 196.578596 331.019233 
L 240.832036 324.625415 
L 292.86366 324.625415 
L 340.144919 316.922729 
L 387.971758 317.513377 
L 437.811997 318.212584 
L 486.424256 313.937675 
L 534.661267 316.365243 
L 582.488106 316.217573 
L 630.946331 318.555352 
L 679.859848 344.526919 
L 727.76408 338.235674 
L 775.894668 336.409782 
L 824.245466 335.964374 
L 872.333766 322.751271 
L 920.24857 314.103514 
L 968.397616 320.885281 
L 1016.459205 317.124497 
" clip-path="url(#pf6ccbe01fa)" style="fill: none; stroke: #d62728; stroke-width: 1.5; stroke-linecap: square"/>
    <defs>
     <path id="m3f023e2284" d="M 0 1.5 
C 0.397805 1.5 0.77937 1.341951 1.06066 1.06066 
C 1.341951 0.77937 1.5 0.397805 1.5 0 
C 1.5 -0.397805 1.341951 -0.77937 1.06066 -1.06066 
C 0.77937 -1.341951 0.397805 -1.5 0 -1.5 
C -0.397805 -1.5 -0.77937 -1.341951 -1.06066 -1.06066 
C -1.341951 -0.77937 -1.5 -0.397805 -1.5 0 
C -1.5 0.397805 -1.341951 0.77937 -1.06066 1.06066 
C -0.77937 1.341951 -0.397805 1.5 0 1.5 
z
" style="stroke: #d62728"/>
    </defs>
    <g clip-path="url(#pf6ccbe01fa)">
     <use xlink:href="#m3f023e2284" x="103.368295" y="369.504356" style="fill: #d62728; stroke: #d62728"/>
     <use xlink:href="#m3f023e2284" x="139.525989" y="352.403892" style="fill: #d62728; stroke: #d62728"/>
     <use xlink:href="#m3f023e2284" x="196.578596" y="331.019233" style="fill: #d62728; stroke: #d62728"/>
     <use xlink:href="#m3f023e2284" x="240.832036" y="324.625415" style="fill: #d62728; stroke: #d62728"/>
     <use xlink:href="#m3f023e2284" x="292.86366" y="324.625415" style="fill: #d62728; stroke: #d62728"/>
     <use xlink:href="#m3f023e2284" x="340.144919" y="316.922729" style="fill: #d62728; stroke: #d62728"/>
     <use xlink:href="#m3f023e2284" x="387.971758" y="317.513377" style="fill: #d62728; stroke: #d62728"/>
     <use xlink:href="#m3f023e2284" x="437.811997" y="318.212584" style="fill: #d62728; stroke: #d62728"/>
     <use xlink:href="#m3f023e2284" x="486.424256" y="313.937675" style="fill: #d62728; stroke: #d62728"/>
     <use xlink:href="#m3f023e2284" x="534.661267" y="316.365243" style="fill: #d62728; stroke: #d62728"/>
     <use xlink:href="#m3f023e2284" x="582.488106" y="316.217573" style="fill: #d62728; stroke: #d62728"/>
     <use xlink:href="#m3f023e2284" x="630.946331" y="318.555352" style="fill: #d62728; stroke: #d62728"/>
     <use xlink:href="#m3f023e2284" x="679.859848" y="344.526919" style="fill: #d62728; stroke: #d62728"/>
     <use xlink:href="#m3f023e2284" x="727.76408" y="338.235674" style="fill: #d62728; stroke: #d62728"/>
     <use xlink:href="#m3f023e2284" x="775.894668" y="336.409782" style="fill: #d62728; stroke: #d62728"/>
     <use xlink:href="#m3f023e2284" x="824.245466" y="335.964374" style="fill: #d62728; stroke: #d62728"/>
     <use xlink:href="#m3f023e2284" x="872.333766" y="322.751271" style="fill: #d62728; stroke: #d62728"/>
     <use xlink:href="#m3f023e2284" x="920.24857" y="314.103514" style="fill: #d62728; stroke: #d62728"/>
     <use xlink:href="#m3f023e2284" x="968.397616" y="320.885281" style="fill: #d62728; stroke: #d62728"/>
     <use xlink:href="#m3f023e2284" x="1016.459205" y="317.124497" style="fill: #d62728; stroke: #d62728"/>
    </g>
   </g>
   <g id="line2d_47">
    <path d="M 103.368295 377.251522 
L 139.525989 367.301011 
L 196.578596 341.344831 
L 240.832036 327.477888 
L 292.86366 357.401489 
L 340.144919 345.543611 
L 387.971758 342.793246 
L 437.811997 343.394507 
L 486.424256 348.750281 
L 534.661267 344.225936 
L 582.488106 321.561613 
L 630.946331 337.493933 
L 679.859848 335.602723 
L 727.76408 337.127248 
L 775.894668 333.728782 
L 824.245466 330.465392 
L 872.333766 318.708546 
L 920.24857 315.586224 
L 968.397616 319.467217 
L 1016.459205 314.321809 
" clip-path="url(#pf6ccbe01fa)" style="fill: none; stroke: #9467bd; stroke-width: 1.5; stroke-linecap: square"/>
    <defs>
     <path id="m09ea124ba3" d="M 0 1.5 
C 0.397805 1.5 0.77937 1.341951 1.06066 1.06066 
C 1.341951 0.77937 1.5 0.397805 1.5 0 
C 1.5 -0.397805 1.341951 -0.77937 1.06066 -1.06066 
C 0.77937 -1.341951 0.397805 -1.5 0 -1.5 
C -0.397805 -1.5 -0.77937 -1.341951 -1.06066 -1.06066 
C -1.341951 -0.77937 -1.5 -0.397805 -1.5 0 
C -1.5 0.397805 -1.341951 0.77937 -1.06066 1.06066 
C -0.77937 1.341951 -0.397805 1.5 0 1.5 
z
" style="stroke: #9467bd"/>
    </defs>
    <g clip-path="url(#pf6ccbe01fa)">
     <use xlink:href="#m09ea124ba3" x="103.368295" y="377.251522" style="fill: #9467bd; stroke: #9467bd"/>
     <use xlink:href="#m09ea124ba3" x="139.525989" y="367.301011" style="fill: #9467bd; stroke: #9467bd"/>
     <use xlink:href="#m09ea124ba3" x="196.578596" y="341.344831" style="fill: #9467bd; stroke: #9467bd"/>
     <use xlink:href="#m09ea124ba3" x="240.832036" y="327.477888" style="fill: #9467bd; stroke: #9467bd"/>
     <use xlink:href="#m09ea124ba3" x="292.86366" y="357.401489" style="fill: #9467bd; stroke: #9467bd"/>
     <use xlink:href="#m09ea124ba3" x="340.144919" y="345.543611" style="fill: #9467bd; stroke: #9467bd"/>
     <use xlink:href="#m09ea124ba3" x="387.971758" y="342.793246" style="fill: #9467bd; stroke: #9467bd"/>
     <use xlink:href="#m09ea124ba3" x="437.811997" y="343.394507" style="fill: #9467bd; stroke: #9467bd"/>
     <use xlink:href="#m09ea124ba3" x="486.424256" y="348.750281" style="fill: #9467bd; stroke: #9467bd"/>
     <use xlink:href="#m09ea124ba3" x="534.661267" y="344.225936" style="fill: #9467bd; stroke: #9467bd"/>
     <use xlink:href="#m09ea124ba3" x="582.488106" y="321.561613" style="fill: #9467bd; stroke: #9467bd"/>
     <use xlink:href="#m09ea124ba3" x="630.946331" y="337.493933" style="fill: #9467bd; stroke: #9467bd"/>
     <use xlink:href="#m09ea124ba3" x="679.859848" y="335.602723" style="fill: #9467bd; stroke: #9467bd"/>
     <use xlink:href="#m09ea124ba3" x="727.76408" y="337.127248" style="fill: #9467bd; stroke: #9467bd"/>
     <use xlink:href="#m09ea124ba3" x="775.894668" y="333.728782" style="fill: #9467bd; stroke: #9467bd"/>
     <use xlink:href="#m09ea124ba3" x="824.245466" y="330.465392" style="fill: #9467bd; stroke: #9467bd"/>
     <use xlink:href="#m09ea124ba3" x="872.333766" y="318.708546" style="fill: #9467bd; stroke: #9467bd"/>
     <use xlink:href="#m09ea124ba3" x="920.24857" y="315.586224" style="fill: #9467bd; stroke: #9467bd"/>
     <use xlink:href="#m09ea124ba3" x="968.397616" y="319.467217" style="fill: #9467bd; stroke: #9467bd"/>
     <use xlink:href="#m09ea124ba3" x="1016.459205" y="314.321809" style="fill: #9467bd; stroke: #9467bd"/>
    </g>
   </g>
   <g id="line2d_48">
    <path d="M 103.368295 441.560687 
L 139.525989 434.998328 
L 196.578596 425.093403 
L 240.832036 415.603003 
L 292.86366 414.616361 
L 340.144919 410.525229 
L 387.971758 408.456215 
L 437.811997 405.643469 
L 486.424256 405.414802 
L 534.661267 407.472214 
L 582.488106 404.040548 
L 630.946331 403.738861 
L 679.859848 409.593161 
L 727.76408 409.60203 
L 775.894668 412.961663 
L 824.245466 406.287162 
L 872.333766 408.665938 
L 920.24857 414.350821 
L 968.397616 417.478796 
L 1016.459205 410.759395 
" clip-path="url(#pf6ccbe01fa)" style="fill: none; stroke: #8c564b; stroke-width: 1.5; stroke-linecap: square"/>
    <defs>
     <path id="m5991ed8937" d="M 0 1.5 
C 0.397805 1.5 0.77937 1.341951 1.06066 1.06066 
C 1.341951 0.77937 1.5 0.397805 1.5 0 
C 1.5 -0.397805 1.341951 -0.77937 1.06066 -1.06066 
C 0.77937 -1.341951 0.397805 -1.5 0 -1.5 
C -0.397805 -1.5 -0.77937 -1.341951 -1.06066 -1.06066 
C -1.341951 -0.77937 -1.5 -0.397805 -1.5 0 
C -1.5 0.397805 -1.341951 0.77937 -1.06066 1.06066 
C -0.77937 1.341951 -0.397805 1.5 0 1.5 
z
" style="stroke: #8c564b"/>
    </defs>
    <g clip-path="url(#pf6ccbe01fa)">
     <use xlink:href="#m5991ed8937" x="103.368295" y="441.560687" style="fill: #8c564b; stroke: #8c564b"/>
     <use xlink:href="#m5991ed8937" x="139.525989" y="434.998328" style="fill: #8c564b; stroke: #8c564b"/>
     <use xlink:href="#m5991ed8937" x="196.578596" y="425.093403" style="fill: #8c564b; stroke: #8c564b"/>
     <use xlink:href="#m5991ed8937" x="240.832036" y="415.603003" style="fill: #8c564b; stroke: #8c564b"/>
     <use xlink:href="#m5991ed8937" x="292.86366" y="414.616361" style="fill: #8c564b; stroke: #8c564b"/>
     <use xlink:href="#m5991ed8937" x="340.144919" y="410.525229" style="fill: #8c564b; stroke: #8c564b"/>
     <use xlink:href="#m5991ed8937" x="387.971758" y="408.456215" style="fill: #8c564b; stroke: #8c564b"/>
     <use xlink:href="#m5991ed8937" x="437.811997" y="405.643469" style="fill: #8c564b; stroke: #8c564b"/>
     <use xlink:href="#m5991ed8937" x="486.424256" y="405.414802" style="fill: #8c564b; stroke: #8c564b"/>
     <use xlink:href="#m5991ed8937" x="534.661267" y="407.472214" style="fill: #8c564b; stroke: #8c564b"/>
     <use xlink:href="#m5991ed8937" x="582.488106" y="404.040548" style="fill: #8c564b; stroke: #8c564b"/>
     <use xlink:href="#m5991ed8937" x="630.946331" y="403.738861" style="fill: #8c564b; stroke: #8c564b"/>
     <use xlink:href="#m5991ed8937" x="679.859848" y="409.593161" style="fill: #8c564b; stroke: #8c564b"/>
     <use xlink:href="#m5991ed8937" x="727.76408" y="409.60203" style="fill: #8c564b; stroke: #8c564b"/>
     <use xlink:href="#m5991ed8937" x="775.894668" y="412.961663" style="fill: #8c564b; stroke: #8c564b"/>
     <use xlink:href="#m5991ed8937" x="824.245466" y="406.287162" style="fill: #8c564b; stroke: #8c564b"/>
     <use xlink:href="#m5991ed8937" x="872.333766" y="408.665938" style="fill: #8c564b; stroke: #8c564b"/>
     <use xlink:href="#m5991ed8937" x="920.24857" y="414.350821" style="fill: #8c564b; stroke: #8c564b"/>
     <use xlink:href="#m5991ed8937" x="968.397616" y="417.478796" style="fill: #8c564b; stroke: #8c564b"/>
     <use xlink:href="#m5991ed8937" x="1016.459205" y="410.759395" style="fill: #8c564b; stroke: #8c564b"/>
    </g>
   </g>
   <g id="line2d_49">
    <path d="M 103.368295 435.354107 
L 139.525989 422.814434 
L 196.578596 413.48741 
L 240.832036 408.780659 
L 292.86366 392.543097 
L 340.144919 395.108688 
L 387.971758 395.027721 
L 437.811997 393.115834 
L 486.424256 396.673401 
L 534.661267 402.341857 
L 582.488106 389.985729 
L 630.946331 387.681277 
L 679.859848 394.615591 
L 727.76408 394.861899 
L 775.894668 398.309621 
L 824.245466 388.318695 
L 872.333766 397.111843 
L 920.24857 402.543018 
L 968.397616 393.547955 
L 1016.459205 392.683803 
" clip-path="url(#pf6ccbe01fa)" style="fill: none; stroke: #e377c2; stroke-width: 1.5; stroke-linecap: square"/>
    <defs>
     <path id="mef03cbe746" d="M 0 1.5 
C 0.397805 1.5 0.77937 1.341951 1.06066 1.06066 
C 1.341951 0.77937 1.5 0.397805 1.5 0 
C 1.5 -0.397805 1.341951 -0.77937 1.06066 -1.06066 
C 0.77937 -1.341951 0.397805 -1.5 0 -1.5 
C -0.397805 -1.5 -0.77937 -1.341951 -1.06066 -1.06066 
C -1.341951 -0.77937 -1.5 -0.397805 -1.5 0 
C -1.5 0.397805 -1.341951 0.77937 -1.06066 1.06066 
C -0.77937 1.341951 -0.397805 1.5 0 1.5 
z
" style="stroke: #e377c2"/>
    </defs>
    <g clip-path="url(#pf6ccbe01fa)">
     <use xlink:href="#mef03cbe746" x="103.368295" y="435.354107" style="fill: #e377c2; stroke: #e377c2"/>
     <use xlink:href="#mef03cbe746" x="139.525989" y="422.814434" style="fill: #e377c2; stroke: #e377c2"/>
     <use xlink:href="#mef03cbe746" x="196.578596" y="413.48741" style="fill: #e377c2; stroke: #e377c2"/>
     <use xlink:href="#mef03cbe746" x="240.832036" y="408.780659" style="fill: #e377c2; stroke: #e377c2"/>
     <use xlink:href="#mef03cbe746" x="292.86366" y="392.543097" style="fill: #e377c2; stroke: #e377c2"/>
     <use xlink:href="#mef03cbe746" x="340.144919" y="395.108688" style="fill: #e377c2; stroke: #e377c2"/>
     <use xlink:href="#mef03cbe746" x="387.971758" y="395.027721" style="fill: #e377c2; stroke: #e377c2"/>
     <use xlink:href="#mef03cbe746" x="437.811997" y="393.115834" style="fill: #e377c2; stroke: #e377c2"/>
     <use xlink:href="#mef03cbe746" x="486.424256" y="396.673401" style="fill: #e377c2; stroke: #e377c2"/>
     <use xlink:href="#mef03cbe746" x="534.661267" y="402.341857" style="fill: #e377c2; stroke: #e377c2"/>
     <use xlink:href="#mef03cbe746" x="582.488106" y="389.985729" style="fill: #e377c2; stroke: #e377c2"/>
     <use xlink:href="#mef03cbe746" x="630.946331" y="387.681277" style="fill: #e377c2; stroke: #e377c2"/>
     <use xlink:href="#mef03cbe746" x="679.859848" y="394.615591" style="fill: #e377c2; stroke: #e377c2"/>
     <use xlink:href="#mef03cbe746" x="727.76408" y="394.861899" style="fill: #e377c2; stroke: #e377c2"/>
     <use xlink:href="#mef03cbe746" x="775.894668" y="398.309621" style="fill: #e377c2; stroke: #e377c2"/>
     <use xlink:href="#mef03cbe746" x="824.245466" y="388.318695" style="fill: #e377c2; stroke: #e377c2"/>
     <use xlink:href="#mef03cbe746" x="872.333766" y="397.111843" style="fill: #e377c2; stroke: #e377c2"/>
     <use xlink:href="#mef03cbe746" x="920.24857" y="402.543018" style="fill: #e377c2; stroke: #e377c2"/>
     <use xlink:href="#mef03cbe746" x="968.397616" y="393.547955" style="fill: #e377c2; stroke: #e377c2"/>
     <use xlink:href="#mef03cbe746" x="1016.459205" y="392.683803" style="fill: #e377c2; stroke: #e377c2"/>
    </g>
   </g>
   <g id="patch_3">
    <path d="M 57.71375 578.24 
L 57.71375 23.84 
" style="fill: none; stroke: #000000; stroke-width: 0.8; stroke-linejoin: miter; stroke-linecap: square"/>
   </g>
   <g id="patch_4">
    <path d="M 1062.11375 578.24 
L 1062.11375 23.84 
" style="fill: none; stroke: #000000; stroke-width: 0.8; stroke-linejoin: miter; stroke-linecap: square"/>
   </g>
   <g id="patch_5">
    <path d="M 57.71375 578.24 
L 1062.11375 578.24 
" style="fill: none; stroke: #000000; stroke-width: 0.8; stroke-linejoin: miter; stroke-linecap: square"/>
   </g>
   <g id="patch_6">
    <path d="M 57.71375 23.84 
L 1062.11375 23.84 
" style="fill: none; stroke: #000000; stroke-width: 0.8; stroke-linejoin: miter; stroke-linecap: square"/>
   </g>
   <g id="text_8">
    <!-- Confronto degli errori di calcolo di $\pi$ su matrice P sparsa con 5 archi per nodo -->
    <g transform="translate(288.31375 17.84) scale(0.14 -0.14)">
     <defs>
      <path id="DejaVuSans-43" d="M 4122 4306 
L 4122 3641 
Q 3803 3938 3442 4084 
Q 3081 4231 2675 4231 
Q 1875 4231 1450 3742 
Q 1025 3253 1025 2328 
Q 1025 1406 1450 917 
Q 1875 428 2675 428 
Q 3081 428 3442 575 
Q 3803 722 4122 1019 
L 4122 359 
Q 3791 134 3420 21 
Q 3050 -91 2638 -91 
Q 1578 -91 968 557 
Q 359 1206 359 2328 
Q 359 3453 968 4101 
Q 1578 4750 2638 4750 
Q 3056 4750 3426 4639 
Q 3797 4528 4122 4306 
z
" transform="scale(0.015625)"/>
      <path id="DejaVuSans-66" d="M 2375 4863 
L 2375 4384 
L 1825 4384 
Q 1516 4384 1395 4259 
Q 1275 4134 1275 3809 
L 1275 3500 
L 2222 3500 
L 2222 3053 
L 1275 3053 
L 1275 0 
L 697 0 
L 697 3053 
L 147 3053 
L 147 3500 
L 697 3500 
L 697 3744 
Q 697 4328 969 4595 
Q 1241 4863 1831 4863 
L 2375 4863 
z
" transform="scale(0.015625)"/>
      <path id="DejaVuSans-64" d="M 2906 2969 
L 2906 4863 
L 3481 4863 
L 3481 0 
L 2906 0 
L 2906 525 
Q 2725 213 2448 61 
Q 2172 -91 1784 -91 
Q 1150 -91 751 415 
Q 353 922 353 1747 
Q 353 2572 751 3078 
Q 1150 3584 1784 3584 
Q 2172 3584 2448 3432 
Q 2725 3281 2906 2969 
z
M 947 1747 
Q 947 1113 1208 752 
Q 1469 391 1925 391 
Q 2381 391 2643 752 
Q 2906 1113 2906 1747 
Q 2906 2381 2643 2742 
Q 2381 3103 1925 3103 
Q 1469 3103 1208 2742 
Q 947 2381 947 1747 
z
" transform="scale(0.015625)"/>
      <path id="DejaVuSans-67" d="M 2906 1791 
Q 2906 2416 2648 2759 
Q 2391 3103 1925 3103 
Q 1463 3103 1205 2759 
Q 947 2416 947 1791 
Q 947 1169 1205 825 
Q 1463 481 1925 481 
Q 2391 481 2648 825 
Q 2906 1169 2906 1791 
z
M 3481 434 
Q 3481 -459 3084 -895 
Q 2688 -1331 1869 -1331 
Q 1566 -1331 1297 -1286 
Q 1028 -1241 775 -1147 
L 775 -588 
Q 1028 -725 1275 -790 
Q 1522 -856 1778 -856 
Q 2344 -856 2625 -561 
Q 2906 -266 2906 331 
L 2906 616 
Q 2728 306 2450 153 
Q 2172 0 1784 0 
Q 1141 0 747 490 
Q 353 981 353 1791 
Q 353 2603 747 3093 
Q 1141 3584 1784 3584 
Q 2172 3584 2450 3431 
Q 2728 3278 2906 2969 
L 2906 3500 
L 3481 3500 
L 3481 434 
z
" transform="scale(0.015625)"/>
      <path id="DejaVuSans-6c" d="M 603 4863 
L 1178 4863 
L 1178 0 
L 603 0 
L 603 4863 
z
" transform="scale(0.015625)"/>
      <path id="DejaVuSans-Oblique-3c0" d="M 584 3500 
L 3938 3500 
L 3825 2925 
L 3384 2925 
L 2966 775 
Q 2922 550 2981 450 
Q 3038 353 3209 353 
Q 3256 353 3325 363 
Q 3397 369 3419 372 
L 3338 -44 
Q 3222 -84 3103 -103 
Q 2981 -122 2866 -122 
Q 2491 -122 2388 81 
Q 2284 288 2391 838 
L 2797 2925 
L 1506 2925 
L 938 0 
L 350 0 
L 919 2925 
L 472 2925 
L 584 3500 
z
" transform="scale(0.015625)"/>
      <path id="DejaVuSans-75" d="M 544 1381 
L 544 3500 
L 1119 3500 
L 1119 1403 
Q 1119 906 1312 657 
Q 1506 409 1894 409 
Q 2359 409 2629 706 
Q 2900 1003 2900 1516 
L 2900 3500 
L 3475 3500 
L 3475 0 
L 2900 0 
L 2900 538 
Q 2691 219 2414 64 
Q 2138 -91 1772 -91 
Q 1169 -91 856 284 
Q 544 659 544 1381 
z
M 1991 3584 
L 1991 3584 
z
" transform="scale(0.015625)"/>
      <path id="DejaVuSans-50" d="M 1259 4147 
L 1259 2394 
L 2053 2394 
Q 2494 2394 2734 2622 
Q 2975 2850 2975 3272 
Q 2975 3691 2734 3919 
Q 2494 4147 2053 4147 
L 1259 4147 
z
M 628 4666 
L 2053 4666 
Q 2838 4666 3239 4311 
Q 3641 3956 3641 3272 
Q 3641 2581 3239 2228 
Q 2838 1875 2053 1875 
L 1259 1875 
L 1259 0 
L 628 0 
L 628 4666 
z
" transform="scale(0.015625)"/>
      <path id="DejaVuSans-70" d="M 1159 525 
L 1159 -1331 
L 581 -1331 
L 581 3500 
L 1159 3500 
L 1159 2969 
Q 1341 3281 1617 3432 
Q 1894 3584 2278 3584 
Q 2916 3584 3314 3078 
Q 3713 2572 3713 1747 
Q 3713 922 3314 415 
Q 2916 -91 2278 -91 
Q 1894 -91 1617 61 
Q 1341 213 1159 525 
z
M 3116 1747 
Q 3116 2381 2855 2742 
Q 2594 3103 2138 3103 
Q 1681 3103 1420 2742 
Q 1159 2381 1159 1747 
Q 1159 1113 1420 752 
Q 1681 391 2138 391 
Q 2594 391 2855 752 
Q 3116 1113 3116 1747 
z
" transform="scale(0.015625)"/>
      <path id="DejaVuSans-68" d="M 3513 2113 
L 3513 0 
L 2938 0 
L 2938 2094 
Q 2938 2591 2744 2837 
Q 2550 3084 2163 3084 
Q 1697 3084 1428 2787 
Q 1159 2491 1159 1978 
L 1159 0 
L 581 0 
L 581 4863 
L 1159 4863 
L 1159 2956 
Q 1366 3272 1645 3428 
Q 1925 3584 2291 3584 
Q 2894 3584 3203 3211 
Q 3513 2838 3513 2113 
z
" transform="scale(0.015625)"/>
     </defs>
     <use xlink:href="#DejaVuSans-43" transform="translate(0 0.015625)"/>
     <use xlink:href="#DejaVuSans-6f" transform="translate(69.824219 0.015625)"/>
     <use xlink:href="#DejaVuSans-6e" transform="translate(131.005859 0.015625)"/>
     <use xlink:href="#DejaVuSans-66" transform="translate(194.384766 0.015625)"/>
     <use xlink:href="#DejaVuSans-72" transform="translate(229.589844 0.015625)"/>
     <use xlink:href="#DejaVuSans-6f" transform="translate(270.703125 0.015625)"/>
     <use xlink:href="#DejaVuSans-6e" transform="translate(331.884766 0.015625)"/>
     <use xlink:href="#DejaVuSans-74" transform="translate(395.263672 0.015625)"/>
     <use xlink:href="#DejaVuSans-6f" transform="translate(434.472656 0.015625)"/>
     <use xlink:href="#DejaVuSans-20" transform="translate(495.654297 0.015625)"/>
     <use xlink:href="#DejaVuSans-64" transform="translate(527.441406 0.015625)"/>
     <use xlink:href="#DejaVuSans-65" transform="translate(590.917969 0.015625)"/>
     <use xlink:href="#DejaVuSans-67" transform="translate(652.441406 0.015625)"/>
     <use xlink:href="#DejaVuSans-6c" transform="translate(715.917969 0.015625)"/>
     <use xlink:href="#DejaVuSans-69" transform="translate(743.701172 0.015625)"/>
     <use xlink:href="#DejaVuSans-20" transform="translate(771.484375 0.015625)"/>
     <use xlink:href="#DejaVuSans-65" transform="translate(803.271484 0.015625)"/>
     <use xlink:href="#DejaVuSans-72" transform="translate(864.794922 0.015625)"/>
     <use xlink:href="#DejaVuSans-72" transform="translate(905.908203 0.015625)"/>
     <use xlink:href="#DejaVuSans-6f" transform="translate(947.021484 0.015625)"/>
     <use xlink:href="#DejaVuSans-72" transform="translate(1008.203125 0.015625)"/>
     <use xlink:href="#DejaVuSans-69" transform="translate(1049.316406 0.015625)"/>
     <use xlink:href="#DejaVuSans-20" transform="translate(1077.099609 0.015625)"/>
     <use xlink:href="#DejaVuSans-64" transform="translate(1108.886719 0.015625)"/>
     <use xlink:href="#DejaVuSans-69" transform="translate(1172.363281 0.015625)"/>
     <use xlink:href="#DejaVuSans-20" transform="translate(1200.146484 0.015625)"/>
     <use xlink:href="#DejaVuSans-63" transform="translate(1231.933594 0.015625)"/>
     <use xlink:href="#DejaVuSans-61" transform="translate(1286.914062 0.015625)"/>
     <use xlink:href="#DejaVuSans-6c" transform="translate(1348.193359 0.015625)"/>
     <use xlink:href="#DejaVuSans-63" transform="translate(1375.976562 0.015625)"/>
     <use xlink:href="#DejaVuSans-6f" transform="translate(1430.957031 0.015625)"/>
     <use xlink:href="#DejaVuSans-6c" transform="translate(1492.138672 0.015625)"/>
     <use xlink:href="#DejaVuSans-6f" transform="translate(1519.921875 0.015625)"/>
     <use xlink:href="#DejaVuSans-20" transform="translate(1581.103516 0.015625)"/>
     <use xlink:href="#DejaVuSans-64" transform="translate(1612.890625 0.015625)"/>
     <use xlink:href="#DejaVuSans-69" transform="translate(1676.367188 0.015625)"/>
     <use xlink:href="#DejaVuSans-20" transform="translate(1704.150391 0.015625)"/>
     <use xlink:href="#DejaVuSans-Oblique-3c0" transform="translate(1735.9375 0.015625)"/>
     <use xlink:href="#DejaVuSans-20" transform="translate(1796.142578 0.015625)"/>
     <use xlink:href="#DejaVuSans-73" transform="translate(1827.929688 0.015625)"/>
     <use xlink:href="#DejaVuSans-75" transform="translate(1880.029297 0.015625)"/>
     <use xlink:href="#DejaVuSans-20" transform="translate(1943.408203 0.015625)"/>
     <use xlink:href="#DejaVuSans-6d" transform="translate(1975.195312 0.015625)"/>
     <use xlink:href="#DejaVuSans-61" transform="translate(2072.607422 0.015625)"/>
     <use xlink:href="#DejaVuSans-74" transform="translate(2133.886719 0.015625)"/>
     <use xlink:href="#DejaVuSans-72" transform="translate(2173.095703 0.015625)"/>
     <use xlink:href="#DejaVuSans-69" transform="translate(2214.208984 0.015625)"/>
     <use xlink:href="#DejaVuSans-63" transform="translate(2241.992188 0.015625)"/>
     <use xlink:href="#DejaVuSans-65" transform="translate(2296.972656 0.015625)"/>
     <use xlink:href="#DejaVuSans-20" transform="translate(2358.496094 0.015625)"/>
     <use xlink:href="#DejaVuSans-50" transform="translate(2390.283203 0.015625)"/>
     <use xlink:href="#DejaVuSans-20" transform="translate(2450.585938 0.015625)"/>
     <use xlink:href="#DejaVuSans-73" transform="translate(2482.373047 0.015625)"/>
     <use xlink:href="#DejaVuSans-70" transform="translate(2534.472656 0.015625)"/>
     <use xlink:href="#DejaVuSans-61" transform="translate(2597.949219 0.015625)"/>
     <use xlink:href="#DejaVuSans-72" transform="translate(2659.228516 0.015625)"/>
     <use xlink:href="#DejaVuSans-73" transform="translate(2700.341797 0.015625)"/>
     <use xlink:href="#DejaVuSans-61" transform="translate(2752.441406 0.015625)"/>
     <use xlink:href="#DejaVuSans-20" transform="translate(2813.720703 0.015625)"/>
     <use xlink:href="#DejaVuSans-63" transform="translate(2845.507812 0.015625)"/>
     <use xlink:href="#DejaVuSans-6f" transform="translate(2900.488281 0.015625)"/>
     <use xlink:href="#DejaVuSans-6e" transform="translate(2961.669922 0.015625)"/>
     <use xlink:href="#DejaVuSans-20" transform="translate(3025.048828 0.015625)"/>
     <use xlink:href="#DejaVuSans-35" transform="translate(3056.835938 0.015625)"/>
     <use xlink:href="#DejaVuSans-20" transform="translate(3120.458984 0.015625)"/>
     <use xlink:href="#DejaVuSans-61" transform="translate(3152.246094 0.015625)"/>
     <use xlink:href="#DejaVuSans-72" transform="translate(3213.525391 0.015625)"/>
     <use xlink:href="#DejaVuSans-63" transform="translate(3254.638672 0.015625)"/>
     <use xlink:href="#DejaVuSans-68" transform="translate(3309.619141 0.015625)"/>
     <use xlink:href="#DejaVuSans-69" transform="translate(3372.998047 0.015625)"/>
     <use xlink:href="#DejaVuSans-20" transform="translate(3400.78125 0.015625)"/>
     <use xlink:href="#DejaVuSans-70" transform="translate(3432.568359 0.015625)"/>
     <use xlink:href="#DejaVuSans-65" transform="translate(3496.044922 0.015625)"/>
     <use xlink:href="#DejaVuSans-72" transform="translate(3557.568359 0.015625)"/>
     <use xlink:href="#DejaVuSans-20" transform="translate(3598.681641 0.015625)"/>
     <use xlink:href="#DejaVuSans-6e" transform="translate(3630.46875 0.015625)"/>
     <use xlink:href="#DejaVuSans-6f" transform="translate(3693.847656 0.015625)"/>
     <use xlink:href="#DejaVuSans-64" transform="translate(3755.029297 0.015625)"/>
     <use xlink:href="#DejaVuSans-6f" transform="translate(3818.505859 0.015625)"/>
    </g>
   </g>
   <g id="legend_1">
    <g id="patch_7">
     <path d="M 66.81375 169.980313 
L 206.998437 169.980313 
Q 209.598437 169.980313 209.598437 167.380313 
L 209.598437 32.94 
Q 209.598437 30.34 206.998437 30.34 
L 66.81375 30.34 
Q 64.21375 30.34 64.21375 32.94 
L 64.21375 167.380313 
Q 64.21375 169.980313 66.81375 169.980313 
z
" style="fill: #ffffff; opacity: 0.8; stroke: #cccccc; stroke-linejoin: miter"/>
    </g>
    <g id="line2d_50">
     <path d="M 69.41375 40.867969 
L 82.41375 40.867969 
L 95.41375 40.867969 
" style="fill: none; stroke: #1f77b4; stroke-width: 1.5; stroke-linecap: square"/>
     <g>
      <use xlink:href="#md8b62e41e8" x="82.41375" y="40.867969" style="fill: #1f77b4; stroke: #1f77b4"/>
     </g>
    </g>
    <g id="text_9">
     <!-- gth -->
     <g transform="translate(105.81375 45.417969) scale(0.13 -0.13)">
      <use xlink:href="#DejaVuSans-67"/>
      <use xlink:href="#DejaVuSans-74" x="63.476562"/>
      <use xlink:href="#DejaVuSans-68" x="102.685547"/>
     </g>
    </g>
    <g id="line2d_51">
     <path d="M 69.41375 59.949531 
L 82.41375 59.949531 
L 95.41375 59.949531 
" style="fill: none; stroke: #ff7f0e; stroke-width: 1.5; stroke-linecap: square"/>
     <g>
      <use xlink:href="#m879a0697b8" x="82.41375" y="59.949531" style="fill: #ff7f0e; stroke: #ff7f0e"/>
     </g>
    </g>
    <g id="text_10">
     <!-- system_scipy -->
     <g transform="translate(105.81375 64.499531) scale(0.13 -0.13)">
      <defs>
       <path id="DejaVuSans-79" d="M 2059 -325 
Q 1816 -950 1584 -1140 
Q 1353 -1331 966 -1331 
L 506 -1331 
L 506 -850 
L 844 -850 
Q 1081 -850 1212 -737 
Q 1344 -625 1503 -206 
L 1606 56 
L 191 3500 
L 800 3500 
L 1894 763 
L 2988 3500 
L 3597 3500 
L 2059 -325 
z
" transform="scale(0.015625)"/>
       <path id="DejaVuSans-5f" d="M 3263 -1063 
L 3263 -1509 
L -63 -1509 
L -63 -1063 
L 3263 -1063 
z
" transform="scale(0.015625)"/>
      </defs>
      <use xlink:href="#DejaVuSans-73"/>
      <use xlink:href="#DejaVuSans-79" x="52.099609"/>
      <use xlink:href="#DejaVuSans-73" x="111.279297"/>
      <use xlink:href="#DejaVuSans-74" x="163.378906"/>
      <use xlink:href="#DejaVuSans-65" x="202.587891"/>
      <use xlink:href="#DejaVuSans-6d" x="264.111328"/>
      <use xlink:href="#DejaVuSans-5f" x="361.523438"/>
      <use xlink:href="#DejaVuSans-73" x="411.523438"/>
      <use xlink:href="#DejaVuSans-63" x="463.623047"/>
      <use xlink:href="#DejaVuSans-69" x="518.603516"/>
      <use xlink:href="#DejaVuSans-70" x="546.386719"/>
      <use xlink:href="#DejaVuSans-79" x="609.863281"/>
     </g>
    </g>
    <g id="line2d_52">
     <path d="M 69.41375 79.392656 
L 82.41375 79.392656 
L 95.41375 79.392656 
" style="fill: none; stroke: #2ca02c; stroke-width: 1.5; stroke-linecap: square"/>
     <g>
      <use xlink:href="#m03c0204348" x="82.41375" y="79.392656" style="fill: #2ca02c; stroke: #2ca02c"/>
     </g>
    </g>
    <g id="text_11">
     <!-- system_numpy -->
     <g transform="translate(105.81375 83.942656) scale(0.13 -0.13)">
      <use xlink:href="#DejaVuSans-73"/>
      <use xlink:href="#DejaVuSans-79" x="52.099609"/>
      <use xlink:href="#DejaVuSans-73" x="111.279297"/>
      <use xlink:href="#DejaVuSans-74" x="163.378906"/>
      <use xlink:href="#DejaVuSans-65" x="202.587891"/>
      <use xlink:href="#DejaVuSans-6d" x="264.111328"/>
      <use xlink:href="#DejaVuSans-5f" x="361.523438"/>
      <use xlink:href="#DejaVuSans-6e" x="411.523438"/>
      <use xlink:href="#DejaVuSans-75" x="474.902344"/>
      <use xlink:href="#DejaVuSans-6d" x="538.28125"/>
      <use xlink:href="#DejaVuSans-70" x="635.693359"/>
      <use xlink:href="#DejaVuSans-79" x="699.169922"/>
     </g>
    </g>
    <g id="line2d_53">
     <path d="M 69.41375 98.835781 
L 82.41375 98.835781 
L 95.41375 98.835781 
" style="fill: none; stroke: #d62728; stroke-width: 1.5; stroke-linecap: square"/>
     <g>
      <use xlink:href="#m3f023e2284" x="82.41375" y="98.835781" style="fill: #d62728; stroke: #d62728"/>
     </g>
    </g>
    <g id="text_12">
     <!-- eig_numpy -->
     <g transform="translate(105.81375 103.385781) scale(0.13 -0.13)">
      <use xlink:href="#DejaVuSans-65"/>
      <use xlink:href="#DejaVuSans-69" x="61.523438"/>
      <use xlink:href="#DejaVuSans-67" x="89.306641"/>
      <use xlink:href="#DejaVuSans-5f" x="152.783203"/>
      <use xlink:href="#DejaVuSans-6e" x="202.783203"/>
      <use xlink:href="#DejaVuSans-75" x="266.162109"/>
      <use xlink:href="#DejaVuSans-6d" x="329.541016"/>
      <use xlink:href="#DejaVuSans-70" x="426.953125"/>
      <use xlink:href="#DejaVuSans-79" x="490.429688"/>
     </g>
    </g>
    <g id="line2d_54">
     <path d="M 69.41375 118.278906 
L 82.41375 118.278906 
L 95.41375 118.278906 
" style="fill: none; stroke: #9467bd; stroke-width: 1.5; stroke-linecap: square"/>
     <g>
      <use xlink:href="#m09ea124ba3" x="82.41375" y="118.278906" style="fill: #9467bd; stroke: #9467bd"/>
     </g>
    </g>
    <g id="text_13">
     <!-- eig_scipy -->
     <g transform="translate(105.81375 122.828906) scale(0.13 -0.13)">
      <use xlink:href="#DejaVuSans-65"/>
      <use xlink:href="#DejaVuSans-69" x="61.523438"/>
      <use xlink:href="#DejaVuSans-67" x="89.306641"/>
      <use xlink:href="#DejaVuSans-5f" x="152.783203"/>
      <use xlink:href="#DejaVuSans-73" x="202.783203"/>
      <use xlink:href="#DejaVuSans-63" x="254.882812"/>
      <use xlink:href="#DejaVuSans-69" x="309.863281"/>
      <use xlink:href="#DejaVuSans-70" x="337.646484"/>
      <use xlink:href="#DejaVuSans-79" x="401.123047"/>
     </g>
    </g>
    <g id="line2d_55">
     <path d="M 69.41375 137.722031 
L 82.41375 137.722031 
L 95.41375 137.722031 
" style="fill: none; stroke: #8c564b; stroke-width: 1.5; stroke-linecap: square"/>
     <g>
      <use xlink:href="#m5991ed8937" x="82.41375" y="137.722031" style="fill: #8c564b; stroke: #8c564b"/>
     </g>
    </g>
    <g id="text_14">
     <!-- power_numpy -->
     <g transform="translate(105.81375 142.272031) scale(0.13 -0.13)">
      <defs>
       <path id="DejaVuSans-77" d="M 269 3500 
L 844 3500 
L 1563 769 
L 2278 3500 
L 2956 3500 
L 3675 769 
L 4391 3500 
L 4966 3500 
L 4050 0 
L 3372 0 
L 2619 2869 
L 1863 0 
L 1184 0 
L 269 3500 
z
" transform="scale(0.015625)"/>
      </defs>
      <use xlink:href="#DejaVuSans-70"/>
      <use xlink:href="#DejaVuSans-6f" x="63.476562"/>
      <use xlink:href="#DejaVuSans-77" x="124.658203"/>
      <use xlink:href="#DejaVuSans-65" x="206.445312"/>
      <use xlink:href="#DejaVuSans-72" x="267.96875"/>
      <use xlink:href="#DejaVuSans-5f" x="309.082031"/>
      <use xlink:href="#DejaVuSans-6e" x="359.082031"/>
      <use xlink:href="#DejaVuSans-75" x="422.460938"/>
      <use xlink:href="#DejaVuSans-6d" x="485.839844"/>
      <use xlink:href="#DejaVuSans-70" x="583.251953"/>
      <use xlink:href="#DejaVuSans-79" x="646.728516"/>
     </g>
    </g>
    <g id="line2d_56">
     <path d="M 69.41375 157.165156 
L 82.41375 157.165156 
L 95.41375 157.165156 
" style="fill: none; stroke: #e377c2; stroke-width: 1.5; stroke-linecap: square"/>
     <g>
      <use xlink:href="#mef03cbe746" x="82.41375" y="157.165156" style="fill: #e377c2; stroke: #e377c2"/>
     </g>
    </g>
    <g id="text_15">
     <!-- power_scipy -->
     <g transform="translate(105.81375 161.715156) scale(0.13 -0.13)">
      <use xlink:href="#DejaVuSans-70"/>
      <use xlink:href="#DejaVuSans-6f" x="63.476562"/>
      <use xlink:href="#DejaVuSans-77" x="124.658203"/>
      <use xlink:href="#DejaVuSans-65" x="206.445312"/>
      <use xlink:href="#DejaVuSans-72" x="267.96875"/>
      <use xlink:href="#DejaVuSans-5f" x="309.082031"/>
      <use xlink:href="#DejaVuSans-73" x="359.082031"/>
      <use xlink:href="#DejaVuSans-63" x="411.181641"/>
      <use xlink:href="#DejaVuSans-69" x="466.162109"/>
      <use xlink:href="#DejaVuSans-70" x="493.945312"/>
      <use xlink:href="#DejaVuSans-79" x="557.421875"/>
     </g>
    </g>
   </g>
  </g>
 </g>
 <defs>
  <clipPath id="pf6ccbe01fa">
   <rect x="57.71375" y="23.84" width="1004.4" height="554.4"/>
  </clipPath>
 </defs>
</svg>
