<?xml version="1.0" encoding="utf-8" standalone="no"?>
<!DOCTYPE svg PUBLIC "-//W3C//DTD SVG 1.1//EN"
  "http://www.w3.org/Graphics/SVG/1.1/DTD/svg11.dtd">
<svg xmlns:xlink="http://www.w3.org/1999/xlink" width="1069.31375pt" height="617.731875pt" viewBox="0 0 1069.31375 617.731875" xmlns="http://www.w3.org/2000/svg" version="1.1">
 <metadata>
  <rdf:RDF xmlns:dc="http://purl.org/dc/elements/1.1/" xmlns:cc="http://creativecommons.org/ns#" xmlns:rdf="http://www.w3.org/1999/02/22-rdf-syntax-ns#">
   <cc:Work>
    <dc:type rdf:resource="http://purl.org/dc/dcmitype/StillImage"/>
    <dc:date>2025-06-18T17:35:13.904339</dc:date>
    <dc:format>image/svg+xml</dc:format>
    <dc:creator>
     <cc:Agent>
      <dc:title>Matplotlib v3.7.3, https://matplotlib.org/</dc:title>
     </cc:Agent>
    </dc:creator>
   </cc:Work>
  </rdf:RDF>
 </metadata>
 <defs>
  <style type="text/css">*{stroke-linejoin: round; stroke-linecap: butt}</style>
 </defs>
 <g id="figure_1">
  <g id="patch_1">
   <path d="M 0 617.731875 
L 1069.31375 617.731875 
L 1069.31375 0 
L 0 0 
z
" style="fill: #ffffff"/>
  </g>
  <g id="axes_1">
   <g id="patch_2">
    <path d="M 57.71375 578.24 
L 1062.11375 578.24 
L 1062.11375 23.84 
L 57.71375 23.84 
z
" style="fill: #ffffff"/>
   </g>
   <g id="matplotlib.axis_1">
    <g id="xtick_1">
     <g id="line2d_1">
      <path d="M 103.368295 578.24 
L 103.368295 23.84 
" clip-path="url(#pa33bbb641f)" style="fill: none; stroke: #b0b0b0; stroke-width: 0.5; stroke-linecap: square"/>
     </g>
     <g id="line2d_2">
      <defs>
       <path id="m731187c3fb" d="M 0 0 
L 0 3.5 
" style="stroke: #000000; stroke-width: 0.8"/>
      </defs>
      <g>
       <use xlink:href="#m731187c3fb" x="103.368295" y="578.24" style="stroke: #000000; stroke-width: 0.8"/>
      </g>
     </g>
     <g id="text_1">
      <!-- $\mathdefault{10^{1}}$ -->
      <g transform="translate(94.568295 592.838438) scale(0.1 -0.1)">
       <defs>
        <path id="DejaVuSans-31" d="M 794 531 
L 1825 531 
L 1825 4091 
L 703 3866 
L 703 4441 
L 1819 4666 
L 2450 4666 
L 2450 531 
L 3481 531 
L 3481 0 
L 794 0 
L 794 531 
z
" transform="scale(0.015625)"/>
        <path id="DejaVuSans-30" d="M 2034 4250 
Q 1547 4250 1301 3770 
Q 1056 3291 1056 2328 
Q 1056 1369 1301 889 
Q 1547 409 2034 409 
Q 2525 409 2770 889 
Q 3016 1369 3016 2328 
Q 3016 3291 2770 3770 
Q 2525 4250 2034 4250 
z
M 2034 4750 
Q 2819 4750 3233 4129 
Q 3647 3509 3647 2328 
Q 3647 1150 3233 529 
Q 2819 -91 2034 -91 
Q 1250 -91 836 529 
Q 422 1150 422 2328 
Q 422 3509 836 4129 
Q 1250 4750 2034 4750 
z
" transform="scale(0.015625)"/>
       </defs>
       <use xlink:href="#DejaVuSans-31" transform="translate(0 0.684375)"/>
       <use xlink:href="#DejaVuSans-30" transform="translate(63.623047 0.684375)"/>
       <use xlink:href="#DejaVuSans-31" transform="translate(128.203125 38.965625) scale(0.7)"/>
      </g>
     </g>
    </g>
    <g id="xtick_2">
     <g id="line2d_3">
      <path d="M 560.012959 578.24 
L 560.012959 23.84 
" clip-path="url(#pa33bbb641f)" style="fill: none; stroke: #b0b0b0; stroke-width: 0.5; stroke-linecap: square"/>
     </g>
     <g id="line2d_4">
      <g>
       <use xlink:href="#m731187c3fb" x="560.012959" y="578.24" style="stroke: #000000; stroke-width: 0.8"/>
      </g>
     </g>
     <g id="text_2">
      <!-- $\mathdefault{10^{2}}$ -->
      <g transform="translate(551.212959 592.838438) scale(0.1 -0.1)">
       <defs>
        <path id="DejaVuSans-32" d="M 1228 531 
L 3431 531 
L 3431 0 
L 469 0 
L 469 531 
Q 828 903 1448 1529 
Q 2069 2156 2228 2338 
Q 2531 2678 2651 2914 
Q 2772 3150 2772 3378 
Q 2772 3750 2511 3984 
Q 2250 4219 1831 4219 
Q 1534 4219 1204 4116 
Q 875 4013 500 3803 
L 500 4441 
Q 881 4594 1212 4672 
Q 1544 4750 1819 4750 
Q 2544 4750 2975 4387 
Q 3406 4025 3406 3419 
Q 3406 3131 3298 2873 
Q 3191 2616 2906 2266 
Q 2828 2175 2409 1742 
Q 1991 1309 1228 531 
z
" transform="scale(0.015625)"/>
       </defs>
       <use xlink:href="#DejaVuSans-31" transform="translate(0 0.765625)"/>
       <use xlink:href="#DejaVuSans-30" transform="translate(63.623047 0.765625)"/>
       <use xlink:href="#DejaVuSans-32" transform="translate(128.203125 39.046875) scale(0.7)"/>
      </g>
     </g>
    </g>
    <g id="xtick_3">
     <g id="line2d_5">
      <path d="M 1016.657622 578.24 
L 1016.657622 23.84 
" clip-path="url(#pa33bbb641f)" style="fill: none; stroke: #b0b0b0; stroke-width: 0.5; stroke-linecap: square"/>
     </g>
     <g id="line2d_6">
      <g>
       <use xlink:href="#m731187c3fb" x="1016.657622" y="578.24" style="stroke: #000000; stroke-width: 0.8"/>
      </g>
     </g>
     <g id="text_3">
      <!-- $\mathdefault{10^{3}}$ -->
      <g transform="translate(1007.857622 592.838438) scale(0.1 -0.1)">
       <defs>
        <path id="DejaVuSans-33" d="M 2597 2516 
Q 3050 2419 3304 2112 
Q 3559 1806 3559 1356 
Q 3559 666 3084 287 
Q 2609 -91 1734 -91 
Q 1441 -91 1130 -33 
Q 819 25 488 141 
L 488 750 
Q 750 597 1062 519 
Q 1375 441 1716 441 
Q 2309 441 2620 675 
Q 2931 909 2931 1356 
Q 2931 1769 2642 2001 
Q 2353 2234 1838 2234 
L 1294 2234 
L 1294 2753 
L 1863 2753 
Q 2328 2753 2575 2939 
Q 2822 3125 2822 3475 
Q 2822 3834 2567 4026 
Q 2313 4219 1838 4219 
Q 1578 4219 1281 4162 
Q 984 4106 628 3988 
L 628 4550 
Q 988 4650 1302 4700 
Q 1616 4750 1894 4750 
Q 2613 4750 3031 4423 
Q 3450 4097 3450 3541 
Q 3450 3153 3228 2886 
Q 3006 2619 2597 2516 
z
" transform="scale(0.015625)"/>
       </defs>
       <use xlink:href="#DejaVuSans-31" transform="translate(0 0.765625)"/>
       <use xlink:href="#DejaVuSans-30" transform="translate(63.623047 0.765625)"/>
       <use xlink:href="#DejaVuSans-33" transform="translate(128.203125 39.046875) scale(0.7)"/>
      </g>
     </g>
    </g>
    <g id="xtick_4">
     <g id="line2d_7">
      <defs>
       <path id="m8713978644" d="M 0 0 
L 0 2 
" style="stroke: #000000; stroke-width: 0.6"/>
      </defs>
      <g>
       <use xlink:href="#m8713978644" x="59.114855" y="578.24" style="stroke: #000000; stroke-width: 0.6"/>
      </g>
     </g>
    </g>
    <g id="xtick_5">
     <g id="line2d_8">
      <g>
       <use xlink:href="#m8713978644" x="82.473382" y="578.24" style="stroke: #000000; stroke-width: 0.6"/>
      </g>
     </g>
    </g>
    <g id="xtick_6">
     <g id="line2d_9">
      <g>
       <use xlink:href="#m8713978644" x="240.832036" y="578.24" style="stroke: #000000; stroke-width: 0.6"/>
      </g>
     </g>
    </g>
    <g id="xtick_7">
     <g id="line2d_10">
      <g>
       <use xlink:href="#m8713978644" x="321.24317" y="578.24" style="stroke: #000000; stroke-width: 0.6"/>
      </g>
     </g>
    </g>
    <g id="xtick_8">
     <g id="line2d_11">
      <g>
       <use xlink:href="#m8713978644" x="378.295777" y="578.24" style="stroke: #000000; stroke-width: 0.6"/>
      </g>
     </g>
    </g>
    <g id="xtick_9">
     <g id="line2d_12">
      <g>
       <use xlink:href="#m8713978644" x="422.549218" y="578.24" style="stroke: #000000; stroke-width: 0.6"/>
      </g>
     </g>
    </g>
    <g id="xtick_10">
     <g id="line2d_13">
      <g>
       <use xlink:href="#m8713978644" x="458.706911" y="578.24" style="stroke: #000000; stroke-width: 0.6"/>
      </g>
     </g>
    </g>
    <g id="xtick_11">
     <g id="line2d_14">
      <g>
       <use xlink:href="#m8713978644" x="489.277805" y="578.24" style="stroke: #000000; stroke-width: 0.6"/>
      </g>
     </g>
    </g>
    <g id="xtick_12">
     <g id="line2d_15">
      <g>
       <use xlink:href="#m8713978644" x="515.759518" y="578.24" style="stroke: #000000; stroke-width: 0.6"/>
      </g>
     </g>
    </g>
    <g id="xtick_13">
     <g id="line2d_16">
      <g>
       <use xlink:href="#m8713978644" x="539.118045" y="578.24" style="stroke: #000000; stroke-width: 0.6"/>
      </g>
     </g>
    </g>
    <g id="xtick_14">
     <g id="line2d_17">
      <g>
       <use xlink:href="#m8713978644" x="697.4767" y="578.24" style="stroke: #000000; stroke-width: 0.6"/>
      </g>
     </g>
    </g>
    <g id="xtick_15">
     <g id="line2d_18">
      <g>
       <use xlink:href="#m8713978644" x="777.887833" y="578.24" style="stroke: #000000; stroke-width: 0.6"/>
      </g>
     </g>
    </g>
    <g id="xtick_16">
     <g id="line2d_19">
      <g>
       <use xlink:href="#m8713978644" x="834.940441" y="578.24" style="stroke: #000000; stroke-width: 0.6"/>
      </g>
     </g>
    </g>
    <g id="xtick_17">
     <g id="line2d_20">
      <g>
       <use xlink:href="#m8713978644" x="879.193881" y="578.24" style="stroke: #000000; stroke-width: 0.6"/>
      </g>
     </g>
    </g>
    <g id="xtick_18">
     <g id="line2d_21">
      <g>
       <use xlink:href="#m8713978644" x="915.351574" y="578.24" style="stroke: #000000; stroke-width: 0.6"/>
      </g>
     </g>
    </g>
    <g id="xtick_19">
     <g id="line2d_22">
      <g>
       <use xlink:href="#m8713978644" x="945.922469" y="578.24" style="stroke: #000000; stroke-width: 0.6"/>
      </g>
     </g>
    </g>
    <g id="xtick_20">
     <g id="line2d_23">
      <g>
       <use xlink:href="#m8713978644" x="972.404182" y="578.24" style="stroke: #000000; stroke-width: 0.6"/>
      </g>
     </g>
    </g>
    <g id="xtick_21">
     <g id="line2d_24">
      <g>
       <use xlink:href="#m8713978644" x="995.762708" y="578.24" style="stroke: #000000; stroke-width: 0.6"/>
      </g>
     </g>
    </g>
    <g id="text_4">
     <!-- Dimensione matrice $n$ -->
     <g transform="translate(493.67375 608.03625) scale(0.12 -0.12)">
      <defs>
       <path id="DejaVuSans-44" d="M 1259 4147 
L 1259 519 
L 2022 519 
Q 2988 519 3436 956 
Q 3884 1394 3884 2338 
Q 3884 3275 3436 3711 
Q 2988 4147 2022 4147 
L 1259 4147 
z
M 628 4666 
L 1925 4666 
Q 3281 4666 3915 4102 
Q 4550 3538 4550 2338 
Q 4550 1131 3912 565 
Q 3275 0 1925 0 
L 628 0 
L 628 4666 
z
" transform="scale(0.015625)"/>
       <path id="DejaVuSans-69" d="M 603 3500 
L 1178 3500 
L 1178 0 
L 603 0 
L 603 3500 
z
M 603 4863 
L 1178 4863 
L 1178 4134 
L 603 4134 
L 603 4863 
z
" transform="scale(0.015625)"/>
       <path id="DejaVuSans-6d" d="M 3328 2828 
Q 3544 3216 3844 3400 
Q 4144 3584 4550 3584 
Q 5097 3584 5394 3201 
Q 5691 2819 5691 2113 
L 5691 0 
L 5113 0 
L 5113 2094 
Q 5113 2597 4934 2840 
Q 4756 3084 4391 3084 
Q 3944 3084 3684 2787 
Q 3425 2491 3425 1978 
L 3425 0 
L 2847 0 
L 2847 2094 
Q 2847 2600 2669 2842 
Q 2491 3084 2119 3084 
Q 1678 3084 1418 2786 
Q 1159 2488 1159 1978 
L 1159 0 
L 581 0 
L 581 3500 
L 1159 3500 
L 1159 2956 
Q 1356 3278 1631 3431 
Q 1906 3584 2284 3584 
Q 2666 3584 2933 3390 
Q 3200 3197 3328 2828 
z
" transform="scale(0.015625)"/>
       <path id="DejaVuSans-65" d="M 3597 1894 
L 3597 1613 
L 953 1613 
Q 991 1019 1311 708 
Q 1631 397 2203 397 
Q 2534 397 2845 478 
Q 3156 559 3463 722 
L 3463 178 
Q 3153 47 2828 -22 
Q 2503 -91 2169 -91 
Q 1331 -91 842 396 
Q 353 884 353 1716 
Q 353 2575 817 3079 
Q 1281 3584 2069 3584 
Q 2775 3584 3186 3129 
Q 3597 2675 3597 1894 
z
M 3022 2063 
Q 3016 2534 2758 2815 
Q 2500 3097 2075 3097 
Q 1594 3097 1305 2825 
Q 1016 2553 972 2059 
L 3022 2063 
z
" transform="scale(0.015625)"/>
       <path id="DejaVuSans-6e" d="M 3513 2113 
L 3513 0 
L 2938 0 
L 2938 2094 
Q 2938 2591 2744 2837 
Q 2550 3084 2163 3084 
Q 1697 3084 1428 2787 
Q 1159 2491 1159 1978 
L 1159 0 
L 581 0 
L 581 3500 
L 1159 3500 
L 1159 2956 
Q 1366 3272 1645 3428 
Q 1925 3584 2291 3584 
Q 2894 3584 3203 3211 
Q 3513 2838 3513 2113 
z
" transform="scale(0.015625)"/>
       <path id="DejaVuSans-73" d="M 2834 3397 
L 2834 2853 
Q 2591 2978 2328 3040 
Q 2066 3103 1784 3103 
Q 1356 3103 1142 2972 
Q 928 2841 928 2578 
Q 928 2378 1081 2264 
Q 1234 2150 1697 2047 
L 1894 2003 
Q 2506 1872 2764 1633 
Q 3022 1394 3022 966 
Q 3022 478 2636 193 
Q 2250 -91 1575 -91 
Q 1294 -91 989 -36 
Q 684 19 347 128 
L 347 722 
Q 666 556 975 473 
Q 1284 391 1588 391 
Q 1994 391 2212 530 
Q 2431 669 2431 922 
Q 2431 1156 2273 1281 
Q 2116 1406 1581 1522 
L 1381 1569 
Q 847 1681 609 1914 
Q 372 2147 372 2553 
Q 372 3047 722 3315 
Q 1072 3584 1716 3584 
Q 2034 3584 2315 3537 
Q 2597 3491 2834 3397 
z
" transform="scale(0.015625)"/>
       <path id="DejaVuSans-6f" d="M 1959 3097 
Q 1497 3097 1228 2736 
Q 959 2375 959 1747 
Q 959 1119 1226 758 
Q 1494 397 1959 397 
Q 2419 397 2687 759 
Q 2956 1122 2956 1747 
Q 2956 2369 2687 2733 
Q 2419 3097 1959 3097 
z
M 1959 3584 
Q 2709 3584 3137 3096 
Q 3566 2609 3566 1747 
Q 3566 888 3137 398 
Q 2709 -91 1959 -91 
Q 1206 -91 779 398 
Q 353 888 353 1747 
Q 353 2609 779 3096 
Q 1206 3584 1959 3584 
z
" transform="scale(0.015625)"/>
       <path id="DejaVuSans-20" transform="scale(0.015625)"/>
       <path id="DejaVuSans-61" d="M 2194 1759 
Q 1497 1759 1228 1600 
Q 959 1441 959 1056 
Q 959 750 1161 570 
Q 1363 391 1709 391 
Q 2188 391 2477 730 
Q 2766 1069 2766 1631 
L 2766 1759 
L 2194 1759 
z
M 3341 1997 
L 3341 0 
L 2766 0 
L 2766 531 
Q 2569 213 2275 61 
Q 1981 -91 1556 -91 
Q 1019 -91 701 211 
Q 384 513 384 1019 
Q 384 1609 779 1909 
Q 1175 2209 1959 2209 
L 2766 2209 
L 2766 2266 
Q 2766 2663 2505 2880 
Q 2244 3097 1772 3097 
Q 1472 3097 1187 3025 
Q 903 2953 641 2809 
L 641 3341 
Q 956 3463 1253 3523 
Q 1550 3584 1831 3584 
Q 2591 3584 2966 3190 
Q 3341 2797 3341 1997 
z
" transform="scale(0.015625)"/>
       <path id="DejaVuSans-74" d="M 1172 4494 
L 1172 3500 
L 2356 3500 
L 2356 3053 
L 1172 3053 
L 1172 1153 
Q 1172 725 1289 603 
Q 1406 481 1766 481 
L 2356 481 
L 2356 0 
L 1766 0 
Q 1100 0 847 248 
Q 594 497 594 1153 
L 594 3053 
L 172 3053 
L 172 3500 
L 594 3500 
L 594 4494 
L 1172 4494 
z
" transform="scale(0.015625)"/>
       <path id="DejaVuSans-72" d="M 2631 2963 
Q 2534 3019 2420 3045 
Q 2306 3072 2169 3072 
Q 1681 3072 1420 2755 
Q 1159 2438 1159 1844 
L 1159 0 
L 581 0 
L 581 3500 
L 1159 3500 
L 1159 2956 
Q 1341 3275 1631 3429 
Q 1922 3584 2338 3584 
Q 2397 3584 2469 3576 
Q 2541 3569 2628 3553 
L 2631 2963 
z
" transform="scale(0.015625)"/>
       <path id="DejaVuSans-63" d="M 3122 3366 
L 3122 2828 
Q 2878 2963 2633 3030 
Q 2388 3097 2138 3097 
Q 1578 3097 1268 2742 
Q 959 2388 959 1747 
Q 959 1106 1268 751 
Q 1578 397 2138 397 
Q 2388 397 2633 464 
Q 2878 531 3122 666 
L 3122 134 
Q 2881 22 2623 -34 
Q 2366 -91 2075 -91 
Q 1284 -91 818 406 
Q 353 903 353 1747 
Q 353 2603 823 3093 
Q 1294 3584 2113 3584 
Q 2378 3584 2631 3529 
Q 2884 3475 3122 3366 
z
" transform="scale(0.015625)"/>
       <path id="DejaVuSans-Oblique-6e" d="M 3566 2113 
L 3156 0 
L 2578 0 
L 2988 2091 
Q 3016 2238 3031 2350 
Q 3047 2463 3047 2528 
Q 3047 2791 2881 2937 
Q 2716 3084 2419 3084 
Q 1956 3084 1622 2776 
Q 1288 2469 1184 1941 
L 800 0 
L 225 0 
L 903 3500 
L 1478 3500 
L 1363 2950 
Q 1603 3253 1940 3418 
Q 2278 3584 2650 3584 
Q 3113 3584 3367 3334 
Q 3622 3084 3622 2631 
Q 3622 2519 3608 2391 
Q 3594 2263 3566 2113 
z
" transform="scale(0.015625)"/>
      </defs>
      <use xlink:href="#DejaVuSans-44" transform="translate(0 0.015625)"/>
      <use xlink:href="#DejaVuSans-69" transform="translate(77.001953 0.015625)"/>
      <use xlink:href="#DejaVuSans-6d" transform="translate(104.785156 0.015625)"/>
      <use xlink:href="#DejaVuSans-65" transform="translate(202.197266 0.015625)"/>
      <use xlink:href="#DejaVuSans-6e" transform="translate(263.720703 0.015625)"/>
      <use xlink:href="#DejaVuSans-73" transform="translate(327.099609 0.015625)"/>
      <use xlink:href="#DejaVuSans-69" transform="translate(379.199219 0.015625)"/>
      <use xlink:href="#DejaVuSans-6f" transform="translate(406.982422 0.015625)"/>
      <use xlink:href="#DejaVuSans-6e" transform="translate(468.164062 0.015625)"/>
      <use xlink:href="#DejaVuSans-65" transform="translate(531.542969 0.015625)"/>
      <use xlink:href="#DejaVuSans-20" transform="translate(593.066406 0.015625)"/>
      <use xlink:href="#DejaVuSans-6d" transform="translate(624.853516 0.015625)"/>
      <use xlink:href="#DejaVuSans-61" transform="translate(722.265625 0.015625)"/>
      <use xlink:href="#DejaVuSans-74" transform="translate(783.544922 0.015625)"/>
      <use xlink:href="#DejaVuSans-72" transform="translate(822.753906 0.015625)"/>
      <use xlink:href="#DejaVuSans-69" transform="translate(863.867188 0.015625)"/>
      <use xlink:href="#DejaVuSans-63" transform="translate(891.650391 0.015625)"/>
      <use xlink:href="#DejaVuSans-65" transform="translate(946.630859 0.015625)"/>
      <use xlink:href="#DejaVuSans-20" transform="translate(1008.154297 0.015625)"/>
      <use xlink:href="#DejaVuSans-Oblique-6e" transform="translate(1039.941406 0.015625)"/>
     </g>
    </g>
   </g>
   <g id="matplotlib.axis_2">
    <g id="ytick_1">
     <g id="line2d_25">
      <path d="M 57.71375 510.969811 
L 1062.11375 510.969811 
" clip-path="url(#pa33bbb641f)" style="fill: none; stroke: #b0b0b0; stroke-width: 0.5; stroke-linecap: square"/>
     </g>
     <g id="line2d_26">
      <defs>
       <path id="m1d9d5beb2f" d="M 0 0 
L -3.5 0 
" style="stroke: #000000; stroke-width: 0.8"/>
      </defs>
      <g>
       <use xlink:href="#m1d9d5beb2f" x="57.71375" y="510.969811" style="stroke: #000000; stroke-width: 0.8"/>
      </g>
     </g>
     <g id="text_5">
      <!-- $\mathdefault{10^{-15}}$ -->
      <g transform="translate(22.81375 514.76903) scale(0.1 -0.1)">
       <defs>
        <path id="DejaVuSans-2212" d="M 678 2272 
L 4684 2272 
L 4684 1741 
L 678 1741 
L 678 2272 
z
" transform="scale(0.015625)"/>
        <path id="DejaVuSans-35" d="M 691 4666 
L 3169 4666 
L 3169 4134 
L 1269 4134 
L 1269 2991 
Q 1406 3038 1543 3061 
Q 1681 3084 1819 3084 
Q 2600 3084 3056 2656 
Q 3513 2228 3513 1497 
Q 3513 744 3044 326 
Q 2575 -91 1722 -91 
Q 1428 -91 1123 -41 
Q 819 9 494 109 
L 494 744 
Q 775 591 1075 516 
Q 1375 441 1709 441 
Q 2250 441 2565 725 
Q 2881 1009 2881 1497 
Q 2881 1984 2565 2268 
Q 2250 2553 1709 2553 
Q 1456 2553 1204 2497 
Q 953 2441 691 2322 
L 691 4666 
z
" transform="scale(0.015625)"/>
       </defs>
       <use xlink:href="#DejaVuSans-31" transform="translate(0 0.684375)"/>
       <use xlink:href="#DejaVuSans-30" transform="translate(63.623047 0.684375)"/>
       <use xlink:href="#DejaVuSans-2212" transform="translate(128.203125 38.965625) scale(0.7)"/>
       <use xlink:href="#DejaVuSans-31" transform="translate(186.855469 38.965625) scale(0.7)"/>
       <use xlink:href="#DejaVuSans-35" transform="translate(231.391602 38.965625) scale(0.7)"/>
      </g>
     </g>
    </g>
    <g id="ytick_2">
     <g id="line2d_27">
      <path d="M 57.71375 335.515855 
L 1062.11375 335.515855 
" clip-path="url(#pa33bbb641f)" style="fill: none; stroke: #b0b0b0; stroke-width: 0.5; stroke-linecap: square"/>
     </g>
     <g id="line2d_28">
      <g>
       <use xlink:href="#m1d9d5beb2f" x="57.71375" y="335.515855" style="stroke: #000000; stroke-width: 0.8"/>
      </g>
     </g>
     <g id="text_6">
      <!-- $\mathdefault{10^{-14}}$ -->
      <g transform="translate(22.81375 339.315074) scale(0.1 -0.1)">
       <defs>
        <path id="DejaVuSans-34" d="M 2419 4116 
L 825 1625 
L 2419 1625 
L 2419 4116 
z
M 2253 4666 
L 3047 4666 
L 3047 1625 
L 3713 1625 
L 3713 1100 
L 3047 1100 
L 3047 0 
L 2419 0 
L 2419 1100 
L 313 1100 
L 313 1709 
L 2253 4666 
z
" transform="scale(0.015625)"/>
       </defs>
       <use xlink:href="#DejaVuSans-31" transform="translate(0 0.684375)"/>
       <use xlink:href="#DejaVuSans-30" transform="translate(63.623047 0.684375)"/>
       <use xlink:href="#DejaVuSans-2212" transform="translate(128.203125 38.965625) scale(0.7)"/>
       <use xlink:href="#DejaVuSans-31" transform="translate(186.855469 38.965625) scale(0.7)"/>
       <use xlink:href="#DejaVuSans-34" transform="translate(231.391602 38.965625) scale(0.7)"/>
      </g>
     </g>
    </g>
    <g id="ytick_3">
     <g id="line2d_29">
      <path d="M 57.71375 160.0619 
L 1062.11375 160.0619 
" clip-path="url(#pa33bbb641f)" style="fill: none; stroke: #b0b0b0; stroke-width: 0.5; stroke-linecap: square"/>
     </g>
     <g id="line2d_30">
      <g>
       <use xlink:href="#m1d9d5beb2f" x="57.71375" y="160.0619" style="stroke: #000000; stroke-width: 0.8"/>
      </g>
     </g>
     <g id="text_7">
      <!-- $\mathdefault{10^{-13}}$ -->
      <g transform="translate(22.81375 163.861118) scale(0.1 -0.1)">
       <use xlink:href="#DejaVuSans-31" transform="translate(0 0.765625)"/>
       <use xlink:href="#DejaVuSans-30" transform="translate(63.623047 0.765625)"/>
       <use xlink:href="#DejaVuSans-2212" transform="translate(128.203125 39.046875) scale(0.7)"/>
       <use xlink:href="#DejaVuSans-31" transform="translate(186.855469 39.046875) scale(0.7)"/>
       <use xlink:href="#DejaVuSans-33" transform="translate(231.391602 39.046875) scale(0.7)"/>
      </g>
     </g>
    </g>
    <g id="ytick_4">
     <g id="line2d_31">
      <defs>
       <path id="m17b52e0ab5" d="M 0 0 
L -2 0 
" style="stroke: #000000; stroke-width: 0.6"/>
      </defs>
      <g>
       <use xlink:href="#m17b52e0ab5" x="57.71375" y="563.786715" style="stroke: #000000; stroke-width: 0.6"/>
      </g>
     </g>
    </g>
    <g id="ytick_5">
     <g id="line2d_32">
      <g>
       <use xlink:href="#m17b52e0ab5" x="57.71375" y="549.894052" style="stroke: #000000; stroke-width: 0.6"/>
      </g>
     </g>
    </g>
    <g id="ytick_6">
     <g id="line2d_33">
      <g>
       <use xlink:href="#m17b52e0ab5" x="57.71375" y="538.147973" style="stroke: #000000; stroke-width: 0.6"/>
      </g>
     </g>
    </g>
    <g id="ytick_7">
     <g id="line2d_34">
      <g>
       <use xlink:href="#m17b52e0ab5" x="57.71375" y="527.973056" style="stroke: #000000; stroke-width: 0.6"/>
      </g>
     </g>
    </g>
    <g id="ytick_8">
     <g id="line2d_35">
      <g>
       <use xlink:href="#m17b52e0ab5" x="57.71375" y="518.998144" style="stroke: #000000; stroke-width: 0.6"/>
      </g>
     </g>
    </g>
    <g id="ytick_9">
     <g id="line2d_36">
      <g>
       <use xlink:href="#m17b52e0ab5" x="57.71375" y="458.152908" style="stroke: #000000; stroke-width: 0.6"/>
      </g>
     </g>
    </g>
    <g id="ytick_10">
     <g id="line2d_37">
      <g>
       <use xlink:href="#m17b52e0ab5" x="57.71375" y="427.257" style="stroke: #000000; stroke-width: 0.6"/>
      </g>
     </g>
    </g>
    <g id="ytick_11">
     <g id="line2d_38">
      <g>
       <use xlink:href="#m17b52e0ab5" x="57.71375" y="405.336004" style="stroke: #000000; stroke-width: 0.6"/>
      </g>
     </g>
    </g>
    <g id="ytick_12">
     <g id="line2d_39">
      <g>
       <use xlink:href="#m17b52e0ab5" x="57.71375" y="388.332759" style="stroke: #000000; stroke-width: 0.6"/>
      </g>
     </g>
    </g>
    <g id="ytick_13">
     <g id="line2d_40">
      <g>
       <use xlink:href="#m17b52e0ab5" x="57.71375" y="374.440096" style="stroke: #000000; stroke-width: 0.6"/>
      </g>
     </g>
    </g>
    <g id="ytick_14">
     <g id="line2d_41">
      <g>
       <use xlink:href="#m17b52e0ab5" x="57.71375" y="362.694017" style="stroke: #000000; stroke-width: 0.6"/>
      </g>
     </g>
    </g>
    <g id="ytick_15">
     <g id="line2d_42">
      <g>
       <use xlink:href="#m17b52e0ab5" x="57.71375" y="352.519101" style="stroke: #000000; stroke-width: 0.6"/>
      </g>
     </g>
    </g>
    <g id="ytick_16">
     <g id="line2d_43">
      <g>
       <use xlink:href="#m17b52e0ab5" x="57.71375" y="343.544188" style="stroke: #000000; stroke-width: 0.6"/>
      </g>
     </g>
    </g>
    <g id="ytick_17">
     <g id="line2d_44">
      <g>
       <use xlink:href="#m17b52e0ab5" x="57.71375" y="282.698952" style="stroke: #000000; stroke-width: 0.6"/>
      </g>
     </g>
    </g>
    <g id="ytick_18">
     <g id="line2d_45">
      <g>
       <use xlink:href="#m17b52e0ab5" x="57.71375" y="251.803044" style="stroke: #000000; stroke-width: 0.6"/>
      </g>
     </g>
    </g>
    <g id="ytick_19">
     <g id="line2d_46">
      <g>
       <use xlink:href="#m17b52e0ab5" x="57.71375" y="229.882048" style="stroke: #000000; stroke-width: 0.6"/>
      </g>
     </g>
    </g>
    <g id="ytick_20">
     <g id="line2d_47">
      <g>
       <use xlink:href="#m17b52e0ab5" x="57.71375" y="212.878803" style="stroke: #000000; stroke-width: 0.6"/>
      </g>
     </g>
    </g>
    <g id="ytick_21">
     <g id="line2d_48">
      <g>
       <use xlink:href="#m17b52e0ab5" x="57.71375" y="198.98614" style="stroke: #000000; stroke-width: 0.6"/>
      </g>
     </g>
    </g>
    <g id="ytick_22">
     <g id="line2d_49">
      <g>
       <use xlink:href="#m17b52e0ab5" x="57.71375" y="187.240061" style="stroke: #000000; stroke-width: 0.6"/>
      </g>
     </g>
    </g>
    <g id="ytick_23">
     <g id="line2d_50">
      <g>
       <use xlink:href="#m17b52e0ab5" x="57.71375" y="177.065145" style="stroke: #000000; stroke-width: 0.6"/>
      </g>
     </g>
    </g>
    <g id="ytick_24">
     <g id="line2d_51">
      <g>
       <use xlink:href="#m17b52e0ab5" x="57.71375" y="168.090232" style="stroke: #000000; stroke-width: 0.6"/>
      </g>
     </g>
    </g>
    <g id="ytick_25">
     <g id="line2d_52">
      <g>
       <use xlink:href="#m17b52e0ab5" x="57.71375" y="107.244996" style="stroke: #000000; stroke-width: 0.6"/>
      </g>
     </g>
    </g>
    <g id="ytick_26">
     <g id="line2d_53">
      <g>
       <use xlink:href="#m17b52e0ab5" x="57.71375" y="76.349088" style="stroke: #000000; stroke-width: 0.6"/>
      </g>
     </g>
    </g>
    <g id="ytick_27">
     <g id="line2d_54">
      <g>
       <use xlink:href="#m17b52e0ab5" x="57.71375" y="54.428093" style="stroke: #000000; stroke-width: 0.6"/>
      </g>
     </g>
    </g>
    <g id="ytick_28">
     <g id="line2d_55">
      <g>
       <use xlink:href="#m17b52e0ab5" x="57.71375" y="37.424847" style="stroke: #000000; stroke-width: 0.6"/>
      </g>
     </g>
    </g>
    <g id="text_8">
     <!-- Errore -->
     <g transform="translate(16.318125 319.219063) rotate(-90) scale(0.12 -0.12)">
      <defs>
       <path id="DejaVuSans-45" d="M 628 4666 
L 3578 4666 
L 3578 4134 
L 1259 4134 
L 1259 2753 
L 3481 2753 
L 3481 2222 
L 1259 2222 
L 1259 531 
L 3634 531 
L 3634 0 
L 628 0 
L 628 4666 
z
" transform="scale(0.015625)"/>
      </defs>
      <use xlink:href="#DejaVuSans-45"/>
      <use xlink:href="#DejaVuSans-72" x="63.183594"/>
      <use xlink:href="#DejaVuSans-72" x="102.546875"/>
      <use xlink:href="#DejaVuSans-6f" x="141.410156"/>
      <use xlink:href="#DejaVuSans-72" x="202.591797"/>
      <use xlink:href="#DejaVuSans-65" x="241.455078"/>
     </g>
    </g>
   </g>
   <g id="line2d_56">
    <path d="M 103.368295 552.600763 
L 139.525989 531.286323 
L 196.578596 505.000354 
L 240.832036 475.898497 
L 292.86366 456.0921 
L 340.144919 430.256643 
L 387.971758 401.530718 
L 437.811997 374.334178 
L 486.424256 348.227045 
L 534.661267 324.41712 
L 582.488106 300.661389 
L 630.946331 270.895182 
L 679.859848 243.913381 
L 727.76408 219.148731 
L 775.894668 190.930152 
L 824.245466 162.951692 
L 872.333766 138.593514 
L 920.24857 108.015693 
L 968.397616 81.118559 
L 1016.459205 56.636145 
" clip-path="url(#pa33bbb641f)" style="fill: none; stroke: #1f77b4; stroke-width: 1.5; stroke-linecap: square"/>
    <defs>
     <path id="m8d8a6903ec" d="M 0 1.5 
C 0.397805 1.5 0.77937 1.341951 1.06066 1.06066 
C 1.341951 0.77937 1.5 0.397805 1.5 0 
C 1.5 -0.397805 1.341951 -0.77937 1.06066 -1.06066 
C 0.77937 -1.341951 0.397805 -1.5 0 -1.5 
C -0.397805 -1.5 -0.77937 -1.341951 -1.06066 -1.06066 
C -1.341951 -0.77937 -1.5 -0.397805 -1.5 0 
C -1.5 0.397805 -1.341951 0.77937 -1.06066 1.06066 
C -0.77937 1.341951 -0.397805 1.5 0 1.5 
z
" style="stroke: #1f77b4"/>
    </defs>
    <g clip-path="url(#pa33bbb641f)">
     <use xlink:href="#m8d8a6903ec" x="103.368295" y="552.600763" style="fill: #1f77b4; stroke: #1f77b4"/>
     <use xlink:href="#m8d8a6903ec" x="139.525989" y="531.286323" style="fill: #1f77b4; stroke: #1f77b4"/>
     <use xlink:href="#m8d8a6903ec" x="196.578596" y="505.000354" style="fill: #1f77b4; stroke: #1f77b4"/>
     <use xlink:href="#m8d8a6903ec" x="240.832036" y="475.898497" style="fill: #1f77b4; stroke: #1f77b4"/>
     <use xlink:href="#m8d8a6903ec" x="292.86366" y="456.0921" style="fill: #1f77b4; stroke: #1f77b4"/>
     <use xlink:href="#m8d8a6903ec" x="340.144919" y="430.256643" style="fill: #1f77b4; stroke: #1f77b4"/>
     <use xlink:href="#m8d8a6903ec" x="387.971758" y="401.530718" style="fill: #1f77b4; stroke: #1f77b4"/>
     <use xlink:href="#m8d8a6903ec" x="437.811997" y="374.334178" style="fill: #1f77b4; stroke: #1f77b4"/>
     <use xlink:href="#m8d8a6903ec" x="486.424256" y="348.227045" style="fill: #1f77b4; stroke: #1f77b4"/>
     <use xlink:href="#m8d8a6903ec" x="534.661267" y="324.41712" style="fill: #1f77b4; stroke: #1f77b4"/>
     <use xlink:href="#m8d8a6903ec" x="582.488106" y="300.661389" style="fill: #1f77b4; stroke: #1f77b4"/>
     <use xlink:href="#m8d8a6903ec" x="630.946331" y="270.895182" style="fill: #1f77b4; stroke: #1f77b4"/>
     <use xlink:href="#m8d8a6903ec" x="679.859848" y="243.913381" style="fill: #1f77b4; stroke: #1f77b4"/>
     <use xlink:href="#m8d8a6903ec" x="727.76408" y="219.148731" style="fill: #1f77b4; stroke: #1f77b4"/>
     <use xlink:href="#m8d8a6903ec" x="775.894668" y="190.930152" style="fill: #1f77b4; stroke: #1f77b4"/>
     <use xlink:href="#m8d8a6903ec" x="824.245466" y="162.951692" style="fill: #1f77b4; stroke: #1f77b4"/>
     <use xlink:href="#m8d8a6903ec" x="872.333766" y="138.593514" style="fill: #1f77b4; stroke: #1f77b4"/>
     <use xlink:href="#m8d8a6903ec" x="920.24857" y="108.015693" style="fill: #1f77b4; stroke: #1f77b4"/>
     <use xlink:href="#m8d8a6903ec" x="968.397616" y="81.118559" style="fill: #1f77b4; stroke: #1f77b4"/>
     <use xlink:href="#m8d8a6903ec" x="1016.459205" y="56.636145" style="fill: #1f77b4; stroke: #1f77b4"/>
    </g>
   </g>
   <g id="line2d_57">
    <path d="M 103.368295 546.137733 
L 139.525989 528.057195 
L 196.578596 506.923586 
L 240.832036 481.25409 
L 292.86366 454.197188 
L 340.144919 428.323414 
L 387.971758 402.977763 
L 437.811997 381.010206 
L 486.424256 350.114996 
L 534.661267 329.535243 
L 582.488106 309.082721 
L 630.946331 276.505915 
L 679.859848 255.682191 
L 727.76408 235.16551 
L 775.894668 208.743115 
L 824.245466 183.941707 
L 872.333766 158.642322 
L 920.24857 128.582356 
L 968.397616 102.518701 
L 1016.459205 74.753726 
" clip-path="url(#pa33bbb641f)" style="fill: none; stroke: #ff7f0e; stroke-width: 1.5; stroke-linecap: square"/>
    <defs>
     <path id="m00ed4a6082" d="M 0 1.5 
C 0.397805 1.5 0.77937 1.341951 1.06066 1.06066 
C 1.341951 0.77937 1.5 0.397805 1.5 0 
C 1.5 -0.397805 1.341951 -0.77937 1.06066 -1.06066 
C 0.77937 -1.341951 0.397805 -1.5 0 -1.5 
C -0.397805 -1.5 -0.77937 -1.341951 -1.06066 -1.06066 
C -1.341951 -0.77937 -1.5 -0.397805 -1.5 0 
C -1.5 0.397805 -1.341951 0.77937 -1.06066 1.06066 
C -0.77937 1.341951 -0.397805 1.5 0 1.5 
z
" style="stroke: #ff7f0e"/>
    </defs>
    <g clip-path="url(#pa33bbb641f)">
     <use xlink:href="#m00ed4a6082" x="103.368295" y="546.137733" style="fill: #ff7f0e; stroke: #ff7f0e"/>
     <use xlink:href="#m00ed4a6082" x="139.525989" y="528.057195" style="fill: #ff7f0e; stroke: #ff7f0e"/>
     <use xlink:href="#m00ed4a6082" x="196.578596" y="506.923586" style="fill: #ff7f0e; stroke: #ff7f0e"/>
     <use xlink:href="#m00ed4a6082" x="240.832036" y="481.25409" style="fill: #ff7f0e; stroke: #ff7f0e"/>
     <use xlink:href="#m00ed4a6082" x="292.86366" y="454.197188" style="fill: #ff7f0e; stroke: #ff7f0e"/>
     <use xlink:href="#m00ed4a6082" x="340.144919" y="428.323414" style="fill: #ff7f0e; stroke: #ff7f0e"/>
     <use xlink:href="#m00ed4a6082" x="387.971758" y="402.977763" style="fill: #ff7f0e; stroke: #ff7f0e"/>
     <use xlink:href="#m00ed4a6082" x="437.811997" y="381.010206" style="fill: #ff7f0e; stroke: #ff7f0e"/>
     <use xlink:href="#m00ed4a6082" x="486.424256" y="350.114996" style="fill: #ff7f0e; stroke: #ff7f0e"/>
     <use xlink:href="#m00ed4a6082" x="534.661267" y="329.535243" style="fill: #ff7f0e; stroke: #ff7f0e"/>
     <use xlink:href="#m00ed4a6082" x="582.488106" y="309.082721" style="fill: #ff7f0e; stroke: #ff7f0e"/>
     <use xlink:href="#m00ed4a6082" x="630.946331" y="276.505915" style="fill: #ff7f0e; stroke: #ff7f0e"/>
     <use xlink:href="#m00ed4a6082" x="679.859848" y="255.682191" style="fill: #ff7f0e; stroke: #ff7f0e"/>
     <use xlink:href="#m00ed4a6082" x="727.76408" y="235.16551" style="fill: #ff7f0e; stroke: #ff7f0e"/>
     <use xlink:href="#m00ed4a6082" x="775.894668" y="208.743115" style="fill: #ff7f0e; stroke: #ff7f0e"/>
     <use xlink:href="#m00ed4a6082" x="824.245466" y="183.941707" style="fill: #ff7f0e; stroke: #ff7f0e"/>
     <use xlink:href="#m00ed4a6082" x="872.333766" y="158.642322" style="fill: #ff7f0e; stroke: #ff7f0e"/>
     <use xlink:href="#m00ed4a6082" x="920.24857" y="128.582356" style="fill: #ff7f0e; stroke: #ff7f0e"/>
     <use xlink:href="#m00ed4a6082" x="968.397616" y="102.518701" style="fill: #ff7f0e; stroke: #ff7f0e"/>
     <use xlink:href="#m00ed4a6082" x="1016.459205" y="74.753726" style="fill: #ff7f0e; stroke: #ff7f0e"/>
    </g>
   </g>
   <g id="line2d_58">
    <path d="M 103.368295 553.04 
L 139.525989 537.436432 
L 196.578596 512.392845 
L 240.832036 488.30347 
L 292.86366 463.21835 
L 340.144919 440.71911 
L 387.971758 413.952019 
L 437.811997 389.65684 
L 486.424256 358.940724 
L 534.661267 336.750898 
L 582.488106 313.296202 
L 630.946331 280.632672 
L 679.859848 257.37664 
L 727.76408 232.10898 
L 775.894668 201.925805 
L 824.245466 176.463677 
L 872.333766 150.715273 
L 920.24857 121.185709 
L 968.397616 95.814456 
L 1016.459205 69.624567 
" clip-path="url(#pa33bbb641f)" style="fill: none; stroke: #2ca02c; stroke-width: 1.5; stroke-linecap: square"/>
    <defs>
     <path id="ma80613ce83" d="M 0 1.5 
C 0.397805 1.5 0.77937 1.341951 1.06066 1.06066 
C 1.341951 0.77937 1.5 0.397805 1.5 0 
C 1.5 -0.397805 1.341951 -0.77937 1.06066 -1.06066 
C 0.77937 -1.341951 0.397805 -1.5 0 -1.5 
C -0.397805 -1.5 -0.77937 -1.341951 -1.06066 -1.06066 
C -1.341951 -0.77937 -1.5 -0.397805 -1.5 0 
C -1.5 0.397805 -1.341951 0.77937 -1.06066 1.06066 
C -0.77937 1.341951 -0.397805 1.5 0 1.5 
z
" style="stroke: #2ca02c"/>
    </defs>
    <g clip-path="url(#pa33bbb641f)">
     <use xlink:href="#ma80613ce83" x="103.368295" y="553.04" style="fill: #2ca02c; stroke: #2ca02c"/>
     <use xlink:href="#ma80613ce83" x="139.525989" y="537.436432" style="fill: #2ca02c; stroke: #2ca02c"/>
     <use xlink:href="#ma80613ce83" x="196.578596" y="512.392845" style="fill: #2ca02c; stroke: #2ca02c"/>
     <use xlink:href="#ma80613ce83" x="240.832036" y="488.30347" style="fill: #2ca02c; stroke: #2ca02c"/>
     <use xlink:href="#ma80613ce83" x="292.86366" y="463.21835" style="fill: #2ca02c; stroke: #2ca02c"/>
     <use xlink:href="#ma80613ce83" x="340.144919" y="440.71911" style="fill: #2ca02c; stroke: #2ca02c"/>
     <use xlink:href="#ma80613ce83" x="387.971758" y="413.952019" style="fill: #2ca02c; stroke: #2ca02c"/>
     <use xlink:href="#ma80613ce83" x="437.811997" y="389.65684" style="fill: #2ca02c; stroke: #2ca02c"/>
     <use xlink:href="#ma80613ce83" x="486.424256" y="358.940724" style="fill: #2ca02c; stroke: #2ca02c"/>
     <use xlink:href="#ma80613ce83" x="534.661267" y="336.750898" style="fill: #2ca02c; stroke: #2ca02c"/>
     <use xlink:href="#ma80613ce83" x="582.488106" y="313.296202" style="fill: #2ca02c; stroke: #2ca02c"/>
     <use xlink:href="#ma80613ce83" x="630.946331" y="280.632672" style="fill: #2ca02c; stroke: #2ca02c"/>
     <use xlink:href="#ma80613ce83" x="679.859848" y="257.37664" style="fill: #2ca02c; stroke: #2ca02c"/>
     <use xlink:href="#ma80613ce83" x="727.76408" y="232.10898" style="fill: #2ca02c; stroke: #2ca02c"/>
     <use xlink:href="#ma80613ce83" x="775.894668" y="201.925805" style="fill: #2ca02c; stroke: #2ca02c"/>
     <use xlink:href="#ma80613ce83" x="824.245466" y="176.463677" style="fill: #2ca02c; stroke: #2ca02c"/>
     <use xlink:href="#ma80613ce83" x="872.333766" y="150.715273" style="fill: #2ca02c; stroke: #2ca02c"/>
     <use xlink:href="#ma80613ce83" x="920.24857" y="121.185709" style="fill: #2ca02c; stroke: #2ca02c"/>
     <use xlink:href="#ma80613ce83" x="968.397616" y="95.814456" style="fill: #2ca02c; stroke: #2ca02c"/>
     <use xlink:href="#ma80613ce83" x="1016.459205" y="69.624567" style="fill: #2ca02c; stroke: #2ca02c"/>
    </g>
   </g>
   <g id="line2d_59">
    <path d="M 103.368295 450.990578 
L 139.525989 432.14901 
L 196.578596 403.237009 
L 240.832036 384.843334 
L 292.86366 367.945481 
L 340.144919 344.0121 
L 387.971758 321.728637 
L 437.811997 303.628738 
L 486.424256 288.378085 
L 534.661267 285.304007 
L 582.488106 262.3496 
L 630.946331 234.704694 
L 679.859848 223.134267 
L 727.76408 200.731977 
L 775.894668 175.480965 
L 824.245466 153.010554 
L 872.333766 128.013213 
L 920.24857 99.601763 
L 968.397616 73.68371 
L 1016.459205 49.04 
" clip-path="url(#pa33bbb641f)" style="fill: none; stroke: #d62728; stroke-width: 1.5; stroke-linecap: square"/>
    <defs>
     <path id="m926141b88d" d="M 0 1.5 
C 0.397805 1.5 0.77937 1.341951 1.06066 1.06066 
C 1.341951 0.77937 1.5 0.397805 1.5 0 
C 1.5 -0.397805 1.341951 -0.77937 1.06066 -1.06066 
C 0.77937 -1.341951 0.397805 -1.5 0 -1.5 
C -0.397805 -1.5 -0.77937 -1.341951 -1.06066 -1.06066 
C -1.341951 -0.77937 -1.5 -0.397805 -1.5 0 
C -1.5 0.397805 -1.341951 0.77937 -1.06066 1.06066 
C -0.77937 1.341951 -0.397805 1.5 0 1.5 
z
" style="stroke: #d62728"/>
    </defs>
    <g clip-path="url(#pa33bbb641f)">
     <use xlink:href="#m926141b88d" x="103.368295" y="450.990578" style="fill: #d62728; stroke: #d62728"/>
     <use xlink:href="#m926141b88d" x="139.525989" y="432.14901" style="fill: #d62728; stroke: #d62728"/>
     <use xlink:href="#m926141b88d" x="196.578596" y="403.237009" style="fill: #d62728; stroke: #d62728"/>
     <use xlink:href="#m926141b88d" x="240.832036" y="384.843334" style="fill: #d62728; stroke: #d62728"/>
     <use xlink:href="#m926141b88d" x="292.86366" y="367.945481" style="fill: #d62728; stroke: #d62728"/>
     <use xlink:href="#m926141b88d" x="340.144919" y="344.0121" style="fill: #d62728; stroke: #d62728"/>
     <use xlink:href="#m926141b88d" x="387.971758" y="321.728637" style="fill: #d62728; stroke: #d62728"/>
     <use xlink:href="#m926141b88d" x="437.811997" y="303.628738" style="fill: #d62728; stroke: #d62728"/>
     <use xlink:href="#m926141b88d" x="486.424256" y="288.378085" style="fill: #d62728; stroke: #d62728"/>
     <use xlink:href="#m926141b88d" x="534.661267" y="285.304007" style="fill: #d62728; stroke: #d62728"/>
     <use xlink:href="#m926141b88d" x="582.488106" y="262.3496" style="fill: #d62728; stroke: #d62728"/>
     <use xlink:href="#m926141b88d" x="630.946331" y="234.704694" style="fill: #d62728; stroke: #d62728"/>
     <use xlink:href="#m926141b88d" x="679.859848" y="223.134267" style="fill: #d62728; stroke: #d62728"/>
     <use xlink:href="#m926141b88d" x="727.76408" y="200.731977" style="fill: #d62728; stroke: #d62728"/>
     <use xlink:href="#m926141b88d" x="775.894668" y="175.480965" style="fill: #d62728; stroke: #d62728"/>
     <use xlink:href="#m926141b88d" x="824.245466" y="153.010554" style="fill: #d62728; stroke: #d62728"/>
     <use xlink:href="#m926141b88d" x="872.333766" y="128.013213" style="fill: #d62728; stroke: #d62728"/>
     <use xlink:href="#m926141b88d" x="920.24857" y="99.601763" style="fill: #d62728; stroke: #d62728"/>
     <use xlink:href="#m926141b88d" x="968.397616" y="73.68371" style="fill: #d62728; stroke: #d62728"/>
     <use xlink:href="#m926141b88d" x="1016.459205" y="49.04" style="fill: #d62728; stroke: #d62728"/>
    </g>
   </g>
   <g id="line2d_60">
    <path d="M 103.368295 464.689824 
L 139.525989 443.050663 
L 196.578596 410.080507 
L 240.832036 394.414169 
L 292.86366 394.213969 
L 340.144919 387.326373 
L 387.971758 368.800163 
L 437.811997 344.266399 
L 486.424256 328.610489 
L 534.661267 309.614142 
L 582.488106 285.767933 
L 630.946331 259.615102 
L 679.859848 233.498918 
L 727.76408 208.510272 
L 775.894668 188.652853 
L 824.245466 162.311509 
L 872.333766 135.125716 
L 920.24857 109.845248 
L 968.397616 82.07644 
L 1016.459205 55.644734 
" clip-path="url(#pa33bbb641f)" style="fill: none; stroke: #9467bd; stroke-width: 1.5; stroke-linecap: square"/>
    <defs>
     <path id="m95adb3af0f" d="M 0 1.5 
C 0.397805 1.5 0.77937 1.341951 1.06066 1.06066 
C 1.341951 0.77937 1.5 0.397805 1.5 0 
C 1.5 -0.397805 1.341951 -0.77937 1.06066 -1.06066 
C 0.77937 -1.341951 0.397805 -1.5 0 -1.5 
C -0.397805 -1.5 -0.77937 -1.341951 -1.06066 -1.06066 
C -1.341951 -0.77937 -1.5 -0.397805 -1.5 0 
C -1.5 0.397805 -1.341951 0.77937 -1.06066 1.06066 
C -0.77937 1.341951 -0.397805 1.5 0 1.5 
z
" style="stroke: #9467bd"/>
    </defs>
    <g clip-path="url(#pa33bbb641f)">
     <use xlink:href="#m95adb3af0f" x="103.368295" y="464.689824" style="fill: #9467bd; stroke: #9467bd"/>
     <use xlink:href="#m95adb3af0f" x="139.525989" y="443.050663" style="fill: #9467bd; stroke: #9467bd"/>
     <use xlink:href="#m95adb3af0f" x="196.578596" y="410.080507" style="fill: #9467bd; stroke: #9467bd"/>
     <use xlink:href="#m95adb3af0f" x="240.832036" y="394.414169" style="fill: #9467bd; stroke: #9467bd"/>
     <use xlink:href="#m95adb3af0f" x="292.86366" y="394.213969" style="fill: #9467bd; stroke: #9467bd"/>
     <use xlink:href="#m95adb3af0f" x="340.144919" y="387.326373" style="fill: #9467bd; stroke: #9467bd"/>
     <use xlink:href="#m95adb3af0f" x="387.971758" y="368.800163" style="fill: #9467bd; stroke: #9467bd"/>
     <use xlink:href="#m95adb3af0f" x="437.811997" y="344.266399" style="fill: #9467bd; stroke: #9467bd"/>
     <use xlink:href="#m95adb3af0f" x="486.424256" y="328.610489" style="fill: #9467bd; stroke: #9467bd"/>
     <use xlink:href="#m95adb3af0f" x="534.661267" y="309.614142" style="fill: #9467bd; stroke: #9467bd"/>
     <use xlink:href="#m95adb3af0f" x="582.488106" y="285.767933" style="fill: #9467bd; stroke: #9467bd"/>
     <use xlink:href="#m95adb3af0f" x="630.946331" y="259.615102" style="fill: #9467bd; stroke: #9467bd"/>
     <use xlink:href="#m95adb3af0f" x="679.859848" y="233.498918" style="fill: #9467bd; stroke: #9467bd"/>
     <use xlink:href="#m95adb3af0f" x="727.76408" y="208.510272" style="fill: #9467bd; stroke: #9467bd"/>
     <use xlink:href="#m95adb3af0f" x="775.894668" y="188.652853" style="fill: #9467bd; stroke: #9467bd"/>
     <use xlink:href="#m95adb3af0f" x="824.245466" y="162.311509" style="fill: #9467bd; stroke: #9467bd"/>
     <use xlink:href="#m95adb3af0f" x="872.333766" y="135.125716" style="fill: #9467bd; stroke: #9467bd"/>
     <use xlink:href="#m95adb3af0f" x="920.24857" y="109.845248" style="fill: #9467bd; stroke: #9467bd"/>
     <use xlink:href="#m95adb3af0f" x="968.397616" y="82.07644" style="fill: #9467bd; stroke: #9467bd"/>
     <use xlink:href="#m95adb3af0f" x="1016.459205" y="55.644734" style="fill: #9467bd; stroke: #9467bd"/>
    </g>
   </g>
   <g id="line2d_61">
    <path d="M 103.368295 485.702414 
L 139.525989 460.837636 
L 196.578596 441.745124 
L 240.832036 427.588922 
L 292.86366 407.102961 
L 340.144919 396.192715 
L 387.971758 376.130992 
L 437.811997 353.362436 
L 486.424256 336.713746 
L 534.661267 309.56976 
L 582.488106 286.175582 
L 630.946331 264.107085 
L 679.859848 234.0576 
L 727.76408 210.065456 
L 775.894668 186.100753 
L 824.245466 154.471999 
L 872.333766 132.106236 
L 920.24857 103.883206 
L 968.397616 73.114385 
L 1016.459205 52.427066 
" clip-path="url(#pa33bbb641f)" style="fill: none; stroke: #8c564b; stroke-width: 1.5; stroke-linecap: square"/>
    <defs>
     <path id="ma75415d41d" d="M 0 1.5 
C 0.397805 1.5 0.77937 1.341951 1.06066 1.06066 
C 1.341951 0.77937 1.5 0.397805 1.5 0 
C 1.5 -0.397805 1.341951 -0.77937 1.06066 -1.06066 
C 0.77937 -1.341951 0.397805 -1.5 0 -1.5 
C -0.397805 -1.5 -0.77937 -1.341951 -1.06066 -1.06066 
C -1.341951 -0.77937 -1.5 -0.397805 -1.5 0 
C -1.5 0.397805 -1.341951 0.77937 -1.06066 1.06066 
C -0.77937 1.341951 -0.397805 1.5 0 1.5 
z
" style="stroke: #8c564b"/>
    </defs>
    <g clip-path="url(#pa33bbb641f)">
     <use xlink:href="#ma75415d41d" x="103.368295" y="485.702414" style="fill: #8c564b; stroke: #8c564b"/>
     <use xlink:href="#ma75415d41d" x="139.525989" y="460.837636" style="fill: #8c564b; stroke: #8c564b"/>
     <use xlink:href="#ma75415d41d" x="196.578596" y="441.745124" style="fill: #8c564b; stroke: #8c564b"/>
     <use xlink:href="#ma75415d41d" x="240.832036" y="427.588922" style="fill: #8c564b; stroke: #8c564b"/>
     <use xlink:href="#ma75415d41d" x="292.86366" y="407.102961" style="fill: #8c564b; stroke: #8c564b"/>
     <use xlink:href="#ma75415d41d" x="340.144919" y="396.192715" style="fill: #8c564b; stroke: #8c564b"/>
     <use xlink:href="#ma75415d41d" x="387.971758" y="376.130992" style="fill: #8c564b; stroke: #8c564b"/>
     <use xlink:href="#ma75415d41d" x="437.811997" y="353.362436" style="fill: #8c564b; stroke: #8c564b"/>
     <use xlink:href="#ma75415d41d" x="486.424256" y="336.713746" style="fill: #8c564b; stroke: #8c564b"/>
     <use xlink:href="#ma75415d41d" x="534.661267" y="309.56976" style="fill: #8c564b; stroke: #8c564b"/>
     <use xlink:href="#ma75415d41d" x="582.488106" y="286.175582" style="fill: #8c564b; stroke: #8c564b"/>
     <use xlink:href="#ma75415d41d" x="630.946331" y="264.107085" style="fill: #8c564b; stroke: #8c564b"/>
     <use xlink:href="#ma75415d41d" x="679.859848" y="234.0576" style="fill: #8c564b; stroke: #8c564b"/>
     <use xlink:href="#ma75415d41d" x="727.76408" y="210.065456" style="fill: #8c564b; stroke: #8c564b"/>
     <use xlink:href="#ma75415d41d" x="775.894668" y="186.100753" style="fill: #8c564b; stroke: #8c564b"/>
     <use xlink:href="#ma75415d41d" x="824.245466" y="154.471999" style="fill: #8c564b; stroke: #8c564b"/>
     <use xlink:href="#ma75415d41d" x="872.333766" y="132.106236" style="fill: #8c564b; stroke: #8c564b"/>
     <use xlink:href="#ma75415d41d" x="920.24857" y="103.883206" style="fill: #8c564b; stroke: #8c564b"/>
     <use xlink:href="#ma75415d41d" x="968.397616" y="73.114385" style="fill: #8c564b; stroke: #8c564b"/>
     <use xlink:href="#ma75415d41d" x="1016.459205" y="52.427066" style="fill: #8c564b; stroke: #8c564b"/>
    </g>
   </g>
   <g id="line2d_62">
    <path d="M 103.368295 478.957389 
L 139.525989 461.466097 
L 196.578596 437.845599 
L 240.832036 421.222568 
L 292.86366 404.555384 
L 340.144919 392.963332 
L 387.971758 371.233899 
L 437.811997 350.992879 
L 486.424256 334.429013 
L 534.661267 307.87132 
L 582.488106 284.595373 
L 630.946331 262.863266 
L 679.859848 233.897646 
L 727.76408 210.054939 
L 775.894668 185.68802 
L 824.245466 154.48011 
L 872.333766 131.660831 
L 920.24857 103.890492 
L 968.397616 72.845314 
L 1016.459205 52.31787 
" clip-path="url(#pa33bbb641f)" style="fill: none; stroke: #e377c2; stroke-width: 1.5; stroke-linecap: square"/>
    <defs>
     <path id="m568e36c07c" d="M 0 1.5 
C 0.397805 1.5 0.77937 1.341951 1.06066 1.06066 
C 1.341951 0.77937 1.5 0.397805 1.5 0 
C 1.5 -0.397805 1.341951 -0.77937 1.06066 -1.06066 
C 0.77937 -1.341951 0.397805 -1.5 0 -1.5 
C -0.397805 -1.5 -0.77937 -1.341951 -1.06066 -1.06066 
C -1.341951 -0.77937 -1.5 -0.397805 -1.5 0 
C -1.5 0.397805 -1.341951 0.77937 -1.06066 1.06066 
C -0.77937 1.341951 -0.397805 1.5 0 1.5 
z
" style="stroke: #e377c2"/>
    </defs>
    <g clip-path="url(#pa33bbb641f)">
     <use xlink:href="#m568e36c07c" x="103.368295" y="478.957389" style="fill: #e377c2; stroke: #e377c2"/>
     <use xlink:href="#m568e36c07c" x="139.525989" y="461.466097" style="fill: #e377c2; stroke: #e377c2"/>
     <use xlink:href="#m568e36c07c" x="196.578596" y="437.845599" style="fill: #e377c2; stroke: #e377c2"/>
     <use xlink:href="#m568e36c07c" x="240.832036" y="421.222568" style="fill: #e377c2; stroke: #e377c2"/>
     <use xlink:href="#m568e36c07c" x="292.86366" y="404.555384" style="fill: #e377c2; stroke: #e377c2"/>
     <use xlink:href="#m568e36c07c" x="340.144919" y="392.963332" style="fill: #e377c2; stroke: #e377c2"/>
     <use xlink:href="#m568e36c07c" x="387.971758" y="371.233899" style="fill: #e377c2; stroke: #e377c2"/>
     <use xlink:href="#m568e36c07c" x="437.811997" y="350.992879" style="fill: #e377c2; stroke: #e377c2"/>
     <use xlink:href="#m568e36c07c" x="486.424256" y="334.429013" style="fill: #e377c2; stroke: #e377c2"/>
     <use xlink:href="#m568e36c07c" x="534.661267" y="307.87132" style="fill: #e377c2; stroke: #e377c2"/>
     <use xlink:href="#m568e36c07c" x="582.488106" y="284.595373" style="fill: #e377c2; stroke: #e377c2"/>
     <use xlink:href="#m568e36c07c" x="630.946331" y="262.863266" style="fill: #e377c2; stroke: #e377c2"/>
     <use xlink:href="#m568e36c07c" x="679.859848" y="233.897646" style="fill: #e377c2; stroke: #e377c2"/>
     <use xlink:href="#m568e36c07c" x="727.76408" y="210.054939" style="fill: #e377c2; stroke: #e377c2"/>
     <use xlink:href="#m568e36c07c" x="775.894668" y="185.68802" style="fill: #e377c2; stroke: #e377c2"/>
     <use xlink:href="#m568e36c07c" x="824.245466" y="154.48011" style="fill: #e377c2; stroke: #e377c2"/>
     <use xlink:href="#m568e36c07c" x="872.333766" y="131.660831" style="fill: #e377c2; stroke: #e377c2"/>
     <use xlink:href="#m568e36c07c" x="920.24857" y="103.890492" style="fill: #e377c2; stroke: #e377c2"/>
     <use xlink:href="#m568e36c07c" x="968.397616" y="72.845314" style="fill: #e377c2; stroke: #e377c2"/>
     <use xlink:href="#m568e36c07c" x="1016.459205" y="52.31787" style="fill: #e377c2; stroke: #e377c2"/>
    </g>
   </g>
   <g id="patch_3">
    <path d="M 57.71375 578.24 
L 57.71375 23.84 
" style="fill: none; stroke: #000000; stroke-width: 0.8; stroke-linejoin: miter; stroke-linecap: square"/>
   </g>
   <g id="patch_4">
    <path d="M 1062.11375 578.24 
L 1062.11375 23.84 
" style="fill: none; stroke: #000000; stroke-width: 0.8; stroke-linejoin: miter; stroke-linecap: square"/>
   </g>
   <g id="patch_5">
    <path d="M 57.71375 578.24 
L 1062.11375 578.24 
" style="fill: none; stroke: #000000; stroke-width: 0.8; stroke-linejoin: miter; stroke-linecap: square"/>
   </g>
   <g id="patch_6">
    <path d="M 57.71375 23.84 
L 1062.11375 23.84 
" style="fill: none; stroke: #000000; stroke-width: 0.8; stroke-linejoin: miter; stroke-linecap: square"/>
   </g>
   <g id="text_9">
    <!-- Confronto degli errori di calcolo di $\pi$ su matrice Q densa -->
    <g transform="translate(363.70375 17.84) scale(0.14 -0.14)">
     <defs>
      <path id="DejaVuSans-43" d="M 4122 4306 
L 4122 3641 
Q 3803 3938 3442 4084 
Q 3081 4231 2675 4231 
Q 1875 4231 1450 3742 
Q 1025 3253 1025 2328 
Q 1025 1406 1450 917 
Q 1875 428 2675 428 
Q 3081 428 3442 575 
Q 3803 722 4122 1019 
L 4122 359 
Q 3791 134 3420 21 
Q 3050 -91 2638 -91 
Q 1578 -91 968 557 
Q 359 1206 359 2328 
Q 359 3453 968 4101 
Q 1578 4750 2638 4750 
Q 3056 4750 3426 4639 
Q 3797 4528 4122 4306 
z
" transform="scale(0.015625)"/>
      <path id="DejaVuSans-66" d="M 2375 4863 
L 2375 4384 
L 1825 4384 
Q 1516 4384 1395 4259 
Q 1275 4134 1275 3809 
L 1275 3500 
L 2222 3500 
L 2222 3053 
L 1275 3053 
L 1275 0 
L 697 0 
L 697 3053 
L 147 3053 
L 147 3500 
L 697 3500 
L 697 3744 
Q 697 4328 969 4595 
Q 1241 4863 1831 4863 
L 2375 4863 
z
" transform="scale(0.015625)"/>
      <path id="DejaVuSans-64" d="M 2906 2969 
L 2906 4863 
L 3481 4863 
L 3481 0 
L 2906 0 
L 2906 525 
Q 2725 213 2448 61 
Q 2172 -91 1784 -91 
Q 1150 -91 751 415 
Q 353 922 353 1747 
Q 353 2572 751 3078 
Q 1150 3584 1784 3584 
Q 2172 3584 2448 3432 
Q 2725 3281 2906 2969 
z
M 947 1747 
Q 947 1113 1208 752 
Q 1469 391 1925 391 
Q 2381 391 2643 752 
Q 2906 1113 2906 1747 
Q 2906 2381 2643 2742 
Q 2381 3103 1925 3103 
Q 1469 3103 1208 2742 
Q 947 2381 947 1747 
z
" transform="scale(0.015625)"/>
      <path id="DejaVuSans-67" d="M 2906 1791 
Q 2906 2416 2648 2759 
Q 2391 3103 1925 3103 
Q 1463 3103 1205 2759 
Q 947 2416 947 1791 
Q 947 1169 1205 825 
Q 1463 481 1925 481 
Q 2391 481 2648 825 
Q 2906 1169 2906 1791 
z
M 3481 434 
Q 3481 -459 3084 -895 
Q 2688 -1331 1869 -1331 
Q 1566 -1331 1297 -1286 
Q 1028 -1241 775 -1147 
L 775 -588 
Q 1028 -725 1275 -790 
Q 1522 -856 1778 -856 
Q 2344 -856 2625 -561 
Q 2906 -266 2906 331 
L 2906 616 
Q 2728 306 2450 153 
Q 2172 0 1784 0 
Q 1141 0 747 490 
Q 353 981 353 1791 
Q 353 2603 747 3093 
Q 1141 3584 1784 3584 
Q 2172 3584 2450 3431 
Q 2728 3278 2906 2969 
L 2906 3500 
L 3481 3500 
L 3481 434 
z
" transform="scale(0.015625)"/>
      <path id="DejaVuSans-6c" d="M 603 4863 
L 1178 4863 
L 1178 0 
L 603 0 
L 603 4863 
z
" transform="scale(0.015625)"/>
      <path id="DejaVuSans-Oblique-3c0" d="M 584 3500 
L 3938 3500 
L 3825 2925 
L 3384 2925 
L 2966 775 
Q 2922 550 2981 450 
Q 3038 353 3209 353 
Q 3256 353 3325 363 
Q 3397 369 3419 372 
L 3338 -44 
Q 3222 -84 3103 -103 
Q 2981 -122 2866 -122 
Q 2491 -122 2388 81 
Q 2284 288 2391 838 
L 2797 2925 
L 1506 2925 
L 938 0 
L 350 0 
L 919 2925 
L 472 2925 
L 584 3500 
z
" transform="scale(0.015625)"/>
      <path id="DejaVuSans-75" d="M 544 1381 
L 544 3500 
L 1119 3500 
L 1119 1403 
Q 1119 906 1312 657 
Q 1506 409 1894 409 
Q 2359 409 2629 706 
Q 2900 1003 2900 1516 
L 2900 3500 
L 3475 3500 
L 3475 0 
L 2900 0 
L 2900 538 
Q 2691 219 2414 64 
Q 2138 -91 1772 -91 
Q 1169 -91 856 284 
Q 544 659 544 1381 
z
M 1991 3584 
L 1991 3584 
z
" transform="scale(0.015625)"/>
      <path id="DejaVuSans-51" d="M 2522 4238 
Q 1834 4238 1429 3725 
Q 1025 3213 1025 2328 
Q 1025 1447 1429 934 
Q 1834 422 2522 422 
Q 3209 422 3611 934 
Q 4013 1447 4013 2328 
Q 4013 3213 3611 3725 
Q 3209 4238 2522 4238 
z
M 3406 84 
L 4238 -825 
L 3475 -825 
L 2784 -78 
Q 2681 -84 2626 -87 
Q 2572 -91 2522 -91 
Q 1538 -91 948 567 
Q 359 1225 359 2328 
Q 359 3434 948 4092 
Q 1538 4750 2522 4750 
Q 3503 4750 4090 4092 
Q 4678 3434 4678 2328 
Q 4678 1516 4351 937 
Q 4025 359 3406 84 
z
" transform="scale(0.015625)"/>
     </defs>
     <use xlink:href="#DejaVuSans-43" transform="translate(0 0.015625)"/>
     <use xlink:href="#DejaVuSans-6f" transform="translate(69.824219 0.015625)"/>
     <use xlink:href="#DejaVuSans-6e" transform="translate(131.005859 0.015625)"/>
     <use xlink:href="#DejaVuSans-66" transform="translate(194.384766 0.015625)"/>
     <use xlink:href="#DejaVuSans-72" transform="translate(229.589844 0.015625)"/>
     <use xlink:href="#DejaVuSans-6f" transform="translate(270.703125 0.015625)"/>
     <use xlink:href="#DejaVuSans-6e" transform="translate(331.884766 0.015625)"/>
     <use xlink:href="#DejaVuSans-74" transform="translate(395.263672 0.015625)"/>
     <use xlink:href="#DejaVuSans-6f" transform="translate(434.472656 0.015625)"/>
     <use xlink:href="#DejaVuSans-20" transform="translate(495.654297 0.015625)"/>
     <use xlink:href="#DejaVuSans-64" transform="translate(527.441406 0.015625)"/>
     <use xlink:href="#DejaVuSans-65" transform="translate(590.917969 0.015625)"/>
     <use xlink:href="#DejaVuSans-67" transform="translate(652.441406 0.015625)"/>
     <use xlink:href="#DejaVuSans-6c" transform="translate(715.917969 0.015625)"/>
     <use xlink:href="#DejaVuSans-69" transform="translate(743.701172 0.015625)"/>
     <use xlink:href="#DejaVuSans-20" transform="translate(771.484375 0.015625)"/>
     <use xlink:href="#DejaVuSans-65" transform="translate(803.271484 0.015625)"/>
     <use xlink:href="#DejaVuSans-72" transform="translate(864.794922 0.015625)"/>
     <use xlink:href="#DejaVuSans-72" transform="translate(905.908203 0.015625)"/>
     <use xlink:href="#DejaVuSans-6f" transform="translate(947.021484 0.015625)"/>
     <use xlink:href="#DejaVuSans-72" transform="translate(1008.203125 0.015625)"/>
     <use xlink:href="#DejaVuSans-69" transform="translate(1049.316406 0.015625)"/>
     <use xlink:href="#DejaVuSans-20" transform="translate(1077.099609 0.015625)"/>
     <use xlink:href="#DejaVuSans-64" transform="translate(1108.886719 0.015625)"/>
     <use xlink:href="#DejaVuSans-69" transform="translate(1172.363281 0.015625)"/>
     <use xlink:href="#DejaVuSans-20" transform="translate(1200.146484 0.015625)"/>
     <use xlink:href="#DejaVuSans-63" transform="translate(1231.933594 0.015625)"/>
     <use xlink:href="#DejaVuSans-61" transform="translate(1286.914062 0.015625)"/>
     <use xlink:href="#DejaVuSans-6c" transform="translate(1348.193359 0.015625)"/>
     <use xlink:href="#DejaVuSans-63" transform="translate(1375.976562 0.015625)"/>
     <use xlink:href="#DejaVuSans-6f" transform="translate(1430.957031 0.015625)"/>
     <use xlink:href="#DejaVuSans-6c" transform="translate(1492.138672 0.015625)"/>
     <use xlink:href="#DejaVuSans-6f" transform="translate(1519.921875 0.015625)"/>
     <use xlink:href="#DejaVuSans-20" transform="translate(1581.103516 0.015625)"/>
     <use xlink:href="#DejaVuSans-64" transform="translate(1612.890625 0.015625)"/>
     <use xlink:href="#DejaVuSans-69" transform="translate(1676.367188 0.015625)"/>
     <use xlink:href="#DejaVuSans-20" transform="translate(1704.150391 0.015625)"/>
     <use xlink:href="#DejaVuSans-Oblique-3c0" transform="translate(1735.9375 0.015625)"/>
     <use xlink:href="#DejaVuSans-20" transform="translate(1796.142578 0.015625)"/>
     <use xlink:href="#DejaVuSans-73" transform="translate(1827.929688 0.015625)"/>
     <use xlink:href="#DejaVuSans-75" transform="translate(1880.029297 0.015625)"/>
     <use xlink:href="#DejaVuSans-20" transform="translate(1943.408203 0.015625)"/>
     <use xlink:href="#DejaVuSans-6d" transform="translate(1975.195312 0.015625)"/>
     <use xlink:href="#DejaVuSans-61" transform="translate(2072.607422 0.015625)"/>
     <use xlink:href="#DejaVuSans-74" transform="translate(2133.886719 0.015625)"/>
     <use xlink:href="#DejaVuSans-72" transform="translate(2173.095703 0.015625)"/>
     <use xlink:href="#DejaVuSans-69" transform="translate(2214.208984 0.015625)"/>
     <use xlink:href="#DejaVuSans-63" transform="translate(2241.992188 0.015625)"/>
     <use xlink:href="#DejaVuSans-65" transform="translate(2296.972656 0.015625)"/>
     <use xlink:href="#DejaVuSans-20" transform="translate(2358.496094 0.015625)"/>
     <use xlink:href="#DejaVuSans-51" transform="translate(2390.283203 0.015625)"/>
     <use xlink:href="#DejaVuSans-20" transform="translate(2468.994141 0.015625)"/>
     <use xlink:href="#DejaVuSans-64" transform="translate(2500.78125 0.015625)"/>
     <use xlink:href="#DejaVuSans-65" transform="translate(2564.257812 0.015625)"/>
     <use xlink:href="#DejaVuSans-6e" transform="translate(2625.78125 0.015625)"/>
     <use xlink:href="#DejaVuSans-73" transform="translate(2689.160156 0.015625)"/>
     <use xlink:href="#DejaVuSans-61" transform="translate(2741.259766 0.015625)"/>
    </g>
   </g>
   <g id="legend_1">
    <g id="patch_7">
     <path d="M 66.81375 169.980313 
L 206.998437 169.980313 
Q 209.598437 169.980313 209.598437 167.380313 
L 209.598437 32.94 
Q 209.598437 30.34 206.998437 30.34 
L 66.81375 30.34 
Q 64.21375 30.34 64.21375 32.94 
L 64.21375 167.380313 
Q 64.21375 169.980313 66.81375 169.980313 
z
" style="fill: #ffffff; opacity: 0.8; stroke: #cccccc; stroke-linejoin: miter"/>
    </g>
    <g id="line2d_63">
     <path d="M 69.41375 40.867969 
L 82.41375 40.867969 
L 95.41375 40.867969 
" style="fill: none; stroke: #1f77b4; stroke-width: 1.5; stroke-linecap: square"/>
     <g>
      <use xlink:href="#m8d8a6903ec" x="82.41375" y="40.867969" style="fill: #1f77b4; stroke: #1f77b4"/>
     </g>
    </g>
    <g id="text_10">
     <!-- gth -->
     <g transform="translate(105.81375 45.417969) scale(0.13 -0.13)">
      <defs>
       <path id="DejaVuSans-68" d="M 3513 2113 
L 3513 0 
L 2938 0 
L 2938 2094 
Q 2938 2591 2744 2837 
Q 2550 3084 2163 3084 
Q 1697 3084 1428 2787 
Q 1159 2491 1159 1978 
L 1159 0 
L 581 0 
L 581 4863 
L 1159 4863 
L 1159 2956 
Q 1366 3272 1645 3428 
Q 1925 3584 2291 3584 
Q 2894 3584 3203 3211 
Q 3513 2838 3513 2113 
z
" transform="scale(0.015625)"/>
      </defs>
      <use xlink:href="#DejaVuSans-67"/>
      <use xlink:href="#DejaVuSans-74" x="63.476562"/>
      <use xlink:href="#DejaVuSans-68" x="102.685547"/>
     </g>
    </g>
    <g id="line2d_64">
     <path d="M 69.41375 59.949531 
L 82.41375 59.949531 
L 95.41375 59.949531 
" style="fill: none; stroke: #ff7f0e; stroke-width: 1.5; stroke-linecap: square"/>
     <g>
      <use xlink:href="#m00ed4a6082" x="82.41375" y="59.949531" style="fill: #ff7f0e; stroke: #ff7f0e"/>
     </g>
    </g>
    <g id="text_11">
     <!-- system_scipy -->
     <g transform="translate(105.81375 64.499531) scale(0.13 -0.13)">
      <defs>
       <path id="DejaVuSans-79" d="M 2059 -325 
Q 1816 -950 1584 -1140 
Q 1353 -1331 966 -1331 
L 506 -1331 
L 506 -850 
L 844 -850 
Q 1081 -850 1212 -737 
Q 1344 -625 1503 -206 
L 1606 56 
L 191 3500 
L 800 3500 
L 1894 763 
L 2988 3500 
L 3597 3500 
L 2059 -325 
z
" transform="scale(0.015625)"/>
       <path id="DejaVuSans-5f" d="M 3263 -1063 
L 3263 -1509 
L -63 -1509 
L -63 -1063 
L 3263 -1063 
z
" transform="scale(0.015625)"/>
       <path id="DejaVuSans-70" d="M 1159 525 
L 1159 -1331 
L 581 -1331 
L 581 3500 
L 1159 3500 
L 1159 2969 
Q 1341 3281 1617 3432 
Q 1894 3584 2278 3584 
Q 2916 3584 3314 3078 
Q 3713 2572 3713 1747 
Q 3713 922 3314 415 
Q 2916 -91 2278 -91 
Q 1894 -91 1617 61 
Q 1341 213 1159 525 
z
M 3116 1747 
Q 3116 2381 2855 2742 
Q 2594 3103 2138 3103 
Q 1681 3103 1420 2742 
Q 1159 2381 1159 1747 
Q 1159 1113 1420 752 
Q 1681 391 2138 391 
Q 2594 391 2855 752 
Q 3116 1113 3116 1747 
z
" transform="scale(0.015625)"/>
      </defs>
      <use xlink:href="#DejaVuSans-73"/>
      <use xlink:href="#DejaVuSans-79" x="52.099609"/>
      <use xlink:href="#DejaVuSans-73" x="111.279297"/>
      <use xlink:href="#DejaVuSans-74" x="163.378906"/>
      <use xlink:href="#DejaVuSans-65" x="202.587891"/>
      <use xlink:href="#DejaVuSans-6d" x="264.111328"/>
      <use xlink:href="#DejaVuSans-5f" x="361.523438"/>
      <use xlink:href="#DejaVuSans-73" x="411.523438"/>
      <use xlink:href="#DejaVuSans-63" x="463.623047"/>
      <use xlink:href="#DejaVuSans-69" x="518.603516"/>
      <use xlink:href="#DejaVuSans-70" x="546.386719"/>
      <use xlink:href="#DejaVuSans-79" x="609.863281"/>
     </g>
    </g>
    <g id="line2d_65">
     <path d="M 69.41375 79.392656 
L 82.41375 79.392656 
L 95.41375 79.392656 
" style="fill: none; stroke: #2ca02c; stroke-width: 1.5; stroke-linecap: square"/>
     <g>
      <use xlink:href="#ma80613ce83" x="82.41375" y="79.392656" style="fill: #2ca02c; stroke: #2ca02c"/>
     </g>
    </g>
    <g id="text_12">
     <!-- system_numpy -->
     <g transform="translate(105.81375 83.942656) scale(0.13 -0.13)">
      <use xlink:href="#DejaVuSans-73"/>
      <use xlink:href="#DejaVuSans-79" x="52.099609"/>
      <use xlink:href="#DejaVuSans-73" x="111.279297"/>
      <use xlink:href="#DejaVuSans-74" x="163.378906"/>
      <use xlink:href="#DejaVuSans-65" x="202.587891"/>
      <use xlink:href="#DejaVuSans-6d" x="264.111328"/>
      <use xlink:href="#DejaVuSans-5f" x="361.523438"/>
      <use xlink:href="#DejaVuSans-6e" x="411.523438"/>
      <use xlink:href="#DejaVuSans-75" x="474.902344"/>
      <use xlink:href="#DejaVuSans-6d" x="538.28125"/>
      <use xlink:href="#DejaVuSans-70" x="635.693359"/>
      <use xlink:href="#DejaVuSans-79" x="699.169922"/>
     </g>
    </g>
    <g id="line2d_66">
     <path d="M 69.41375 98.835781 
L 82.41375 98.835781 
L 95.41375 98.835781 
" style="fill: none; stroke: #d62728; stroke-width: 1.5; stroke-linecap: square"/>
     <g>
      <use xlink:href="#m926141b88d" x="82.41375" y="98.835781" style="fill: #d62728; stroke: #d62728"/>
     </g>
    </g>
    <g id="text_13">
     <!-- eig_numpy -->
     <g transform="translate(105.81375 103.385781) scale(0.13 -0.13)">
      <use xlink:href="#DejaVuSans-65"/>
      <use xlink:href="#DejaVuSans-69" x="61.523438"/>
      <use xlink:href="#DejaVuSans-67" x="89.306641"/>
      <use xlink:href="#DejaVuSans-5f" x="152.783203"/>
      <use xlink:href="#DejaVuSans-6e" x="202.783203"/>
      <use xlink:href="#DejaVuSans-75" x="266.162109"/>
      <use xlink:href="#DejaVuSans-6d" x="329.541016"/>
      <use xlink:href="#DejaVuSans-70" x="426.953125"/>
      <use xlink:href="#DejaVuSans-79" x="490.429688"/>
     </g>
    </g>
    <g id="line2d_67">
     <path d="M 69.41375 118.278906 
L 82.41375 118.278906 
L 95.41375 118.278906 
" style="fill: none; stroke: #9467bd; stroke-width: 1.5; stroke-linecap: square"/>
     <g>
      <use xlink:href="#m95adb3af0f" x="82.41375" y="118.278906" style="fill: #9467bd; stroke: #9467bd"/>
     </g>
    </g>
    <g id="text_14">
     <!-- eig_scipy -->
     <g transform="translate(105.81375 122.828906) scale(0.13 -0.13)">
      <use xlink:href="#DejaVuSans-65"/>
      <use xlink:href="#DejaVuSans-69" x="61.523438"/>
      <use xlink:href="#DejaVuSans-67" x="89.306641"/>
      <use xlink:href="#DejaVuSans-5f" x="152.783203"/>
      <use xlink:href="#DejaVuSans-73" x="202.783203"/>
      <use xlink:href="#DejaVuSans-63" x="254.882812"/>
      <use xlink:href="#DejaVuSans-69" x="309.863281"/>
      <use xlink:href="#DejaVuSans-70" x="337.646484"/>
      <use xlink:href="#DejaVuSans-79" x="401.123047"/>
     </g>
    </g>
    <g id="line2d_68">
     <path d="M 69.41375 137.722031 
L 82.41375 137.722031 
L 95.41375 137.722031 
" style="fill: none; stroke: #8c564b; stroke-width: 1.5; stroke-linecap: square"/>
     <g>
      <use xlink:href="#ma75415d41d" x="82.41375" y="137.722031" style="fill: #8c564b; stroke: #8c564b"/>
     </g>
    </g>
    <g id="text_15">
     <!-- power_numpy -->
     <g transform="translate(105.81375 142.272031) scale(0.13 -0.13)">
      <defs>
       <path id="DejaVuSans-77" d="M 269 3500 
L 844 3500 
L 1563 769 
L 2278 3500 
L 2956 3500 
L 3675 769 
L 4391 3500 
L 4966 3500 
L 4050 0 
L 3372 0 
L 2619 2869 
L 1863 0 
L 1184 0 
L 269 3500 
z
" transform="scale(0.015625)"/>
      </defs>
      <use xlink:href="#DejaVuSans-70"/>
      <use xlink:href="#DejaVuSans-6f" x="63.476562"/>
      <use xlink:href="#DejaVuSans-77" x="124.658203"/>
      <use xlink:href="#DejaVuSans-65" x="206.445312"/>
      <use xlink:href="#DejaVuSans-72" x="267.96875"/>
      <use xlink:href="#DejaVuSans-5f" x="309.082031"/>
      <use xlink:href="#DejaVuSans-6e" x="359.082031"/>
      <use xlink:href="#DejaVuSans-75" x="422.460938"/>
      <use xlink:href="#DejaVuSans-6d" x="485.839844"/>
      <use xlink:href="#DejaVuSans-70" x="583.251953"/>
      <use xlink:href="#DejaVuSans-79" x="646.728516"/>
     </g>
    </g>
    <g id="line2d_69">
     <path d="M 69.41375 157.165156 
L 82.41375 157.165156 
L 95.41375 157.165156 
" style="fill: none; stroke: #e377c2; stroke-width: 1.5; stroke-linecap: square"/>
     <g>
      <use xlink:href="#m568e36c07c" x="82.41375" y="157.165156" style="fill: #e377c2; stroke: #e377c2"/>
     </g>
    </g>
    <g id="text_16">
     <!-- power_scipy -->
     <g transform="translate(105.81375 161.715156) scale(0.13 -0.13)">
      <use xlink:href="#DejaVuSans-70"/>
      <use xlink:href="#DejaVuSans-6f" x="63.476562"/>
      <use xlink:href="#DejaVuSans-77" x="124.658203"/>
      <use xlink:href="#DejaVuSans-65" x="206.445312"/>
      <use xlink:href="#DejaVuSans-72" x="267.96875"/>
      <use xlink:href="#DejaVuSans-5f" x="309.082031"/>
      <use xlink:href="#DejaVuSans-73" x="359.082031"/>
      <use xlink:href="#DejaVuSans-63" x="411.181641"/>
      <use xlink:href="#DejaVuSans-69" x="466.162109"/>
      <use xlink:href="#DejaVuSans-70" x="493.945312"/>
      <use xlink:href="#DejaVuSans-79" x="557.421875"/>
     </g>
    </g>
   </g>
  </g>
 </g>
 <defs>
  <clipPath id="pa33bbb641f">
   <rect x="57.71375" y="23.84" width="1004.4" height="554.4"/>
  </clipPath>
 </defs>
</svg>
