<?xml version="1.0" encoding="utf-8" standalone="no"?>
<!DOCTYPE svg PUBLIC "-//W3C//DTD SVG 1.1//EN"
  "http://www.w3.org/Graphics/SVG/1.1/DTD/svg11.dtd">
<svg xmlns:xlink="http://www.w3.org/1999/xlink" width="1069.31375pt" height="617.731875pt" viewBox="0 0 1069.31375 617.731875" xmlns="http://www.w3.org/2000/svg" version="1.1">
 <metadata>
  <rdf:RDF xmlns:dc="http://purl.org/dc/elements/1.1/" xmlns:cc="http://creativecommons.org/ns#" xmlns:rdf="http://www.w3.org/1999/02/22-rdf-syntax-ns#">
   <cc:Work>
    <dc:type rdf:resource="http://purl.org/dc/dcmitype/StillImage"/>
    <dc:date>2025-06-18T18:06:05.861127</dc:date>
    <dc:format>image/svg+xml</dc:format>
    <dc:creator>
     <cc:Agent>
      <dc:title>Matplotlib v3.7.3, https://matplotlib.org/</dc:title>
     </cc:Agent>
    </dc:creator>
   </cc:Work>
  </rdf:RDF>
 </metadata>
 <defs>
  <style type="text/css">*{stroke-linejoin: round; stroke-linecap: butt}</style>
 </defs>
 <g id="figure_1">
  <g id="patch_1">
   <path d="M 0 617.731875 
L 1069.31375 617.731875 
L 1069.31375 0 
L 0 0 
z
" style="fill: #ffffff"/>
  </g>
  <g id="axes_1">
   <g id="patch_2">
    <path d="M 57.71375 578.24 
L 1062.11375 578.24 
L 1062.11375 23.84 
L 57.71375 23.84 
z
" style="fill: #ffffff"/>
   </g>
   <g id="matplotlib.axis_1">
    <g id="xtick_1">
     <g id="line2d_1">
      <path d="M 103.368295 578.24 
L 103.368295 23.84 
" clip-path="url(#pa4c1f3d205)" style="fill: none; stroke: #b0b0b0; stroke-width: 0.5; stroke-linecap: square"/>
     </g>
     <g id="line2d_2">
      <defs>
       <path id="m475bbbd4fe" d="M 0 0 
L 0 3.5 
" style="stroke: #000000; stroke-width: 0.8"/>
      </defs>
      <g>
       <use xlink:href="#m475bbbd4fe" x="103.368295" y="578.24" style="stroke: #000000; stroke-width: 0.8"/>
      </g>
     </g>
     <g id="text_1">
      <!-- $\mathdefault{10^{1}}$ -->
      <g transform="translate(94.568295 592.838438) scale(0.1 -0.1)">
       <defs>
        <path id="DejaVuSans-31" d="M 794 531 
L 1825 531 
L 1825 4091 
L 703 3866 
L 703 4441 
L 1819 4666 
L 2450 4666 
L 2450 531 
L 3481 531 
L 3481 0 
L 794 0 
L 794 531 
z
" transform="scale(0.015625)"/>
        <path id="DejaVuSans-30" d="M 2034 4250 
Q 1547 4250 1301 3770 
Q 1056 3291 1056 2328 
Q 1056 1369 1301 889 
Q 1547 409 2034 409 
Q 2525 409 2770 889 
Q 3016 1369 3016 2328 
Q 3016 3291 2770 3770 
Q 2525 4250 2034 4250 
z
M 2034 4750 
Q 2819 4750 3233 4129 
Q 3647 3509 3647 2328 
Q 3647 1150 3233 529 
Q 2819 -91 2034 -91 
Q 1250 -91 836 529 
Q 422 1150 422 2328 
Q 422 3509 836 4129 
Q 1250 4750 2034 4750 
z
" transform="scale(0.015625)"/>
       </defs>
       <use xlink:href="#DejaVuSans-31" transform="translate(0 0.684375)"/>
       <use xlink:href="#DejaVuSans-30" transform="translate(63.623047 0.684375)"/>
       <use xlink:href="#DejaVuSans-31" transform="translate(128.203125 38.965625) scale(0.7)"/>
      </g>
     </g>
    </g>
    <g id="xtick_2">
     <g id="line2d_3">
      <path d="M 560.012959 578.24 
L 560.012959 23.84 
" clip-path="url(#pa4c1f3d205)" style="fill: none; stroke: #b0b0b0; stroke-width: 0.5; stroke-linecap: square"/>
     </g>
     <g id="line2d_4">
      <g>
       <use xlink:href="#m475bbbd4fe" x="560.012959" y="578.24" style="stroke: #000000; stroke-width: 0.8"/>
      </g>
     </g>
     <g id="text_2">
      <!-- $\mathdefault{10^{2}}$ -->
      <g transform="translate(551.212959 592.838438) scale(0.1 -0.1)">
       <defs>
        <path id="DejaVuSans-32" d="M 1228 531 
L 3431 531 
L 3431 0 
L 469 0 
L 469 531 
Q 828 903 1448 1529 
Q 2069 2156 2228 2338 
Q 2531 2678 2651 2914 
Q 2772 3150 2772 3378 
Q 2772 3750 2511 3984 
Q 2250 4219 1831 4219 
Q 1534 4219 1204 4116 
Q 875 4013 500 3803 
L 500 4441 
Q 881 4594 1212 4672 
Q 1544 4750 1819 4750 
Q 2544 4750 2975 4387 
Q 3406 4025 3406 3419 
Q 3406 3131 3298 2873 
Q 3191 2616 2906 2266 
Q 2828 2175 2409 1742 
Q 1991 1309 1228 531 
z
" transform="scale(0.015625)"/>
       </defs>
       <use xlink:href="#DejaVuSans-31" transform="translate(0 0.765625)"/>
       <use xlink:href="#DejaVuSans-30" transform="translate(63.623047 0.765625)"/>
       <use xlink:href="#DejaVuSans-32" transform="translate(128.203125 39.046875) scale(0.7)"/>
      </g>
     </g>
    </g>
    <g id="xtick_3">
     <g id="line2d_5">
      <path d="M 1016.657622 578.24 
L 1016.657622 23.84 
" clip-path="url(#pa4c1f3d205)" style="fill: none; stroke: #b0b0b0; stroke-width: 0.5; stroke-linecap: square"/>
     </g>
     <g id="line2d_6">
      <g>
       <use xlink:href="#m475bbbd4fe" x="1016.657622" y="578.24" style="stroke: #000000; stroke-width: 0.8"/>
      </g>
     </g>
     <g id="text_3">
      <!-- $\mathdefault{10^{3}}$ -->
      <g transform="translate(1007.857622 592.838438) scale(0.1 -0.1)">
       <defs>
        <path id="DejaVuSans-33" d="M 2597 2516 
Q 3050 2419 3304 2112 
Q 3559 1806 3559 1356 
Q 3559 666 3084 287 
Q 2609 -91 1734 -91 
Q 1441 -91 1130 -33 
Q 819 25 488 141 
L 488 750 
Q 750 597 1062 519 
Q 1375 441 1716 441 
Q 2309 441 2620 675 
Q 2931 909 2931 1356 
Q 2931 1769 2642 2001 
Q 2353 2234 1838 2234 
L 1294 2234 
L 1294 2753 
L 1863 2753 
Q 2328 2753 2575 2939 
Q 2822 3125 2822 3475 
Q 2822 3834 2567 4026 
Q 2313 4219 1838 4219 
Q 1578 4219 1281 4162 
Q 984 4106 628 3988 
L 628 4550 
Q 988 4650 1302 4700 
Q 1616 4750 1894 4750 
Q 2613 4750 3031 4423 
Q 3450 4097 3450 3541 
Q 3450 3153 3228 2886 
Q 3006 2619 2597 2516 
z
" transform="scale(0.015625)"/>
       </defs>
       <use xlink:href="#DejaVuSans-31" transform="translate(0 0.765625)"/>
       <use xlink:href="#DejaVuSans-30" transform="translate(63.623047 0.765625)"/>
       <use xlink:href="#DejaVuSans-33" transform="translate(128.203125 39.046875) scale(0.7)"/>
      </g>
     </g>
    </g>
    <g id="xtick_4">
     <g id="line2d_7">
      <defs>
       <path id="mc1c2a5a885" d="M 0 0 
L 0 2 
" style="stroke: #000000; stroke-width: 0.6"/>
      </defs>
      <g>
       <use xlink:href="#mc1c2a5a885" x="59.114855" y="578.24" style="stroke: #000000; stroke-width: 0.6"/>
      </g>
     </g>
    </g>
    <g id="xtick_5">
     <g id="line2d_8">
      <g>
       <use xlink:href="#mc1c2a5a885" x="82.473382" y="578.24" style="stroke: #000000; stroke-width: 0.6"/>
      </g>
     </g>
    </g>
    <g id="xtick_6">
     <g id="line2d_9">
      <g>
       <use xlink:href="#mc1c2a5a885" x="240.832036" y="578.24" style="stroke: #000000; stroke-width: 0.6"/>
      </g>
     </g>
    </g>
    <g id="xtick_7">
     <g id="line2d_10">
      <g>
       <use xlink:href="#mc1c2a5a885" x="321.24317" y="578.24" style="stroke: #000000; stroke-width: 0.6"/>
      </g>
     </g>
    </g>
    <g id="xtick_8">
     <g id="line2d_11">
      <g>
       <use xlink:href="#mc1c2a5a885" x="378.295777" y="578.24" style="stroke: #000000; stroke-width: 0.6"/>
      </g>
     </g>
    </g>
    <g id="xtick_9">
     <g id="line2d_12">
      <g>
       <use xlink:href="#mc1c2a5a885" x="422.549218" y="578.24" style="stroke: #000000; stroke-width: 0.6"/>
      </g>
     </g>
    </g>
    <g id="xtick_10">
     <g id="line2d_13">
      <g>
       <use xlink:href="#mc1c2a5a885" x="458.706911" y="578.24" style="stroke: #000000; stroke-width: 0.6"/>
      </g>
     </g>
    </g>
    <g id="xtick_11">
     <g id="line2d_14">
      <g>
       <use xlink:href="#mc1c2a5a885" x="489.277805" y="578.24" style="stroke: #000000; stroke-width: 0.6"/>
      </g>
     </g>
    </g>
    <g id="xtick_12">
     <g id="line2d_15">
      <g>
       <use xlink:href="#mc1c2a5a885" x="515.759518" y="578.24" style="stroke: #000000; stroke-width: 0.6"/>
      </g>
     </g>
    </g>
    <g id="xtick_13">
     <g id="line2d_16">
      <g>
       <use xlink:href="#mc1c2a5a885" x="539.118045" y="578.24" style="stroke: #000000; stroke-width: 0.6"/>
      </g>
     </g>
    </g>
    <g id="xtick_14">
     <g id="line2d_17">
      <g>
       <use xlink:href="#mc1c2a5a885" x="697.4767" y="578.24" style="stroke: #000000; stroke-width: 0.6"/>
      </g>
     </g>
    </g>
    <g id="xtick_15">
     <g id="line2d_18">
      <g>
       <use xlink:href="#mc1c2a5a885" x="777.887833" y="578.24" style="stroke: #000000; stroke-width: 0.6"/>
      </g>
     </g>
    </g>
    <g id="xtick_16">
     <g id="line2d_19">
      <g>
       <use xlink:href="#mc1c2a5a885" x="834.940441" y="578.24" style="stroke: #000000; stroke-width: 0.6"/>
      </g>
     </g>
    </g>
    <g id="xtick_17">
     <g id="line2d_20">
      <g>
       <use xlink:href="#mc1c2a5a885" x="879.193881" y="578.24" style="stroke: #000000; stroke-width: 0.6"/>
      </g>
     </g>
    </g>
    <g id="xtick_18">
     <g id="line2d_21">
      <g>
       <use xlink:href="#mc1c2a5a885" x="915.351574" y="578.24" style="stroke: #000000; stroke-width: 0.6"/>
      </g>
     </g>
    </g>
    <g id="xtick_19">
     <g id="line2d_22">
      <g>
       <use xlink:href="#mc1c2a5a885" x="945.922469" y="578.24" style="stroke: #000000; stroke-width: 0.6"/>
      </g>
     </g>
    </g>
    <g id="xtick_20">
     <g id="line2d_23">
      <g>
       <use xlink:href="#mc1c2a5a885" x="972.404182" y="578.24" style="stroke: #000000; stroke-width: 0.6"/>
      </g>
     </g>
    </g>
    <g id="xtick_21">
     <g id="line2d_24">
      <g>
       <use xlink:href="#mc1c2a5a885" x="995.762708" y="578.24" style="stroke: #000000; stroke-width: 0.6"/>
      </g>
     </g>
    </g>
    <g id="text_4">
     <!-- Dimensione matrice $n$ -->
     <g transform="translate(493.67375 608.03625) scale(0.12 -0.12)">
      <defs>
       <path id="DejaVuSans-44" d="M 1259 4147 
L 1259 519 
L 2022 519 
Q 2988 519 3436 956 
Q 3884 1394 3884 2338 
Q 3884 3275 3436 3711 
Q 2988 4147 2022 4147 
L 1259 4147 
z
M 628 4666 
L 1925 4666 
Q 3281 4666 3915 4102 
Q 4550 3538 4550 2338 
Q 4550 1131 3912 565 
Q 3275 0 1925 0 
L 628 0 
L 628 4666 
z
" transform="scale(0.015625)"/>
       <path id="DejaVuSans-69" d="M 603 3500 
L 1178 3500 
L 1178 0 
L 603 0 
L 603 3500 
z
M 603 4863 
L 1178 4863 
L 1178 4134 
L 603 4134 
L 603 4863 
z
" transform="scale(0.015625)"/>
       <path id="DejaVuSans-6d" d="M 3328 2828 
Q 3544 3216 3844 3400 
Q 4144 3584 4550 3584 
Q 5097 3584 5394 3201 
Q 5691 2819 5691 2113 
L 5691 0 
L 5113 0 
L 5113 2094 
Q 5113 2597 4934 2840 
Q 4756 3084 4391 3084 
Q 3944 3084 3684 2787 
Q 3425 2491 3425 1978 
L 3425 0 
L 2847 0 
L 2847 2094 
Q 2847 2600 2669 2842 
Q 2491 3084 2119 3084 
Q 1678 3084 1418 2786 
Q 1159 2488 1159 1978 
L 1159 0 
L 581 0 
L 581 3500 
L 1159 3500 
L 1159 2956 
Q 1356 3278 1631 3431 
Q 1906 3584 2284 3584 
Q 2666 3584 2933 3390 
Q 3200 3197 3328 2828 
z
" transform="scale(0.015625)"/>
       <path id="DejaVuSans-65" d="M 3597 1894 
L 3597 1613 
L 953 1613 
Q 991 1019 1311 708 
Q 1631 397 2203 397 
Q 2534 397 2845 478 
Q 3156 559 3463 722 
L 3463 178 
Q 3153 47 2828 -22 
Q 2503 -91 2169 -91 
Q 1331 -91 842 396 
Q 353 884 353 1716 
Q 353 2575 817 3079 
Q 1281 3584 2069 3584 
Q 2775 3584 3186 3129 
Q 3597 2675 3597 1894 
z
M 3022 2063 
Q 3016 2534 2758 2815 
Q 2500 3097 2075 3097 
Q 1594 3097 1305 2825 
Q 1016 2553 972 2059 
L 3022 2063 
z
" transform="scale(0.015625)"/>
       <path id="DejaVuSans-6e" d="M 3513 2113 
L 3513 0 
L 2938 0 
L 2938 2094 
Q 2938 2591 2744 2837 
Q 2550 3084 2163 3084 
Q 1697 3084 1428 2787 
Q 1159 2491 1159 1978 
L 1159 0 
L 581 0 
L 581 3500 
L 1159 3500 
L 1159 2956 
Q 1366 3272 1645 3428 
Q 1925 3584 2291 3584 
Q 2894 3584 3203 3211 
Q 3513 2838 3513 2113 
z
" transform="scale(0.015625)"/>
       <path id="DejaVuSans-73" d="M 2834 3397 
L 2834 2853 
Q 2591 2978 2328 3040 
Q 2066 3103 1784 3103 
Q 1356 3103 1142 2972 
Q 928 2841 928 2578 
Q 928 2378 1081 2264 
Q 1234 2150 1697 2047 
L 1894 2003 
Q 2506 1872 2764 1633 
Q 3022 1394 3022 966 
Q 3022 478 2636 193 
Q 2250 -91 1575 -91 
Q 1294 -91 989 -36 
Q 684 19 347 128 
L 347 722 
Q 666 556 975 473 
Q 1284 391 1588 391 
Q 1994 391 2212 530 
Q 2431 669 2431 922 
Q 2431 1156 2273 1281 
Q 2116 1406 1581 1522 
L 1381 1569 
Q 847 1681 609 1914 
Q 372 2147 372 2553 
Q 372 3047 722 3315 
Q 1072 3584 1716 3584 
Q 2034 3584 2315 3537 
Q 2597 3491 2834 3397 
z
" transform="scale(0.015625)"/>
       <path id="DejaVuSans-6f" d="M 1959 3097 
Q 1497 3097 1228 2736 
Q 959 2375 959 1747 
Q 959 1119 1226 758 
Q 1494 397 1959 397 
Q 2419 397 2687 759 
Q 2956 1122 2956 1747 
Q 2956 2369 2687 2733 
Q 2419 3097 1959 3097 
z
M 1959 3584 
Q 2709 3584 3137 3096 
Q 3566 2609 3566 1747 
Q 3566 888 3137 398 
Q 2709 -91 1959 -91 
Q 1206 -91 779 398 
Q 353 888 353 1747 
Q 353 2609 779 3096 
Q 1206 3584 1959 3584 
z
" transform="scale(0.015625)"/>
       <path id="DejaVuSans-20" transform="scale(0.015625)"/>
       <path id="DejaVuSans-61" d="M 2194 1759 
Q 1497 1759 1228 1600 
Q 959 1441 959 1056 
Q 959 750 1161 570 
Q 1363 391 1709 391 
Q 2188 391 2477 730 
Q 2766 1069 2766 1631 
L 2766 1759 
L 2194 1759 
z
M 3341 1997 
L 3341 0 
L 2766 0 
L 2766 531 
Q 2569 213 2275 61 
Q 1981 -91 1556 -91 
Q 1019 -91 701 211 
Q 384 513 384 1019 
Q 384 1609 779 1909 
Q 1175 2209 1959 2209 
L 2766 2209 
L 2766 2266 
Q 2766 2663 2505 2880 
Q 2244 3097 1772 3097 
Q 1472 3097 1187 3025 
Q 903 2953 641 2809 
L 641 3341 
Q 956 3463 1253 3523 
Q 1550 3584 1831 3584 
Q 2591 3584 2966 3190 
Q 3341 2797 3341 1997 
z
" transform="scale(0.015625)"/>
       <path id="DejaVuSans-74" d="M 1172 4494 
L 1172 3500 
L 2356 3500 
L 2356 3053 
L 1172 3053 
L 1172 1153 
Q 1172 725 1289 603 
Q 1406 481 1766 481 
L 2356 481 
L 2356 0 
L 1766 0 
Q 1100 0 847 248 
Q 594 497 594 1153 
L 594 3053 
L 172 3053 
L 172 3500 
L 594 3500 
L 594 4494 
L 1172 4494 
z
" transform="scale(0.015625)"/>
       <path id="DejaVuSans-72" d="M 2631 2963 
Q 2534 3019 2420 3045 
Q 2306 3072 2169 3072 
Q 1681 3072 1420 2755 
Q 1159 2438 1159 1844 
L 1159 0 
L 581 0 
L 581 3500 
L 1159 3500 
L 1159 2956 
Q 1341 3275 1631 3429 
Q 1922 3584 2338 3584 
Q 2397 3584 2469 3576 
Q 2541 3569 2628 3553 
L 2631 2963 
z
" transform="scale(0.015625)"/>
       <path id="DejaVuSans-63" d="M 3122 3366 
L 3122 2828 
Q 2878 2963 2633 3030 
Q 2388 3097 2138 3097 
Q 1578 3097 1268 2742 
Q 959 2388 959 1747 
Q 959 1106 1268 751 
Q 1578 397 2138 397 
Q 2388 397 2633 464 
Q 2878 531 3122 666 
L 3122 134 
Q 2881 22 2623 -34 
Q 2366 -91 2075 -91 
Q 1284 -91 818 406 
Q 353 903 353 1747 
Q 353 2603 823 3093 
Q 1294 3584 2113 3584 
Q 2378 3584 2631 3529 
Q 2884 3475 3122 3366 
z
" transform="scale(0.015625)"/>
       <path id="DejaVuSans-Oblique-6e" d="M 3566 2113 
L 3156 0 
L 2578 0 
L 2988 2091 
Q 3016 2238 3031 2350 
Q 3047 2463 3047 2528 
Q 3047 2791 2881 2937 
Q 2716 3084 2419 3084 
Q 1956 3084 1622 2776 
Q 1288 2469 1184 1941 
L 800 0 
L 225 0 
L 903 3500 
L 1478 3500 
L 1363 2950 
Q 1603 3253 1940 3418 
Q 2278 3584 2650 3584 
Q 3113 3584 3367 3334 
Q 3622 3084 3622 2631 
Q 3622 2519 3608 2391 
Q 3594 2263 3566 2113 
z
" transform="scale(0.015625)"/>
      </defs>
      <use xlink:href="#DejaVuSans-44" transform="translate(0 0.015625)"/>
      <use xlink:href="#DejaVuSans-69" transform="translate(77.001953 0.015625)"/>
      <use xlink:href="#DejaVuSans-6d" transform="translate(104.785156 0.015625)"/>
      <use xlink:href="#DejaVuSans-65" transform="translate(202.197266 0.015625)"/>
      <use xlink:href="#DejaVuSans-6e" transform="translate(263.720703 0.015625)"/>
      <use xlink:href="#DejaVuSans-73" transform="translate(327.099609 0.015625)"/>
      <use xlink:href="#DejaVuSans-69" transform="translate(379.199219 0.015625)"/>
      <use xlink:href="#DejaVuSans-6f" transform="translate(406.982422 0.015625)"/>
      <use xlink:href="#DejaVuSans-6e" transform="translate(468.164062 0.015625)"/>
      <use xlink:href="#DejaVuSans-65" transform="translate(531.542969 0.015625)"/>
      <use xlink:href="#DejaVuSans-20" transform="translate(593.066406 0.015625)"/>
      <use xlink:href="#DejaVuSans-6d" transform="translate(624.853516 0.015625)"/>
      <use xlink:href="#DejaVuSans-61" transform="translate(722.265625 0.015625)"/>
      <use xlink:href="#DejaVuSans-74" transform="translate(783.544922 0.015625)"/>
      <use xlink:href="#DejaVuSans-72" transform="translate(822.753906 0.015625)"/>
      <use xlink:href="#DejaVuSans-69" transform="translate(863.867188 0.015625)"/>
      <use xlink:href="#DejaVuSans-63" transform="translate(891.650391 0.015625)"/>
      <use xlink:href="#DejaVuSans-65" transform="translate(946.630859 0.015625)"/>
      <use xlink:href="#DejaVuSans-20" transform="translate(1008.154297 0.015625)"/>
      <use xlink:href="#DejaVuSans-Oblique-6e" transform="translate(1039.941406 0.015625)"/>
     </g>
    </g>
   </g>
   <g id="matplotlib.axis_2">
    <g id="ytick_1">
     <g id="line2d_25">
      <path d="M 57.71375 366.206738 
L 1062.11375 366.206738 
" clip-path="url(#pa4c1f3d205)" style="fill: none; stroke: #b0b0b0; stroke-width: 0.5; stroke-linecap: square"/>
     </g>
     <g id="line2d_26">
      <defs>
       <path id="m2412773b2a" d="M 0 0 
L -3.5 0 
" style="stroke: #000000; stroke-width: 0.8"/>
      </defs>
      <g>
       <use xlink:href="#m2412773b2a" x="57.71375" y="366.206738" style="stroke: #000000; stroke-width: 0.8"/>
      </g>
     </g>
     <g id="text_5">
      <!-- $\mathdefault{10^{-15}}$ -->
      <g transform="translate(22.81375 370.005957) scale(0.1 -0.1)">
       <defs>
        <path id="DejaVuSans-2212" d="M 678 2272 
L 4684 2272 
L 4684 1741 
L 678 1741 
L 678 2272 
z
" transform="scale(0.015625)"/>
        <path id="DejaVuSans-35" d="M 691 4666 
L 3169 4666 
L 3169 4134 
L 1269 4134 
L 1269 2991 
Q 1406 3038 1543 3061 
Q 1681 3084 1819 3084 
Q 2600 3084 3056 2656 
Q 3513 2228 3513 1497 
Q 3513 744 3044 326 
Q 2575 -91 1722 -91 
Q 1428 -91 1123 -41 
Q 819 9 494 109 
L 494 744 
Q 775 591 1075 516 
Q 1375 441 1709 441 
Q 2250 441 2565 725 
Q 2881 1009 2881 1497 
Q 2881 1984 2565 2268 
Q 2250 2553 1709 2553 
Q 1456 2553 1204 2497 
Q 953 2441 691 2322 
L 691 4666 
z
" transform="scale(0.015625)"/>
       </defs>
       <use xlink:href="#DejaVuSans-31" transform="translate(0 0.684375)"/>
       <use xlink:href="#DejaVuSans-30" transform="translate(63.623047 0.684375)"/>
       <use xlink:href="#DejaVuSans-2212" transform="translate(128.203125 38.965625) scale(0.7)"/>
       <use xlink:href="#DejaVuSans-31" transform="translate(186.855469 38.965625) scale(0.7)"/>
       <use xlink:href="#DejaVuSans-35" transform="translate(231.391602 38.965625) scale(0.7)"/>
      </g>
     </g>
    </g>
    <g id="ytick_2">
     <g id="line2d_27">
      <defs>
       <path id="me2147c371c" d="M 0 0 
L -2 0 
" style="stroke: #000000; stroke-width: 0.6"/>
      </defs>
      <g>
       <use xlink:href="#me2147c371c" x="57.71375" y="551.227531" style="stroke: #000000; stroke-width: 0.6"/>
      </g>
     </g>
    </g>
    <g id="ytick_3">
     <g id="line2d_28">
      <g>
       <use xlink:href="#me2147c371c" x="57.71375" y="507.017924" style="stroke: #000000; stroke-width: 0.6"/>
      </g>
     </g>
    </g>
    <g id="ytick_4">
     <g id="line2d_29">
      <g>
       <use xlink:href="#me2147c371c" x="57.71375" y="472.726288" style="stroke: #000000; stroke-width: 0.6"/>
      </g>
     </g>
    </g>
    <g id="ytick_5">
     <g id="line2d_30">
      <g>
       <use xlink:href="#me2147c371c" x="57.71375" y="444.707982" style="stroke: #000000; stroke-width: 0.6"/>
      </g>
     </g>
    </g>
    <g id="ytick_6">
     <g id="line2d_31">
      <g>
       <use xlink:href="#me2147c371c" x="57.71375" y="421.018841" style="stroke: #000000; stroke-width: 0.6"/>
      </g>
     </g>
    </g>
    <g id="ytick_7">
     <g id="line2d_32">
      <g>
       <use xlink:href="#me2147c371c" x="57.71375" y="400.498374" style="stroke: #000000; stroke-width: 0.6"/>
      </g>
     </g>
    </g>
    <g id="ytick_8">
     <g id="line2d_33">
      <g>
       <use xlink:href="#me2147c371c" x="57.71375" y="382.39804" style="stroke: #000000; stroke-width: 0.6"/>
      </g>
     </g>
    </g>
    <g id="ytick_9">
     <g id="line2d_34">
      <g>
       <use xlink:href="#me2147c371c" x="57.71375" y="259.687189" style="stroke: #000000; stroke-width: 0.6"/>
      </g>
     </g>
    </g>
    <g id="ytick_10">
     <g id="line2d_35">
      <g>
       <use xlink:href="#me2147c371c" x="57.71375" y="197.377247" style="stroke: #000000; stroke-width: 0.6"/>
      </g>
     </g>
    </g>
    <g id="ytick_11">
     <g id="line2d_36">
      <g>
       <use xlink:href="#me2147c371c" x="57.71375" y="153.167639" style="stroke: #000000; stroke-width: 0.6"/>
      </g>
     </g>
    </g>
    <g id="ytick_12">
     <g id="line2d_37">
      <g>
       <use xlink:href="#me2147c371c" x="57.71375" y="118.876004" style="stroke: #000000; stroke-width: 0.6"/>
      </g>
     </g>
    </g>
    <g id="ytick_13">
     <g id="line2d_38">
      <g>
       <use xlink:href="#me2147c371c" x="57.71375" y="90.857697" style="stroke: #000000; stroke-width: 0.6"/>
      </g>
     </g>
    </g>
    <g id="ytick_14">
     <g id="line2d_39">
      <g>
       <use xlink:href="#me2147c371c" x="57.71375" y="67.168557" style="stroke: #000000; stroke-width: 0.6"/>
      </g>
     </g>
    </g>
    <g id="ytick_15">
     <g id="line2d_40">
      <g>
       <use xlink:href="#me2147c371c" x="57.71375" y="46.64809" style="stroke: #000000; stroke-width: 0.6"/>
      </g>
     </g>
    </g>
    <g id="ytick_16">
     <g id="line2d_41">
      <g>
       <use xlink:href="#me2147c371c" x="57.71375" y="28.547755" style="stroke: #000000; stroke-width: 0.6"/>
      </g>
     </g>
    </g>
    <g id="text_6">
     <!-- Errore -->
     <g transform="translate(16.318125 319.219063) rotate(-90) scale(0.12 -0.12)">
      <defs>
       <path id="DejaVuSans-45" d="M 628 4666 
L 3578 4666 
L 3578 4134 
L 1259 4134 
L 1259 2753 
L 3481 2753 
L 3481 2222 
L 1259 2222 
L 1259 531 
L 3634 531 
L 3634 0 
L 628 0 
L 628 4666 
z
" transform="scale(0.015625)"/>
      </defs>
      <use xlink:href="#DejaVuSans-45"/>
      <use xlink:href="#DejaVuSans-72" x="63.183594"/>
      <use xlink:href="#DejaVuSans-72" x="102.546875"/>
      <use xlink:href="#DejaVuSans-6f" x="141.410156"/>
      <use xlink:href="#DejaVuSans-72" x="202.591797"/>
      <use xlink:href="#DejaVuSans-65" x="241.455078"/>
     </g>
    </g>
   </g>
   <g id="line2d_42">
    <path d="M 103.368295 553.04 
L 139.525989 552.394273 
L 196.578596 542.430379 
L 240.832036 538.357258 
L 292.86366 525.110712 
L 340.144919 516.938665 
L 387.971758 504.880681 
L 437.811997 495.019305 
L 486.424256 480.575992 
L 534.661267 467.718704 
L 582.488106 450.537589 
L 630.946331 437.757181 
L 679.859848 419.2552 
L 727.76408 406.381808 
L 775.894668 388.177997 
L 824.245466 370.460794 
L 872.333766 352.644124 
L 920.24857 335.838201 
L 968.397616 317.479393 
L 1016.459205 300.245691 
" clip-path="url(#pa4c1f3d205)" style="fill: none; stroke: #1f77b4; stroke-width: 1.5; stroke-linecap: square"/>
    <defs>
     <path id="mb0178391f1" d="M 0 1.5 
C 0.397805 1.5 0.77937 1.341951 1.06066 1.06066 
C 1.341951 0.77937 1.5 0.397805 1.5 0 
C 1.5 -0.397805 1.341951 -0.77937 1.06066 -1.06066 
C 0.77937 -1.341951 0.397805 -1.5 0 -1.5 
C -0.397805 -1.5 -0.77937 -1.341951 -1.06066 -1.06066 
C -1.341951 -0.77937 -1.5 -0.397805 -1.5 0 
C -1.5 0.397805 -1.341951 0.77937 -1.06066 1.06066 
C -0.77937 1.341951 -0.397805 1.5 0 1.5 
z
" style="stroke: #1f77b4"/>
    </defs>
    <g clip-path="url(#pa4c1f3d205)">
     <use xlink:href="#mb0178391f1" x="103.368295" y="553.04" style="fill: #1f77b4; stroke: #1f77b4"/>
     <use xlink:href="#mb0178391f1" x="139.525989" y="552.394273" style="fill: #1f77b4; stroke: #1f77b4"/>
     <use xlink:href="#mb0178391f1" x="196.578596" y="542.430379" style="fill: #1f77b4; stroke: #1f77b4"/>
     <use xlink:href="#mb0178391f1" x="240.832036" y="538.357258" style="fill: #1f77b4; stroke: #1f77b4"/>
     <use xlink:href="#mb0178391f1" x="292.86366" y="525.110712" style="fill: #1f77b4; stroke: #1f77b4"/>
     <use xlink:href="#mb0178391f1" x="340.144919" y="516.938665" style="fill: #1f77b4; stroke: #1f77b4"/>
     <use xlink:href="#mb0178391f1" x="387.971758" y="504.880681" style="fill: #1f77b4; stroke: #1f77b4"/>
     <use xlink:href="#mb0178391f1" x="437.811997" y="495.019305" style="fill: #1f77b4; stroke: #1f77b4"/>
     <use xlink:href="#mb0178391f1" x="486.424256" y="480.575992" style="fill: #1f77b4; stroke: #1f77b4"/>
     <use xlink:href="#mb0178391f1" x="534.661267" y="467.718704" style="fill: #1f77b4; stroke: #1f77b4"/>
     <use xlink:href="#mb0178391f1" x="582.488106" y="450.537589" style="fill: #1f77b4; stroke: #1f77b4"/>
     <use xlink:href="#mb0178391f1" x="630.946331" y="437.757181" style="fill: #1f77b4; stroke: #1f77b4"/>
     <use xlink:href="#mb0178391f1" x="679.859848" y="419.2552" style="fill: #1f77b4; stroke: #1f77b4"/>
     <use xlink:href="#mb0178391f1" x="727.76408" y="406.381808" style="fill: #1f77b4; stroke: #1f77b4"/>
     <use xlink:href="#mb0178391f1" x="775.894668" y="388.177997" style="fill: #1f77b4; stroke: #1f77b4"/>
     <use xlink:href="#mb0178391f1" x="824.245466" y="370.460794" style="fill: #1f77b4; stroke: #1f77b4"/>
     <use xlink:href="#mb0178391f1" x="872.333766" y="352.644124" style="fill: #1f77b4; stroke: #1f77b4"/>
     <use xlink:href="#mb0178391f1" x="920.24857" y="335.838201" style="fill: #1f77b4; stroke: #1f77b4"/>
     <use xlink:href="#mb0178391f1" x="968.397616" y="317.479393" style="fill: #1f77b4; stroke: #1f77b4"/>
     <use xlink:href="#mb0178391f1" x="1016.459205" y="300.245691" style="fill: #1f77b4; stroke: #1f77b4"/>
    </g>
   </g>
   <g id="line2d_43">
    <path d="M 103.368295 509.211022 
L 139.525989 500.065543 
L 196.578596 490.089728 
L 240.832036 465.84261 
L 292.86366 437.796442 
L 340.144919 416.804282 
L 387.971758 392.957016 
L 437.811997 383.531191 
L 486.424256 347.296943 
L 534.661267 330.31706 
L 582.488106 328.507136 
L 630.946331 299.416569 
L 679.859848 260.721 
L 727.76408 245.587571 
L 775.894668 243.152746 
L 824.245466 213.570866 
L 872.333766 180.529376 
L 920.24857 146.116536 
L 968.397616 129.598753 
L 1016.459205 118.678872 
" clip-path="url(#pa4c1f3d205)" style="fill: none; stroke: #ff7f0e; stroke-width: 1.5; stroke-linecap: square"/>
    <defs>
     <path id="ma34e54f786" d="M 0 1.5 
C 0.397805 1.5 0.77937 1.341951 1.06066 1.06066 
C 1.341951 0.77937 1.5 0.397805 1.5 0 
C 1.5 -0.397805 1.341951 -0.77937 1.06066 -1.06066 
C 0.77937 -1.341951 0.397805 -1.5 0 -1.5 
C -0.397805 -1.5 -0.77937 -1.341951 -1.06066 -1.06066 
C -1.341951 -0.77937 -1.5 -0.397805 -1.5 0 
C -1.5 0.397805 -1.341951 0.77937 -1.06066 1.06066 
C -0.77937 1.341951 -0.397805 1.5 0 1.5 
z
" style="stroke: #ff7f0e"/>
    </defs>
    <g clip-path="url(#pa4c1f3d205)">
     <use xlink:href="#ma34e54f786" x="103.368295" y="509.211022" style="fill: #ff7f0e; stroke: #ff7f0e"/>
     <use xlink:href="#ma34e54f786" x="139.525989" y="500.065543" style="fill: #ff7f0e; stroke: #ff7f0e"/>
     <use xlink:href="#ma34e54f786" x="196.578596" y="490.089728" style="fill: #ff7f0e; stroke: #ff7f0e"/>
     <use xlink:href="#ma34e54f786" x="240.832036" y="465.84261" style="fill: #ff7f0e; stroke: #ff7f0e"/>
     <use xlink:href="#ma34e54f786" x="292.86366" y="437.796442" style="fill: #ff7f0e; stroke: #ff7f0e"/>
     <use xlink:href="#ma34e54f786" x="340.144919" y="416.804282" style="fill: #ff7f0e; stroke: #ff7f0e"/>
     <use xlink:href="#ma34e54f786" x="387.971758" y="392.957016" style="fill: #ff7f0e; stroke: #ff7f0e"/>
     <use xlink:href="#ma34e54f786" x="437.811997" y="383.531191" style="fill: #ff7f0e; stroke: #ff7f0e"/>
     <use xlink:href="#ma34e54f786" x="486.424256" y="347.296943" style="fill: #ff7f0e; stroke: #ff7f0e"/>
     <use xlink:href="#ma34e54f786" x="534.661267" y="330.31706" style="fill: #ff7f0e; stroke: #ff7f0e"/>
     <use xlink:href="#ma34e54f786" x="582.488106" y="328.507136" style="fill: #ff7f0e; stroke: #ff7f0e"/>
     <use xlink:href="#ma34e54f786" x="630.946331" y="299.416569" style="fill: #ff7f0e; stroke: #ff7f0e"/>
     <use xlink:href="#ma34e54f786" x="679.859848" y="260.721" style="fill: #ff7f0e; stroke: #ff7f0e"/>
     <use xlink:href="#ma34e54f786" x="727.76408" y="245.587571" style="fill: #ff7f0e; stroke: #ff7f0e"/>
     <use xlink:href="#ma34e54f786" x="775.894668" y="243.152746" style="fill: #ff7f0e; stroke: #ff7f0e"/>
     <use xlink:href="#ma34e54f786" x="824.245466" y="213.570866" style="fill: #ff7f0e; stroke: #ff7f0e"/>
     <use xlink:href="#ma34e54f786" x="872.333766" y="180.529376" style="fill: #ff7f0e; stroke: #ff7f0e"/>
     <use xlink:href="#ma34e54f786" x="920.24857" y="146.116536" style="fill: #ff7f0e; stroke: #ff7f0e"/>
     <use xlink:href="#ma34e54f786" x="968.397616" y="129.598753" style="fill: #ff7f0e; stroke: #ff7f0e"/>
     <use xlink:href="#ma34e54f786" x="1016.459205" y="118.678872" style="fill: #ff7f0e; stroke: #ff7f0e"/>
    </g>
   </g>
   <g id="line2d_44">
    <path d="M 103.368295 525.322947 
L 139.525989 520.373051 
L 196.578596 508.247839 
L 240.832036 492.164041 
L 292.86366 477.544585 
L 340.144919 452.876495 
L 387.971758 432.6701 
L 437.811997 411.50515 
L 486.424256 384.410031 
L 534.661267 358.598551 
L 582.488106 340.151256 
L 630.946331 308.123452 
L 679.859848 293.643969 
L 727.76408 270.651581 
L 775.894668 242.830969 
L 824.245466 221.925593 
L 872.333766 183.02336 
L 920.24857 164.67336 
L 968.397616 148.27321 
L 1016.459205 129.462074 
" clip-path="url(#pa4c1f3d205)" style="fill: none; stroke: #2ca02c; stroke-width: 1.5; stroke-linecap: square"/>
    <defs>
     <path id="m408fe54c96" d="M 0 1.5 
C 0.397805 1.5 0.77937 1.341951 1.06066 1.06066 
C 1.341951 0.77937 1.5 0.397805 1.5 0 
C 1.5 -0.397805 1.341951 -0.77937 1.06066 -1.06066 
C 0.77937 -1.341951 0.397805 -1.5 0 -1.5 
C -0.397805 -1.5 -0.77937 -1.341951 -1.06066 -1.06066 
C -1.341951 -0.77937 -1.5 -0.397805 -1.5 0 
C -1.5 0.397805 -1.341951 0.77937 -1.06066 1.06066 
C -0.77937 1.341951 -0.397805 1.5 0 1.5 
z
" style="stroke: #2ca02c"/>
    </defs>
    <g clip-path="url(#pa4c1f3d205)">
     <use xlink:href="#m408fe54c96" x="103.368295" y="525.322947" style="fill: #2ca02c; stroke: #2ca02c"/>
     <use xlink:href="#m408fe54c96" x="139.525989" y="520.373051" style="fill: #2ca02c; stroke: #2ca02c"/>
     <use xlink:href="#m408fe54c96" x="196.578596" y="508.247839" style="fill: #2ca02c; stroke: #2ca02c"/>
     <use xlink:href="#m408fe54c96" x="240.832036" y="492.164041" style="fill: #2ca02c; stroke: #2ca02c"/>
     <use xlink:href="#m408fe54c96" x="292.86366" y="477.544585" style="fill: #2ca02c; stroke: #2ca02c"/>
     <use xlink:href="#m408fe54c96" x="340.144919" y="452.876495" style="fill: #2ca02c; stroke: #2ca02c"/>
     <use xlink:href="#m408fe54c96" x="387.971758" y="432.6701" style="fill: #2ca02c; stroke: #2ca02c"/>
     <use xlink:href="#m408fe54c96" x="437.811997" y="411.50515" style="fill: #2ca02c; stroke: #2ca02c"/>
     <use xlink:href="#m408fe54c96" x="486.424256" y="384.410031" style="fill: #2ca02c; stroke: #2ca02c"/>
     <use xlink:href="#m408fe54c96" x="534.661267" y="358.598551" style="fill: #2ca02c; stroke: #2ca02c"/>
     <use xlink:href="#m408fe54c96" x="582.488106" y="340.151256" style="fill: #2ca02c; stroke: #2ca02c"/>
     <use xlink:href="#m408fe54c96" x="630.946331" y="308.123452" style="fill: #2ca02c; stroke: #2ca02c"/>
     <use xlink:href="#m408fe54c96" x="679.859848" y="293.643969" style="fill: #2ca02c; stroke: #2ca02c"/>
     <use xlink:href="#m408fe54c96" x="727.76408" y="270.651581" style="fill: #2ca02c; stroke: #2ca02c"/>
     <use xlink:href="#m408fe54c96" x="775.894668" y="242.830969" style="fill: #2ca02c; stroke: #2ca02c"/>
     <use xlink:href="#m408fe54c96" x="824.245466" y="221.925593" style="fill: #2ca02c; stroke: #2ca02c"/>
     <use xlink:href="#m408fe54c96" x="872.333766" y="183.02336" style="fill: #2ca02c; stroke: #2ca02c"/>
     <use xlink:href="#m408fe54c96" x="920.24857" y="164.67336" style="fill: #2ca02c; stroke: #2ca02c"/>
     <use xlink:href="#m408fe54c96" x="968.397616" y="148.27321" style="fill: #2ca02c; stroke: #2ca02c"/>
     <use xlink:href="#m408fe54c96" x="1016.459205" y="129.462074" style="fill: #2ca02c; stroke: #2ca02c"/>
    </g>
   </g>
   <g id="line2d_45">
    <path d="M 103.368295 309.249626 
L 139.525989 293.803424 
L 196.578596 277.547025 
L 240.832036 262.316494 
L 292.86366 230.839022 
L 340.144919 217.95464 
L 387.971758 203.867121 
L 437.811997 186.006516 
L 486.424256 173.465676 
L 534.661267 184.093418 
L 582.488106 175.016423 
L 630.946331 166.940757 
L 679.859848 240.78533 
L 727.76408 226.626064 
L 775.894668 214.428645 
L 824.245466 210.303896 
L 872.333766 197.142958 
L 920.24857 80.015702 
L 968.397616 59.307489 
L 1016.459205 49.04 
" clip-path="url(#pa4c1f3d205)" style="fill: none; stroke: #d62728; stroke-width: 1.5; stroke-linecap: square"/>
    <defs>
     <path id="m4e7cd54ec6" d="M 0 1.5 
C 0.397805 1.5 0.77937 1.341951 1.06066 1.06066 
C 1.341951 0.77937 1.5 0.397805 1.5 0 
C 1.5 -0.397805 1.341951 -0.77937 1.06066 -1.06066 
C 0.77937 -1.341951 0.397805 -1.5 0 -1.5 
C -0.397805 -1.5 -0.77937 -1.341951 -1.06066 -1.06066 
C -1.341951 -0.77937 -1.5 -0.397805 -1.5 0 
C -1.5 0.397805 -1.341951 0.77937 -1.06066 1.06066 
C -0.77937 1.341951 -0.397805 1.5 0 1.5 
z
" style="stroke: #d62728"/>
    </defs>
    <g clip-path="url(#pa4c1f3d205)">
     <use xlink:href="#m4e7cd54ec6" x="103.368295" y="309.249626" style="fill: #d62728; stroke: #d62728"/>
     <use xlink:href="#m4e7cd54ec6" x="139.525989" y="293.803424" style="fill: #d62728; stroke: #d62728"/>
     <use xlink:href="#m4e7cd54ec6" x="196.578596" y="277.547025" style="fill: #d62728; stroke: #d62728"/>
     <use xlink:href="#m4e7cd54ec6" x="240.832036" y="262.316494" style="fill: #d62728; stroke: #d62728"/>
     <use xlink:href="#m4e7cd54ec6" x="292.86366" y="230.839022" style="fill: #d62728; stroke: #d62728"/>
     <use xlink:href="#m4e7cd54ec6" x="340.144919" y="217.95464" style="fill: #d62728; stroke: #d62728"/>
     <use xlink:href="#m4e7cd54ec6" x="387.971758" y="203.867121" style="fill: #d62728; stroke: #d62728"/>
     <use xlink:href="#m4e7cd54ec6" x="437.811997" y="186.006516" style="fill: #d62728; stroke: #d62728"/>
     <use xlink:href="#m4e7cd54ec6" x="486.424256" y="173.465676" style="fill: #d62728; stroke: #d62728"/>
     <use xlink:href="#m4e7cd54ec6" x="534.661267" y="184.093418" style="fill: #d62728; stroke: #d62728"/>
     <use xlink:href="#m4e7cd54ec6" x="582.488106" y="175.016423" style="fill: #d62728; stroke: #d62728"/>
     <use xlink:href="#m4e7cd54ec6" x="630.946331" y="166.940757" style="fill: #d62728; stroke: #d62728"/>
     <use xlink:href="#m4e7cd54ec6" x="679.859848" y="240.78533" style="fill: #d62728; stroke: #d62728"/>
     <use xlink:href="#m4e7cd54ec6" x="727.76408" y="226.626064" style="fill: #d62728; stroke: #d62728"/>
     <use xlink:href="#m4e7cd54ec6" x="775.894668" y="214.428645" style="fill: #d62728; stroke: #d62728"/>
     <use xlink:href="#m4e7cd54ec6" x="824.245466" y="210.303896" style="fill: #d62728; stroke: #d62728"/>
     <use xlink:href="#m4e7cd54ec6" x="872.333766" y="197.142958" style="fill: #d62728; stroke: #d62728"/>
     <use xlink:href="#m4e7cd54ec6" x="920.24857" y="80.015702" style="fill: #d62728; stroke: #d62728"/>
     <use xlink:href="#m4e7cd54ec6" x="968.397616" y="59.307489" style="fill: #d62728; stroke: #d62728"/>
     <use xlink:href="#m4e7cd54ec6" x="1016.459205" y="49.04" style="fill: #d62728; stroke: #d62728"/>
    </g>
   </g>
   <g id="line2d_46">
    <path d="M 103.368295 326.008866 
L 139.525989 300.584425 
L 196.578596 258.589822 
L 240.832036 235.088885 
L 292.86366 309.388051 
L 340.144919 311.031456 
L 387.971758 309.979929 
L 437.811997 317.705825 
L 486.424256 315.732939 
L 534.661267 313.578121 
L 582.488106 319.465094 
L 630.946331 314.741827 
L 679.859848 315.536178 
L 727.76408 310.221415 
L 775.894668 308.016244 
L 824.245466 307.378439 
L 872.333766 301.831912 
L 920.24857 303.402779 
L 968.397616 303.102667 
L 1016.459205 299.34003 
" clip-path="url(#pa4c1f3d205)" style="fill: none; stroke: #9467bd; stroke-width: 1.5; stroke-linecap: square"/>
    <defs>
     <path id="m2e451de221" d="M 0 1.5 
C 0.397805 1.5 0.77937 1.341951 1.06066 1.06066 
C 1.341951 0.77937 1.5 0.397805 1.5 0 
C 1.5 -0.397805 1.341951 -0.77937 1.06066 -1.06066 
C 0.77937 -1.341951 0.397805 -1.5 0 -1.5 
C -0.397805 -1.5 -0.77937 -1.341951 -1.06066 -1.06066 
C -1.341951 -0.77937 -1.5 -0.397805 -1.5 0 
C -1.5 0.397805 -1.341951 0.77937 -1.06066 1.06066 
C -0.77937 1.341951 -0.397805 1.5 0 1.5 
z
" style="stroke: #9467bd"/>
    </defs>
    <g clip-path="url(#pa4c1f3d205)">
     <use xlink:href="#m2e451de221" x="103.368295" y="326.008866" style="fill: #9467bd; stroke: #9467bd"/>
     <use xlink:href="#m2e451de221" x="139.525989" y="300.584425" style="fill: #9467bd; stroke: #9467bd"/>
     <use xlink:href="#m2e451de221" x="196.578596" y="258.589822" style="fill: #9467bd; stroke: #9467bd"/>
     <use xlink:href="#m2e451de221" x="240.832036" y="235.088885" style="fill: #9467bd; stroke: #9467bd"/>
     <use xlink:href="#m2e451de221" x="292.86366" y="309.388051" style="fill: #9467bd; stroke: #9467bd"/>
     <use xlink:href="#m2e451de221" x="340.144919" y="311.031456" style="fill: #9467bd; stroke: #9467bd"/>
     <use xlink:href="#m2e451de221" x="387.971758" y="309.979929" style="fill: #9467bd; stroke: #9467bd"/>
     <use xlink:href="#m2e451de221" x="437.811997" y="317.705825" style="fill: #9467bd; stroke: #9467bd"/>
     <use xlink:href="#m2e451de221" x="486.424256" y="315.732939" style="fill: #9467bd; stroke: #9467bd"/>
     <use xlink:href="#m2e451de221" x="534.661267" y="313.578121" style="fill: #9467bd; stroke: #9467bd"/>
     <use xlink:href="#m2e451de221" x="582.488106" y="319.465094" style="fill: #9467bd; stroke: #9467bd"/>
     <use xlink:href="#m2e451de221" x="630.946331" y="314.741827" style="fill: #9467bd; stroke: #9467bd"/>
     <use xlink:href="#m2e451de221" x="679.859848" y="315.536178" style="fill: #9467bd; stroke: #9467bd"/>
     <use xlink:href="#m2e451de221" x="727.76408" y="310.221415" style="fill: #9467bd; stroke: #9467bd"/>
     <use xlink:href="#m2e451de221" x="775.894668" y="308.016244" style="fill: #9467bd; stroke: #9467bd"/>
     <use xlink:href="#m2e451de221" x="824.245466" y="307.378439" style="fill: #9467bd; stroke: #9467bd"/>
     <use xlink:href="#m2e451de221" x="872.333766" y="301.831912" style="fill: #9467bd; stroke: #9467bd"/>
     <use xlink:href="#m2e451de221" x="920.24857" y="303.402779" style="fill: #9467bd; stroke: #9467bd"/>
     <use xlink:href="#m2e451de221" x="968.397616" y="303.102667" style="fill: #9467bd; stroke: #9467bd"/>
     <use xlink:href="#m2e451de221" x="1016.459205" y="299.34003" style="fill: #9467bd; stroke: #9467bd"/>
    </g>
   </g>
   <g id="line2d_47">
    <path d="M 103.368295 315.733657 
L 139.525989 298.27139 
L 196.578596 274.85304 
L 240.832036 261.457946 
L 292.86366 251.39494 
L 340.144919 237.50086 
L 387.971758 229.152155 
L 437.811997 223.337385 
L 486.424256 222.181314 
L 534.661267 215.797611 
L 582.488106 208.158646 
L 630.946331 203.755907 
L 679.859848 200.735891 
L 727.76408 197.220865 
L 775.894668 190.763195 
L 824.245466 183.803966 
L 872.333766 182.247151 
L 920.24857 180.6985 
L 968.397616 175.333116 
L 1016.459205 172.443618 
" clip-path="url(#pa4c1f3d205)" style="fill: none; stroke: #8c564b; stroke-width: 1.5; stroke-linecap: square"/>
    <defs>
     <path id="mc693e5a59f" d="M 0 1.5 
C 0.397805 1.5 0.77937 1.341951 1.06066 1.06066 
C 1.341951 0.77937 1.5 0.397805 1.5 0 
C 1.5 -0.397805 1.341951 -0.77937 1.06066 -1.06066 
C 0.77937 -1.341951 0.397805 -1.5 0 -1.5 
C -0.397805 -1.5 -0.77937 -1.341951 -1.06066 -1.06066 
C -1.341951 -0.77937 -1.5 -0.397805 -1.5 0 
C -1.5 0.397805 -1.341951 0.77937 -1.06066 1.06066 
C -0.77937 1.341951 -0.397805 1.5 0 1.5 
z
" style="stroke: #8c564b"/>
    </defs>
    <g clip-path="url(#pa4c1f3d205)">
     <use xlink:href="#mc693e5a59f" x="103.368295" y="315.733657" style="fill: #8c564b; stroke: #8c564b"/>
     <use xlink:href="#mc693e5a59f" x="139.525989" y="298.27139" style="fill: #8c564b; stroke: #8c564b"/>
     <use xlink:href="#mc693e5a59f" x="196.578596" y="274.85304" style="fill: #8c564b; stroke: #8c564b"/>
     <use xlink:href="#mc693e5a59f" x="240.832036" y="261.457946" style="fill: #8c564b; stroke: #8c564b"/>
     <use xlink:href="#mc693e5a59f" x="292.86366" y="251.39494" style="fill: #8c564b; stroke: #8c564b"/>
     <use xlink:href="#mc693e5a59f" x="340.144919" y="237.50086" style="fill: #8c564b; stroke: #8c564b"/>
     <use xlink:href="#mc693e5a59f" x="387.971758" y="229.152155" style="fill: #8c564b; stroke: #8c564b"/>
     <use xlink:href="#mc693e5a59f" x="437.811997" y="223.337385" style="fill: #8c564b; stroke: #8c564b"/>
     <use xlink:href="#mc693e5a59f" x="486.424256" y="222.181314" style="fill: #8c564b; stroke: #8c564b"/>
     <use xlink:href="#mc693e5a59f" x="534.661267" y="215.797611" style="fill: #8c564b; stroke: #8c564b"/>
     <use xlink:href="#mc693e5a59f" x="582.488106" y="208.158646" style="fill: #8c564b; stroke: #8c564b"/>
     <use xlink:href="#mc693e5a59f" x="630.946331" y="203.755907" style="fill: #8c564b; stroke: #8c564b"/>
     <use xlink:href="#mc693e5a59f" x="679.859848" y="200.735891" style="fill: #8c564b; stroke: #8c564b"/>
     <use xlink:href="#mc693e5a59f" x="727.76408" y="197.220865" style="fill: #8c564b; stroke: #8c564b"/>
     <use xlink:href="#mc693e5a59f" x="775.894668" y="190.763195" style="fill: #8c564b; stroke: #8c564b"/>
     <use xlink:href="#mc693e5a59f" x="824.245466" y="183.803966" style="fill: #8c564b; stroke: #8c564b"/>
     <use xlink:href="#mc693e5a59f" x="872.333766" y="182.247151" style="fill: #8c564b; stroke: #8c564b"/>
     <use xlink:href="#mc693e5a59f" x="920.24857" y="180.6985" style="fill: #8c564b; stroke: #8c564b"/>
     <use xlink:href="#mc693e5a59f" x="968.397616" y="175.333116" style="fill: #8c564b; stroke: #8c564b"/>
     <use xlink:href="#mc693e5a59f" x="1016.459205" y="172.443618" style="fill: #8c564b; stroke: #8c564b"/>
    </g>
   </g>
   <g id="line2d_48">
    <path d="M 103.368295 297.075953 
L 139.525989 282.032527 
L 196.578596 258.391007 
L 240.832036 245.000205 
L 292.86366 231.577824 
L 340.144919 219.351668 
L 387.971758 215.677729 
L 437.811997 207.900391 
L 486.424256 206.887046 
L 534.661267 201.233216 
L 582.488106 191.672519 
L 630.946331 189.762174 
L 679.859848 183.796756 
L 727.76408 177.143782 
L 775.894668 173.472823 
L 824.245466 170.819445 
L 872.333766 166.436382 
L 920.24857 162.724258 
L 968.397616 160.449817 
L 1016.459205 156.969369 
" clip-path="url(#pa4c1f3d205)" style="fill: none; stroke: #e377c2; stroke-width: 1.5; stroke-linecap: square"/>
    <defs>
     <path id="m2bb4bc9bf8" d="M 0 1.5 
C 0.397805 1.5 0.77937 1.341951 1.06066 1.06066 
C 1.341951 0.77937 1.5 0.397805 1.5 0 
C 1.5 -0.397805 1.341951 -0.77937 1.06066 -1.06066 
C 0.77937 -1.341951 0.397805 -1.5 0 -1.5 
C -0.397805 -1.5 -0.77937 -1.341951 -1.06066 -1.06066 
C -1.341951 -0.77937 -1.5 -0.397805 -1.5 0 
C -1.5 0.397805 -1.341951 0.77937 -1.06066 1.06066 
C -0.77937 1.341951 -0.397805 1.5 0 1.5 
z
" style="stroke: #e377c2"/>
    </defs>
    <g clip-path="url(#pa4c1f3d205)">
     <use xlink:href="#m2bb4bc9bf8" x="103.368295" y="297.075953" style="fill: #e377c2; stroke: #e377c2"/>
     <use xlink:href="#m2bb4bc9bf8" x="139.525989" y="282.032527" style="fill: #e377c2; stroke: #e377c2"/>
     <use xlink:href="#m2bb4bc9bf8" x="196.578596" y="258.391007" style="fill: #e377c2; stroke: #e377c2"/>
     <use xlink:href="#m2bb4bc9bf8" x="240.832036" y="245.000205" style="fill: #e377c2; stroke: #e377c2"/>
     <use xlink:href="#m2bb4bc9bf8" x="292.86366" y="231.577824" style="fill: #e377c2; stroke: #e377c2"/>
     <use xlink:href="#m2bb4bc9bf8" x="340.144919" y="219.351668" style="fill: #e377c2; stroke: #e377c2"/>
     <use xlink:href="#m2bb4bc9bf8" x="387.971758" y="215.677729" style="fill: #e377c2; stroke: #e377c2"/>
     <use xlink:href="#m2bb4bc9bf8" x="437.811997" y="207.900391" style="fill: #e377c2; stroke: #e377c2"/>
     <use xlink:href="#m2bb4bc9bf8" x="486.424256" y="206.887046" style="fill: #e377c2; stroke: #e377c2"/>
     <use xlink:href="#m2bb4bc9bf8" x="534.661267" y="201.233216" style="fill: #e377c2; stroke: #e377c2"/>
     <use xlink:href="#m2bb4bc9bf8" x="582.488106" y="191.672519" style="fill: #e377c2; stroke: #e377c2"/>
     <use xlink:href="#m2bb4bc9bf8" x="630.946331" y="189.762174" style="fill: #e377c2; stroke: #e377c2"/>
     <use xlink:href="#m2bb4bc9bf8" x="679.859848" y="183.796756" style="fill: #e377c2; stroke: #e377c2"/>
     <use xlink:href="#m2bb4bc9bf8" x="727.76408" y="177.143782" style="fill: #e377c2; stroke: #e377c2"/>
     <use xlink:href="#m2bb4bc9bf8" x="775.894668" y="173.472823" style="fill: #e377c2; stroke: #e377c2"/>
     <use xlink:href="#m2bb4bc9bf8" x="824.245466" y="170.819445" style="fill: #e377c2; stroke: #e377c2"/>
     <use xlink:href="#m2bb4bc9bf8" x="872.333766" y="166.436382" style="fill: #e377c2; stroke: #e377c2"/>
     <use xlink:href="#m2bb4bc9bf8" x="920.24857" y="162.724258" style="fill: #e377c2; stroke: #e377c2"/>
     <use xlink:href="#m2bb4bc9bf8" x="968.397616" y="160.449817" style="fill: #e377c2; stroke: #e377c2"/>
     <use xlink:href="#m2bb4bc9bf8" x="1016.459205" y="156.969369" style="fill: #e377c2; stroke: #e377c2"/>
    </g>
   </g>
   <g id="patch_3">
    <path d="M 57.71375 578.24 
L 57.71375 23.84 
" style="fill: none; stroke: #000000; stroke-width: 0.8; stroke-linejoin: miter; stroke-linecap: square"/>
   </g>
   <g id="patch_4">
    <path d="M 1062.11375 578.24 
L 1062.11375 23.84 
" style="fill: none; stroke: #000000; stroke-width: 0.8; stroke-linejoin: miter; stroke-linecap: square"/>
   </g>
   <g id="patch_5">
    <path d="M 57.71375 578.24 
L 1062.11375 578.24 
" style="fill: none; stroke: #000000; stroke-width: 0.8; stroke-linejoin: miter; stroke-linecap: square"/>
   </g>
   <g id="patch_6">
    <path d="M 57.71375 23.84 
L 1062.11375 23.84 
" style="fill: none; stroke: #000000; stroke-width: 0.8; stroke-linejoin: miter; stroke-linecap: square"/>
   </g>
   <g id="text_7">
    <!-- Confronto degli errori di calcolo di $\pi$ su matrice Q sparsa con 5 archi per nodo -->
    <g transform="translate(286.98375 17.84) scale(0.14 -0.14)">
     <defs>
      <path id="DejaVuSans-43" d="M 4122 4306 
L 4122 3641 
Q 3803 3938 3442 4084 
Q 3081 4231 2675 4231 
Q 1875 4231 1450 3742 
Q 1025 3253 1025 2328 
Q 1025 1406 1450 917 
Q 1875 428 2675 428 
Q 3081 428 3442 575 
Q 3803 722 4122 1019 
L 4122 359 
Q 3791 134 3420 21 
Q 3050 -91 2638 -91 
Q 1578 -91 968 557 
Q 359 1206 359 2328 
Q 359 3453 968 4101 
Q 1578 4750 2638 4750 
Q 3056 4750 3426 4639 
Q 3797 4528 4122 4306 
z
" transform="scale(0.015625)"/>
      <path id="DejaVuSans-66" d="M 2375 4863 
L 2375 4384 
L 1825 4384 
Q 1516 4384 1395 4259 
Q 1275 4134 1275 3809 
L 1275 3500 
L 2222 3500 
L 2222 3053 
L 1275 3053 
L 1275 0 
L 697 0 
L 697 3053 
L 147 3053 
L 147 3500 
L 697 3500 
L 697 3744 
Q 697 4328 969 4595 
Q 1241 4863 1831 4863 
L 2375 4863 
z
" transform="scale(0.015625)"/>
      <path id="DejaVuSans-64" d="M 2906 2969 
L 2906 4863 
L 3481 4863 
L 3481 0 
L 2906 0 
L 2906 525 
Q 2725 213 2448 61 
Q 2172 -91 1784 -91 
Q 1150 -91 751 415 
Q 353 922 353 1747 
Q 353 2572 751 3078 
Q 1150 3584 1784 3584 
Q 2172 3584 2448 3432 
Q 2725 3281 2906 2969 
z
M 947 1747 
Q 947 1113 1208 752 
Q 1469 391 1925 391 
Q 2381 391 2643 752 
Q 2906 1113 2906 1747 
Q 2906 2381 2643 2742 
Q 2381 3103 1925 3103 
Q 1469 3103 1208 2742 
Q 947 2381 947 1747 
z
" transform="scale(0.015625)"/>
      <path id="DejaVuSans-67" d="M 2906 1791 
Q 2906 2416 2648 2759 
Q 2391 3103 1925 3103 
Q 1463 3103 1205 2759 
Q 947 2416 947 1791 
Q 947 1169 1205 825 
Q 1463 481 1925 481 
Q 2391 481 2648 825 
Q 2906 1169 2906 1791 
z
M 3481 434 
Q 3481 -459 3084 -895 
Q 2688 -1331 1869 -1331 
Q 1566 -1331 1297 -1286 
Q 1028 -1241 775 -1147 
L 775 -588 
Q 1028 -725 1275 -790 
Q 1522 -856 1778 -856 
Q 2344 -856 2625 -561 
Q 2906 -266 2906 331 
L 2906 616 
Q 2728 306 2450 153 
Q 2172 0 1784 0 
Q 1141 0 747 490 
Q 353 981 353 1791 
Q 353 2603 747 3093 
Q 1141 3584 1784 3584 
Q 2172 3584 2450 3431 
Q 2728 3278 2906 2969 
L 2906 3500 
L 3481 3500 
L 3481 434 
z
" transform="scale(0.015625)"/>
      <path id="DejaVuSans-6c" d="M 603 4863 
L 1178 4863 
L 1178 0 
L 603 0 
L 603 4863 
z
" transform="scale(0.015625)"/>
      <path id="DejaVuSans-Oblique-3c0" d="M 584 3500 
L 3938 3500 
L 3825 2925 
L 3384 2925 
L 2966 775 
Q 2922 550 2981 450 
Q 3038 353 3209 353 
Q 3256 353 3325 363 
Q 3397 369 3419 372 
L 3338 -44 
Q 3222 -84 3103 -103 
Q 2981 -122 2866 -122 
Q 2491 -122 2388 81 
Q 2284 288 2391 838 
L 2797 2925 
L 1506 2925 
L 938 0 
L 350 0 
L 919 2925 
L 472 2925 
L 584 3500 
z
" transform="scale(0.015625)"/>
      <path id="DejaVuSans-75" d="M 544 1381 
L 544 3500 
L 1119 3500 
L 1119 1403 
Q 1119 906 1312 657 
Q 1506 409 1894 409 
Q 2359 409 2629 706 
Q 2900 1003 2900 1516 
L 2900 3500 
L 3475 3500 
L 3475 0 
L 2900 0 
L 2900 538 
Q 2691 219 2414 64 
Q 2138 -91 1772 -91 
Q 1169 -91 856 284 
Q 544 659 544 1381 
z
M 1991 3584 
L 1991 3584 
z
" transform="scale(0.015625)"/>
      <path id="DejaVuSans-51" d="M 2522 4238 
Q 1834 4238 1429 3725 
Q 1025 3213 1025 2328 
Q 1025 1447 1429 934 
Q 1834 422 2522 422 
Q 3209 422 3611 934 
Q 4013 1447 4013 2328 
Q 4013 3213 3611 3725 
Q 3209 4238 2522 4238 
z
M 3406 84 
L 4238 -825 
L 3475 -825 
L 2784 -78 
Q 2681 -84 2626 -87 
Q 2572 -91 2522 -91 
Q 1538 -91 948 567 
Q 359 1225 359 2328 
Q 359 3434 948 4092 
Q 1538 4750 2522 4750 
Q 3503 4750 4090 4092 
Q 4678 3434 4678 2328 
Q 4678 1516 4351 937 
Q 4025 359 3406 84 
z
" transform="scale(0.015625)"/>
      <path id="DejaVuSans-70" d="M 1159 525 
L 1159 -1331 
L 581 -1331 
L 581 3500 
L 1159 3500 
L 1159 2969 
Q 1341 3281 1617 3432 
Q 1894 3584 2278 3584 
Q 2916 3584 3314 3078 
Q 3713 2572 3713 1747 
Q 3713 922 3314 415 
Q 2916 -91 2278 -91 
Q 1894 -91 1617 61 
Q 1341 213 1159 525 
z
M 3116 1747 
Q 3116 2381 2855 2742 
Q 2594 3103 2138 3103 
Q 1681 3103 1420 2742 
Q 1159 2381 1159 1747 
Q 1159 1113 1420 752 
Q 1681 391 2138 391 
Q 2594 391 2855 752 
Q 3116 1113 3116 1747 
z
" transform="scale(0.015625)"/>
      <path id="DejaVuSans-68" d="M 3513 2113 
L 3513 0 
L 2938 0 
L 2938 2094 
Q 2938 2591 2744 2837 
Q 2550 3084 2163 3084 
Q 1697 3084 1428 2787 
Q 1159 2491 1159 1978 
L 1159 0 
L 581 0 
L 581 4863 
L 1159 4863 
L 1159 2956 
Q 1366 3272 1645 3428 
Q 1925 3584 2291 3584 
Q 2894 3584 3203 3211 
Q 3513 2838 3513 2113 
z
" transform="scale(0.015625)"/>
     </defs>
     <use xlink:href="#DejaVuSans-43" transform="translate(0 0.015625)"/>
     <use xlink:href="#DejaVuSans-6f" transform="translate(69.824219 0.015625)"/>
     <use xlink:href="#DejaVuSans-6e" transform="translate(131.005859 0.015625)"/>
     <use xlink:href="#DejaVuSans-66" transform="translate(194.384766 0.015625)"/>
     <use xlink:href="#DejaVuSans-72" transform="translate(229.589844 0.015625)"/>
     <use xlink:href="#DejaVuSans-6f" transform="translate(270.703125 0.015625)"/>
     <use xlink:href="#DejaVuSans-6e" transform="translate(331.884766 0.015625)"/>
     <use xlink:href="#DejaVuSans-74" transform="translate(395.263672 0.015625)"/>
     <use xlink:href="#DejaVuSans-6f" transform="translate(434.472656 0.015625)"/>
     <use xlink:href="#DejaVuSans-20" transform="translate(495.654297 0.015625)"/>
     <use xlink:href="#DejaVuSans-64" transform="translate(527.441406 0.015625)"/>
     <use xlink:href="#DejaVuSans-65" transform="translate(590.917969 0.015625)"/>
     <use xlink:href="#DejaVuSans-67" transform="translate(652.441406 0.015625)"/>
     <use xlink:href="#DejaVuSans-6c" transform="translate(715.917969 0.015625)"/>
     <use xlink:href="#DejaVuSans-69" transform="translate(743.701172 0.015625)"/>
     <use xlink:href="#DejaVuSans-20" transform="translate(771.484375 0.015625)"/>
     <use xlink:href="#DejaVuSans-65" transform="translate(803.271484 0.015625)"/>
     <use xlink:href="#DejaVuSans-72" transform="translate(864.794922 0.015625)"/>
     <use xlink:href="#DejaVuSans-72" transform="translate(905.908203 0.015625)"/>
     <use xlink:href="#DejaVuSans-6f" transform="translate(947.021484 0.015625)"/>
     <use xlink:href="#DejaVuSans-72" transform="translate(1008.203125 0.015625)"/>
     <use xlink:href="#DejaVuSans-69" transform="translate(1049.316406 0.015625)"/>
     <use xlink:href="#DejaVuSans-20" transform="translate(1077.099609 0.015625)"/>
     <use xlink:href="#DejaVuSans-64" transform="translate(1108.886719 0.015625)"/>
     <use xlink:href="#DejaVuSans-69" transform="translate(1172.363281 0.015625)"/>
     <use xlink:href="#DejaVuSans-20" transform="translate(1200.146484 0.015625)"/>
     <use xlink:href="#DejaVuSans-63" transform="translate(1231.933594 0.015625)"/>
     <use xlink:href="#DejaVuSans-61" transform="translate(1286.914062 0.015625)"/>
     <use xlink:href="#DejaVuSans-6c" transform="translate(1348.193359 0.015625)"/>
     <use xlink:href="#DejaVuSans-63" transform="translate(1375.976562 0.015625)"/>
     <use xlink:href="#DejaVuSans-6f" transform="translate(1430.957031 0.015625)"/>
     <use xlink:href="#DejaVuSans-6c" transform="translate(1492.138672 0.015625)"/>
     <use xlink:href="#DejaVuSans-6f" transform="translate(1519.921875 0.015625)"/>
     <use xlink:href="#DejaVuSans-20" transform="translate(1581.103516 0.015625)"/>
     <use xlink:href="#DejaVuSans-64" transform="translate(1612.890625 0.015625)"/>
     <use xlink:href="#DejaVuSans-69" transform="translate(1676.367188 0.015625)"/>
     <use xlink:href="#DejaVuSans-20" transform="translate(1704.150391 0.015625)"/>
     <use xlink:href="#DejaVuSans-Oblique-3c0" transform="translate(1735.9375 0.015625)"/>
     <use xlink:href="#DejaVuSans-20" transform="translate(1796.142578 0.015625)"/>
     <use xlink:href="#DejaVuSans-73" transform="translate(1827.929688 0.015625)"/>
     <use xlink:href="#DejaVuSans-75" transform="translate(1880.029297 0.015625)"/>
     <use xlink:href="#DejaVuSans-20" transform="translate(1943.408203 0.015625)"/>
     <use xlink:href="#DejaVuSans-6d" transform="translate(1975.195312 0.015625)"/>
     <use xlink:href="#DejaVuSans-61" transform="translate(2072.607422 0.015625)"/>
     <use xlink:href="#DejaVuSans-74" transform="translate(2133.886719 0.015625)"/>
     <use xlink:href="#DejaVuSans-72" transform="translate(2173.095703 0.015625)"/>
     <use xlink:href="#DejaVuSans-69" transform="translate(2214.208984 0.015625)"/>
     <use xlink:href="#DejaVuSans-63" transform="translate(2241.992188 0.015625)"/>
     <use xlink:href="#DejaVuSans-65" transform="translate(2296.972656 0.015625)"/>
     <use xlink:href="#DejaVuSans-20" transform="translate(2358.496094 0.015625)"/>
     <use xlink:href="#DejaVuSans-51" transform="translate(2390.283203 0.015625)"/>
     <use xlink:href="#DejaVuSans-20" transform="translate(2468.994141 0.015625)"/>
     <use xlink:href="#DejaVuSans-73" transform="translate(2500.78125 0.015625)"/>
     <use xlink:href="#DejaVuSans-70" transform="translate(2552.880859 0.015625)"/>
     <use xlink:href="#DejaVuSans-61" transform="translate(2616.357422 0.015625)"/>
     <use xlink:href="#DejaVuSans-72" transform="translate(2677.636719 0.015625)"/>
     <use xlink:href="#DejaVuSans-73" transform="translate(2718.75 0.015625)"/>
     <use xlink:href="#DejaVuSans-61" transform="translate(2770.849609 0.015625)"/>
     <use xlink:href="#DejaVuSans-20" transform="translate(2832.128906 0.015625)"/>
     <use xlink:href="#DejaVuSans-63" transform="translate(2863.916016 0.015625)"/>
     <use xlink:href="#DejaVuSans-6f" transform="translate(2918.896484 0.015625)"/>
     <use xlink:href="#DejaVuSans-6e" transform="translate(2980.078125 0.015625)"/>
     <use xlink:href="#DejaVuSans-20" transform="translate(3043.457031 0.015625)"/>
     <use xlink:href="#DejaVuSans-35" transform="translate(3075.244141 0.015625)"/>
     <use xlink:href="#DejaVuSans-20" transform="translate(3138.867188 0.015625)"/>
     <use xlink:href="#DejaVuSans-61" transform="translate(3170.654297 0.015625)"/>
     <use xlink:href="#DejaVuSans-72" transform="translate(3231.933594 0.015625)"/>
     <use xlink:href="#DejaVuSans-63" transform="translate(3273.046875 0.015625)"/>
     <use xlink:href="#DejaVuSans-68" transform="translate(3328.027344 0.015625)"/>
     <use xlink:href="#DejaVuSans-69" transform="translate(3391.40625 0.015625)"/>
     <use xlink:href="#DejaVuSans-20" transform="translate(3419.189453 0.015625)"/>
     <use xlink:href="#DejaVuSans-70" transform="translate(3450.976562 0.015625)"/>
     <use xlink:href="#DejaVuSans-65" transform="translate(3514.453125 0.015625)"/>
     <use xlink:href="#DejaVuSans-72" transform="translate(3575.976562 0.015625)"/>
     <use xlink:href="#DejaVuSans-20" transform="translate(3617.089844 0.015625)"/>
     <use xlink:href="#DejaVuSans-6e" transform="translate(3648.876953 0.015625)"/>
     <use xlink:href="#DejaVuSans-6f" transform="translate(3712.255859 0.015625)"/>
     <use xlink:href="#DejaVuSans-64" transform="translate(3773.4375 0.015625)"/>
     <use xlink:href="#DejaVuSans-6f" transform="translate(3836.914062 0.015625)"/>
    </g>
   </g>
   <g id="legend_1">
    <g id="patch_7">
     <path d="M 66.81375 169.980313 
L 206.998437 169.980313 
Q 209.598437 169.980313 209.598437 167.380313 
L 209.598437 32.94 
Q 209.598437 30.34 206.998437 30.34 
L 66.81375 30.34 
Q 64.21375 30.34 64.21375 32.94 
L 64.21375 167.380313 
Q 64.21375 169.980313 66.81375 169.980313 
z
" style="fill: #ffffff; opacity: 0.8; stroke: #cccccc; stroke-linejoin: miter"/>
    </g>
    <g id="line2d_49">
     <path d="M 69.41375 40.867969 
L 82.41375 40.867969 
L 95.41375 40.867969 
" style="fill: none; stroke: #1f77b4; stroke-width: 1.5; stroke-linecap: square"/>
     <g>
      <use xlink:href="#mb0178391f1" x="82.41375" y="40.867969" style="fill: #1f77b4; stroke: #1f77b4"/>
     </g>
    </g>
    <g id="text_8">
     <!-- gth -->
     <g transform="translate(105.81375 45.417969) scale(0.13 -0.13)">
      <use xlink:href="#DejaVuSans-67"/>
      <use xlink:href="#DejaVuSans-74" x="63.476562"/>
      <use xlink:href="#DejaVuSans-68" x="102.685547"/>
     </g>
    </g>
    <g id="line2d_50">
     <path d="M 69.41375 59.949531 
L 82.41375 59.949531 
L 95.41375 59.949531 
" style="fill: none; stroke: #ff7f0e; stroke-width: 1.5; stroke-linecap: square"/>
     <g>
      <use xlink:href="#ma34e54f786" x="82.41375" y="59.949531" style="fill: #ff7f0e; stroke: #ff7f0e"/>
     </g>
    </g>
    <g id="text_9">
     <!-- system_scipy -->
     <g transform="translate(105.81375 64.499531) scale(0.13 -0.13)">
      <defs>
       <path id="DejaVuSans-79" d="M 2059 -325 
Q 1816 -950 1584 -1140 
Q 1353 -1331 966 -1331 
L 506 -1331 
L 506 -850 
L 844 -850 
Q 1081 -850 1212 -737 
Q 1344 -625 1503 -206 
L 1606 56 
L 191 3500 
L 800 3500 
L 1894 763 
L 2988 3500 
L 3597 3500 
L 2059 -325 
z
" transform="scale(0.015625)"/>
       <path id="DejaVuSans-5f" d="M 3263 -1063 
L 3263 -1509 
L -63 -1509 
L -63 -1063 
L 3263 -1063 
z
" transform="scale(0.015625)"/>
      </defs>
      <use xlink:href="#DejaVuSans-73"/>
      <use xlink:href="#DejaVuSans-79" x="52.099609"/>
      <use xlink:href="#DejaVuSans-73" x="111.279297"/>
      <use xlink:href="#DejaVuSans-74" x="163.378906"/>
      <use xlink:href="#DejaVuSans-65" x="202.587891"/>
      <use xlink:href="#DejaVuSans-6d" x="264.111328"/>
      <use xlink:href="#DejaVuSans-5f" x="361.523438"/>
      <use xlink:href="#DejaVuSans-73" x="411.523438"/>
      <use xlink:href="#DejaVuSans-63" x="463.623047"/>
      <use xlink:href="#DejaVuSans-69" x="518.603516"/>
      <use xlink:href="#DejaVuSans-70" x="546.386719"/>
      <use xlink:href="#DejaVuSans-79" x="609.863281"/>
     </g>
    </g>
    <g id="line2d_51">
     <path d="M 69.41375 79.392656 
L 82.41375 79.392656 
L 95.41375 79.392656 
" style="fill: none; stroke: #2ca02c; stroke-width: 1.5; stroke-linecap: square"/>
     <g>
      <use xlink:href="#m408fe54c96" x="82.41375" y="79.392656" style="fill: #2ca02c; stroke: #2ca02c"/>
     </g>
    </g>
    <g id="text_10">
     <!-- system_numpy -->
     <g transform="translate(105.81375 83.942656) scale(0.13 -0.13)">
      <use xlink:href="#DejaVuSans-73"/>
      <use xlink:href="#DejaVuSans-79" x="52.099609"/>
      <use xlink:href="#DejaVuSans-73" x="111.279297"/>
      <use xlink:href="#DejaVuSans-74" x="163.378906"/>
      <use xlink:href="#DejaVuSans-65" x="202.587891"/>
      <use xlink:href="#DejaVuSans-6d" x="264.111328"/>
      <use xlink:href="#DejaVuSans-5f" x="361.523438"/>
      <use xlink:href="#DejaVuSans-6e" x="411.523438"/>
      <use xlink:href="#DejaVuSans-75" x="474.902344"/>
      <use xlink:href="#DejaVuSans-6d" x="538.28125"/>
      <use xlink:href="#DejaVuSans-70" x="635.693359"/>
      <use xlink:href="#DejaVuSans-79" x="699.169922"/>
     </g>
    </g>
    <g id="line2d_52">
     <path d="M 69.41375 98.835781 
L 82.41375 98.835781 
L 95.41375 98.835781 
" style="fill: none; stroke: #d62728; stroke-width: 1.5; stroke-linecap: square"/>
     <g>
      <use xlink:href="#m4e7cd54ec6" x="82.41375" y="98.835781" style="fill: #d62728; stroke: #d62728"/>
     </g>
    </g>
    <g id="text_11">
     <!-- eig_numpy -->
     <g transform="translate(105.81375 103.385781) scale(0.13 -0.13)">
      <use xlink:href="#DejaVuSans-65"/>
      <use xlink:href="#DejaVuSans-69" x="61.523438"/>
      <use xlink:href="#DejaVuSans-67" x="89.306641"/>
      <use xlink:href="#DejaVuSans-5f" x="152.783203"/>
      <use xlink:href="#DejaVuSans-6e" x="202.783203"/>
      <use xlink:href="#DejaVuSans-75" x="266.162109"/>
      <use xlink:href="#DejaVuSans-6d" x="329.541016"/>
      <use xlink:href="#DejaVuSans-70" x="426.953125"/>
      <use xlink:href="#DejaVuSans-79" x="490.429688"/>
     </g>
    </g>
    <g id="line2d_53">
     <path d="M 69.41375 118.278906 
L 82.41375 118.278906 
L 95.41375 118.278906 
" style="fill: none; stroke: #9467bd; stroke-width: 1.5; stroke-linecap: square"/>
     <g>
      <use xlink:href="#m2e451de221" x="82.41375" y="118.278906" style="fill: #9467bd; stroke: #9467bd"/>
     </g>
    </g>
    <g id="text_12">
     <!-- eig_scipy -->
     <g transform="translate(105.81375 122.828906) scale(0.13 -0.13)">
      <use xlink:href="#DejaVuSans-65"/>
      <use xlink:href="#DejaVuSans-69" x="61.523438"/>
      <use xlink:href="#DejaVuSans-67" x="89.306641"/>
      <use xlink:href="#DejaVuSans-5f" x="152.783203"/>
      <use xlink:href="#DejaVuSans-73" x="202.783203"/>
      <use xlink:href="#DejaVuSans-63" x="254.882812"/>
      <use xlink:href="#DejaVuSans-69" x="309.863281"/>
      <use xlink:href="#DejaVuSans-70" x="337.646484"/>
      <use xlink:href="#DejaVuSans-79" x="401.123047"/>
     </g>
    </g>
    <g id="line2d_54">
     <path d="M 69.41375 137.722031 
L 82.41375 137.722031 
L 95.41375 137.722031 
" style="fill: none; stroke: #8c564b; stroke-width: 1.5; stroke-linecap: square"/>
     <g>
      <use xlink:href="#mc693e5a59f" x="82.41375" y="137.722031" style="fill: #8c564b; stroke: #8c564b"/>
     </g>
    </g>
    <g id="text_13">
     <!-- power_numpy -->
     <g transform="translate(105.81375 142.272031) scale(0.13 -0.13)">
      <defs>
       <path id="DejaVuSans-77" d="M 269 3500 
L 844 3500 
L 1563 769 
L 2278 3500 
L 2956 3500 
L 3675 769 
L 4391 3500 
L 4966 3500 
L 4050 0 
L 3372 0 
L 2619 2869 
L 1863 0 
L 1184 0 
L 269 3500 
z
" transform="scale(0.015625)"/>
      </defs>
      <use xlink:href="#DejaVuSans-70"/>
      <use xlink:href="#DejaVuSans-6f" x="63.476562"/>
      <use xlink:href="#DejaVuSans-77" x="124.658203"/>
      <use xlink:href="#DejaVuSans-65" x="206.445312"/>
      <use xlink:href="#DejaVuSans-72" x="267.96875"/>
      <use xlink:href="#DejaVuSans-5f" x="309.082031"/>
      <use xlink:href="#DejaVuSans-6e" x="359.082031"/>
      <use xlink:href="#DejaVuSans-75" x="422.460938"/>
      <use xlink:href="#DejaVuSans-6d" x="485.839844"/>
      <use xlink:href="#DejaVuSans-70" x="583.251953"/>
      <use xlink:href="#DejaVuSans-79" x="646.728516"/>
     </g>
    </g>
    <g id="line2d_55">
     <path d="M 69.41375 157.165156 
L 82.41375 157.165156 
L 95.41375 157.165156 
" style="fill: none; stroke: #e377c2; stroke-width: 1.5; stroke-linecap: square"/>
     <g>
      <use xlink:href="#m2bb4bc9bf8" x="82.41375" y="157.165156" style="fill: #e377c2; stroke: #e377c2"/>
     </g>
    </g>
    <g id="text_14">
     <!-- power_scipy -->
     <g transform="translate(105.81375 161.715156) scale(0.13 -0.13)">
      <use xlink:href="#DejaVuSans-70"/>
      <use xlink:href="#DejaVuSans-6f" x="63.476562"/>
      <use xlink:href="#DejaVuSans-77" x="124.658203"/>
      <use xlink:href="#DejaVuSans-65" x="206.445312"/>
      <use xlink:href="#DejaVuSans-72" x="267.96875"/>
      <use xlink:href="#DejaVuSans-5f" x="309.082031"/>
      <use xlink:href="#DejaVuSans-73" x="359.082031"/>
      <use xlink:href="#DejaVuSans-63" x="411.181641"/>
      <use xlink:href="#DejaVuSans-69" x="466.162109"/>
      <use xlink:href="#DejaVuSans-70" x="493.945312"/>
      <use xlink:href="#DejaVuSans-79" x="557.421875"/>
     </g>
    </g>
   </g>
  </g>
 </g>
 <defs>
  <clipPath id="pa4c1f3d205">
   <rect x="57.71375" y="23.84" width="1004.4" height="554.4"/>
  </clipPath>
 </defs>
</svg>
