<?xml version="1.0" encoding="utf-8" standalone="no"?>
<!DOCTYPE svg PUBLIC "-//W3C//DTD SVG 1.1//EN"
  "http://www.w3.org/Graphics/SVG/1.1/DTD/svg11.dtd">
<svg xmlns:xlink="http://www.w3.org/1999/xlink" width="1069.31375pt" height="617.731875pt" viewBox="0 0 1069.31375 617.731875" xmlns="http://www.w3.org/2000/svg" version="1.1">
 <metadata>
  <rdf:RDF xmlns:dc="http://purl.org/dc/elements/1.1/" xmlns:cc="http://creativecommons.org/ns#" xmlns:rdf="http://www.w3.org/1999/02/22-rdf-syntax-ns#">
   <cc:Work>
    <dc:type rdf:resource="http://purl.org/dc/dcmitype/StillImage"/>
    <dc:date>2025-05-11T17:34:39.614635</dc:date>
    <dc:format>image/svg+xml</dc:format>
    <dc:creator>
     <cc:Agent>
      <dc:title>Matplotlib v3.7.3, https://matplotlib.org/</dc:title>
     </cc:Agent>
    </dc:creator>
   </cc:Work>
  </rdf:RDF>
 </metadata>
 <defs>
  <style type="text/css">*{stroke-linejoin: round; stroke-linecap: butt}</style>
 </defs>
 <g id="figure_1">
  <g id="patch_1">
   <path d="M 0 617.731875 
L 1069.31375 617.731875 
L 1069.31375 0 
L 0 0 
z
" style="fill: #ffffff"/>
  </g>
  <g id="axes_1">
   <g id="patch_2">
    <path d="M 57.71375 578.24 
L 1062.11375 578.24 
L 1062.11375 23.84 
L 57.71375 23.84 
z
" style="fill: #ffffff"/>
   </g>
   <g id="matplotlib.axis_1">
    <g id="xtick_1">
     <g id="line2d_1">
      <path d="M 103.368295 578.24 
L 103.368295 23.84 
" clip-path="url(#p52468d5d08)" style="fill: none; stroke-dasharray: 2.96,1.28; stroke-dashoffset: 0; stroke: #b0b0b0; stroke-width: 0.8"/>
     </g>
     <g id="line2d_2">
      <defs>
       <path id="m7f74320d0c" d="M 0 0 
L 0 3.5 
" style="stroke: #000000; stroke-width: 0.8"/>
      </defs>
      <g>
       <use xlink:href="#m7f74320d0c" x="103.368295" y="578.24" style="stroke: #000000; stroke-width: 0.8"/>
      </g>
     </g>
     <g id="text_1">
      <!-- $\mathdefault{10^{1}}$ -->
      <g transform="translate(94.568295 592.838438) scale(0.1 -0.1)">
       <defs>
        <path id="DejaVuSans-31" d="M 794 531 
L 1825 531 
L 1825 4091 
L 703 3866 
L 703 4441 
L 1819 4666 
L 2450 4666 
L 2450 531 
L 3481 531 
L 3481 0 
L 794 0 
L 794 531 
z
" transform="scale(0.015625)"/>
        <path id="DejaVuSans-30" d="M 2034 4250 
Q 1547 4250 1301 3770 
Q 1056 3291 1056 2328 
Q 1056 1369 1301 889 
Q 1547 409 2034 409 
Q 2525 409 2770 889 
Q 3016 1369 3016 2328 
Q 3016 3291 2770 3770 
Q 2525 4250 2034 4250 
z
M 2034 4750 
Q 2819 4750 3233 4129 
Q 3647 3509 3647 2328 
Q 3647 1150 3233 529 
Q 2819 -91 2034 -91 
Q 1250 -91 836 529 
Q 422 1150 422 2328 
Q 422 3509 836 4129 
Q 1250 4750 2034 4750 
z
" transform="scale(0.015625)"/>
       </defs>
       <use xlink:href="#DejaVuSans-31" transform="translate(0 0.684375)"/>
       <use xlink:href="#DejaVuSans-30" transform="translate(63.623047 0.684375)"/>
       <use xlink:href="#DejaVuSans-31" transform="translate(128.203125 38.965625) scale(0.7)"/>
      </g>
     </g>
    </g>
    <g id="xtick_2">
     <g id="line2d_3">
      <path d="M 559.91375 578.24 
L 559.91375 23.84 
" clip-path="url(#p52468d5d08)" style="fill: none; stroke-dasharray: 2.96,1.28; stroke-dashoffset: 0; stroke: #b0b0b0; stroke-width: 0.8"/>
     </g>
     <g id="line2d_4">
      <g>
       <use xlink:href="#m7f74320d0c" x="559.91375" y="578.24" style="stroke: #000000; stroke-width: 0.8"/>
      </g>
     </g>
     <g id="text_2">
      <!-- $\mathdefault{10^{2}}$ -->
      <g transform="translate(551.11375 592.838438) scale(0.1 -0.1)">
       <defs>
        <path id="DejaVuSans-32" d="M 1228 531 
L 3431 531 
L 3431 0 
L 469 0 
L 469 531 
Q 828 903 1448 1529 
Q 2069 2156 2228 2338 
Q 2531 2678 2651 2914 
Q 2772 3150 2772 3378 
Q 2772 3750 2511 3984 
Q 2250 4219 1831 4219 
Q 1534 4219 1204 4116 
Q 875 4013 500 3803 
L 500 4441 
Q 881 4594 1212 4672 
Q 1544 4750 1819 4750 
Q 2544 4750 2975 4387 
Q 3406 4025 3406 3419 
Q 3406 3131 3298 2873 
Q 3191 2616 2906 2266 
Q 2828 2175 2409 1742 
Q 1991 1309 1228 531 
z
" transform="scale(0.015625)"/>
       </defs>
       <use xlink:href="#DejaVuSans-31" transform="translate(0 0.765625)"/>
       <use xlink:href="#DejaVuSans-30" transform="translate(63.623047 0.765625)"/>
       <use xlink:href="#DejaVuSans-32" transform="translate(128.203125 39.046875) scale(0.7)"/>
      </g>
     </g>
    </g>
    <g id="xtick_3">
     <g id="line2d_5">
      <path d="M 1016.459205 578.24 
L 1016.459205 23.84 
" clip-path="url(#p52468d5d08)" style="fill: none; stroke-dasharray: 2.96,1.28; stroke-dashoffset: 0; stroke: #b0b0b0; stroke-width: 0.8"/>
     </g>
     <g id="line2d_6">
      <g>
       <use xlink:href="#m7f74320d0c" x="1016.459205" y="578.24" style="stroke: #000000; stroke-width: 0.8"/>
      </g>
     </g>
     <g id="text_3">
      <!-- $\mathdefault{10^{3}}$ -->
      <g transform="translate(1007.659205 592.838438) scale(0.1 -0.1)">
       <defs>
        <path id="DejaVuSans-33" d="M 2597 2516 
Q 3050 2419 3304 2112 
Q 3559 1806 3559 1356 
Q 3559 666 3084 287 
Q 2609 -91 1734 -91 
Q 1441 -91 1130 -33 
Q 819 25 488 141 
L 488 750 
Q 750 597 1062 519 
Q 1375 441 1716 441 
Q 2309 441 2620 675 
Q 2931 909 2931 1356 
Q 2931 1769 2642 2001 
Q 2353 2234 1838 2234 
L 1294 2234 
L 1294 2753 
L 1863 2753 
Q 2328 2753 2575 2939 
Q 2822 3125 2822 3475 
Q 2822 3834 2567 4026 
Q 2313 4219 1838 4219 
Q 1578 4219 1281 4162 
Q 984 4106 628 3988 
L 628 4550 
Q 988 4650 1302 4700 
Q 1616 4750 1894 4750 
Q 2613 4750 3031 4423 
Q 3450 4097 3450 3541 
Q 3450 3153 3228 2886 
Q 3006 2619 2597 2516 
z
" transform="scale(0.015625)"/>
       </defs>
       <use xlink:href="#DejaVuSans-31" transform="translate(0 0.765625)"/>
       <use xlink:href="#DejaVuSans-30" transform="translate(63.623047 0.765625)"/>
       <use xlink:href="#DejaVuSans-33" transform="translate(128.203125 39.046875) scale(0.7)"/>
      </g>
     </g>
    </g>
    <g id="xtick_4">
     <g id="line2d_7">
      <path d="M 59.12447 578.24 
L 59.12447 23.84 
" clip-path="url(#p52468d5d08)" style="fill: none; stroke-dasharray: 2.96,1.28; stroke-dashoffset: 0; stroke: #b0b0b0; stroke-width: 0.8"/>
     </g>
     <g id="line2d_8">
      <defs>
       <path id="med730bccf5" d="M 0 0 
L 0 2 
" style="stroke: #000000; stroke-width: 0.6"/>
      </defs>
      <g>
       <use xlink:href="#med730bccf5" x="59.12447" y="578.24" style="stroke: #000000; stroke-width: 0.6"/>
      </g>
     </g>
    </g>
    <g id="xtick_5">
     <g id="line2d_9">
      <path d="M 82.477921 578.24 
L 82.477921 23.84 
" clip-path="url(#p52468d5d08)" style="fill: none; stroke-dasharray: 2.96,1.28; stroke-dashoffset: 0; stroke: #b0b0b0; stroke-width: 0.8"/>
     </g>
     <g id="line2d_10">
      <g>
       <use xlink:href="#med730bccf5" x="82.477921" y="578.24" style="stroke: #000000; stroke-width: 0.6"/>
      </g>
     </g>
    </g>
    <g id="xtick_6">
     <g id="line2d_11">
      <path d="M 240.802172 578.24 
L 240.802172 23.84 
" clip-path="url(#p52468d5d08)" style="fill: none; stroke-dasharray: 2.96,1.28; stroke-dashoffset: 0; stroke: #b0b0b0; stroke-width: 0.8"/>
     </g>
     <g id="line2d_12">
      <g>
       <use xlink:href="#med730bccf5" x="240.802172" y="578.24" style="stroke: #000000; stroke-width: 0.6"/>
      </g>
     </g>
    </g>
    <g id="xtick_7">
     <g id="line2d_13">
      <path d="M 321.195836 578.24 
L 321.195836 23.84 
" clip-path="url(#p52468d5d08)" style="fill: none; stroke-dasharray: 2.96,1.28; stroke-dashoffset: 0; stroke: #b0b0b0; stroke-width: 0.8"/>
     </g>
     <g id="line2d_14">
      <g>
       <use xlink:href="#med730bccf5" x="321.195836" y="578.24" style="stroke: #000000; stroke-width: 0.6"/>
      </g>
     </g>
    </g>
    <g id="xtick_8">
     <g id="line2d_15">
      <path d="M 378.236048 578.24 
L 378.236048 23.84 
" clip-path="url(#p52468d5d08)" style="fill: none; stroke-dasharray: 2.96,1.28; stroke-dashoffset: 0; stroke: #b0b0b0; stroke-width: 0.8"/>
     </g>
     <g id="line2d_16">
      <g>
       <use xlink:href="#med730bccf5" x="378.236048" y="578.24" style="stroke: #000000; stroke-width: 0.6"/>
      </g>
     </g>
    </g>
    <g id="xtick_9">
     <g id="line2d_17">
      <path d="M 422.479874 578.24 
L 422.479874 23.84 
" clip-path="url(#p52468d5d08)" style="fill: none; stroke-dasharray: 2.96,1.28; stroke-dashoffset: 0; stroke: #b0b0b0; stroke-width: 0.8"/>
     </g>
     <g id="line2d_18">
      <g>
       <use xlink:href="#med730bccf5" x="422.479874" y="578.24" style="stroke: #000000; stroke-width: 0.6"/>
      </g>
     </g>
    </g>
    <g id="xtick_10">
     <g id="line2d_19">
      <path d="M 458.629712 578.24 
L 458.629712 23.84 
" clip-path="url(#p52468d5d08)" style="fill: none; stroke-dasharray: 2.96,1.28; stroke-dashoffset: 0; stroke: #b0b0b0; stroke-width: 0.8"/>
     </g>
     <g id="line2d_20">
      <g>
       <use xlink:href="#med730bccf5" x="458.629712" y="578.24" style="stroke: #000000; stroke-width: 0.6"/>
      </g>
     </g>
    </g>
    <g id="xtick_11">
     <g id="line2d_21">
      <path d="M 489.193964 578.24 
L 489.193964 23.84 
" clip-path="url(#p52468d5d08)" style="fill: none; stroke-dasharray: 2.96,1.28; stroke-dashoffset: 0; stroke: #b0b0b0; stroke-width: 0.8"/>
     </g>
     <g id="line2d_22">
      <g>
       <use xlink:href="#med730bccf5" x="489.193964" y="578.24" style="stroke: #000000; stroke-width: 0.6"/>
      </g>
     </g>
    </g>
    <g id="xtick_12">
     <g id="line2d_23">
      <path d="M 515.669924 578.24 
L 515.669924 23.84 
" clip-path="url(#p52468d5d08)" style="fill: none; stroke-dasharray: 2.96,1.28; stroke-dashoffset: 0; stroke: #b0b0b0; stroke-width: 0.8"/>
     </g>
     <g id="line2d_24">
      <g>
       <use xlink:href="#med730bccf5" x="515.669924" y="578.24" style="stroke: #000000; stroke-width: 0.6"/>
      </g>
     </g>
    </g>
    <g id="xtick_13">
     <g id="line2d_25">
      <path d="M 539.023376 578.24 
L 539.023376 23.84 
" clip-path="url(#p52468d5d08)" style="fill: none; stroke-dasharray: 2.96,1.28; stroke-dashoffset: 0; stroke: #b0b0b0; stroke-width: 0.8"/>
     </g>
     <g id="line2d_26">
      <g>
       <use xlink:href="#med730bccf5" x="539.023376" y="578.24" style="stroke: #000000; stroke-width: 0.6"/>
      </g>
     </g>
    </g>
    <g id="xtick_14">
     <g id="line2d_27">
      <path d="M 697.347626 578.24 
L 697.347626 23.84 
" clip-path="url(#p52468d5d08)" style="fill: none; stroke-dasharray: 2.96,1.28; stroke-dashoffset: 0; stroke: #b0b0b0; stroke-width: 0.8"/>
     </g>
     <g id="line2d_28">
      <g>
       <use xlink:href="#med730bccf5" x="697.347626" y="578.24" style="stroke: #000000; stroke-width: 0.6"/>
      </g>
     </g>
    </g>
    <g id="xtick_15">
     <g id="line2d_29">
      <path d="M 777.74129 578.24 
L 777.74129 23.84 
" clip-path="url(#p52468d5d08)" style="fill: none; stroke-dasharray: 2.96,1.28; stroke-dashoffset: 0; stroke: #b0b0b0; stroke-width: 0.8"/>
     </g>
     <g id="line2d_30">
      <g>
       <use xlink:href="#med730bccf5" x="777.74129" y="578.24" style="stroke: #000000; stroke-width: 0.6"/>
      </g>
     </g>
    </g>
    <g id="xtick_16">
     <g id="line2d_31">
      <path d="M 834.781502 578.24 
L 834.781502 23.84 
" clip-path="url(#p52468d5d08)" style="fill: none; stroke-dasharray: 2.96,1.28; stroke-dashoffset: 0; stroke: #b0b0b0; stroke-width: 0.8"/>
     </g>
     <g id="line2d_32">
      <g>
       <use xlink:href="#med730bccf5" x="834.781502" y="578.24" style="stroke: #000000; stroke-width: 0.6"/>
      </g>
     </g>
    </g>
    <g id="xtick_17">
     <g id="line2d_33">
      <path d="M 879.025328 578.24 
L 879.025328 23.84 
" clip-path="url(#p52468d5d08)" style="fill: none; stroke-dasharray: 2.96,1.28; stroke-dashoffset: 0; stroke: #b0b0b0; stroke-width: 0.8"/>
     </g>
     <g id="line2d_34">
      <g>
       <use xlink:href="#med730bccf5" x="879.025328" y="578.24" style="stroke: #000000; stroke-width: 0.6"/>
      </g>
     </g>
    </g>
    <g id="xtick_18">
     <g id="line2d_35">
      <path d="M 915.175166 578.24 
L 915.175166 23.84 
" clip-path="url(#p52468d5d08)" style="fill: none; stroke-dasharray: 2.96,1.28; stroke-dashoffset: 0; stroke: #b0b0b0; stroke-width: 0.8"/>
     </g>
     <g id="line2d_36">
      <g>
       <use xlink:href="#med730bccf5" x="915.175166" y="578.24" style="stroke: #000000; stroke-width: 0.6"/>
      </g>
     </g>
    </g>
    <g id="xtick_19">
     <g id="line2d_37">
      <path d="M 945.739419 578.24 
L 945.739419 23.84 
" clip-path="url(#p52468d5d08)" style="fill: none; stroke-dasharray: 2.96,1.28; stroke-dashoffset: 0; stroke: #b0b0b0; stroke-width: 0.8"/>
     </g>
     <g id="line2d_38">
      <g>
       <use xlink:href="#med730bccf5" x="945.739419" y="578.24" style="stroke: #000000; stroke-width: 0.6"/>
      </g>
     </g>
    </g>
    <g id="xtick_20">
     <g id="line2d_39">
      <path d="M 972.215379 578.24 
L 972.215379 23.84 
" clip-path="url(#p52468d5d08)" style="fill: none; stroke-dasharray: 2.96,1.28; stroke-dashoffset: 0; stroke: #b0b0b0; stroke-width: 0.8"/>
     </g>
     <g id="line2d_40">
      <g>
       <use xlink:href="#med730bccf5" x="972.215379" y="578.24" style="stroke: #000000; stroke-width: 0.6"/>
      </g>
     </g>
    </g>
    <g id="xtick_21">
     <g id="line2d_41">
      <path d="M 995.56883 578.24 
L 995.56883 23.84 
" clip-path="url(#p52468d5d08)" style="fill: none; stroke-dasharray: 2.96,1.28; stroke-dashoffset: 0; stroke: #b0b0b0; stroke-width: 0.8"/>
     </g>
     <g id="line2d_42">
      <g>
       <use xlink:href="#med730bccf5" x="995.56883" y="578.24" style="stroke: #000000; stroke-width: 0.6"/>
      </g>
     </g>
    </g>
    <g id="text_4">
     <!-- Dimensione matrice $n$ -->
     <g transform="translate(493.67375 608.03625) scale(0.12 -0.12)">
      <defs>
       <path id="DejaVuSans-44" d="M 1259 4147 
L 1259 519 
L 2022 519 
Q 2988 519 3436 956 
Q 3884 1394 3884 2338 
Q 3884 3275 3436 3711 
Q 2988 4147 2022 4147 
L 1259 4147 
z
M 628 4666 
L 1925 4666 
Q 3281 4666 3915 4102 
Q 4550 3538 4550 2338 
Q 4550 1131 3912 565 
Q 3275 0 1925 0 
L 628 0 
L 628 4666 
z
" transform="scale(0.015625)"/>
       <path id="DejaVuSans-69" d="M 603 3500 
L 1178 3500 
L 1178 0 
L 603 0 
L 603 3500 
z
M 603 4863 
L 1178 4863 
L 1178 4134 
L 603 4134 
L 603 4863 
z
" transform="scale(0.015625)"/>
       <path id="DejaVuSans-6d" d="M 3328 2828 
Q 3544 3216 3844 3400 
Q 4144 3584 4550 3584 
Q 5097 3584 5394 3201 
Q 5691 2819 5691 2113 
L 5691 0 
L 5113 0 
L 5113 2094 
Q 5113 2597 4934 2840 
Q 4756 3084 4391 3084 
Q 3944 3084 3684 2787 
Q 3425 2491 3425 1978 
L 3425 0 
L 2847 0 
L 2847 2094 
Q 2847 2600 2669 2842 
Q 2491 3084 2119 3084 
Q 1678 3084 1418 2786 
Q 1159 2488 1159 1978 
L 1159 0 
L 581 0 
L 581 3500 
L 1159 3500 
L 1159 2956 
Q 1356 3278 1631 3431 
Q 1906 3584 2284 3584 
Q 2666 3584 2933 3390 
Q 3200 3197 3328 2828 
z
" transform="scale(0.015625)"/>
       <path id="DejaVuSans-65" d="M 3597 1894 
L 3597 1613 
L 953 1613 
Q 991 1019 1311 708 
Q 1631 397 2203 397 
Q 2534 397 2845 478 
Q 3156 559 3463 722 
L 3463 178 
Q 3153 47 2828 -22 
Q 2503 -91 2169 -91 
Q 1331 -91 842 396 
Q 353 884 353 1716 
Q 353 2575 817 3079 
Q 1281 3584 2069 3584 
Q 2775 3584 3186 3129 
Q 3597 2675 3597 1894 
z
M 3022 2063 
Q 3016 2534 2758 2815 
Q 2500 3097 2075 3097 
Q 1594 3097 1305 2825 
Q 1016 2553 972 2059 
L 3022 2063 
z
" transform="scale(0.015625)"/>
       <path id="DejaVuSans-6e" d="M 3513 2113 
L 3513 0 
L 2938 0 
L 2938 2094 
Q 2938 2591 2744 2837 
Q 2550 3084 2163 3084 
Q 1697 3084 1428 2787 
Q 1159 2491 1159 1978 
L 1159 0 
L 581 0 
L 581 3500 
L 1159 3500 
L 1159 2956 
Q 1366 3272 1645 3428 
Q 1925 3584 2291 3584 
Q 2894 3584 3203 3211 
Q 3513 2838 3513 2113 
z
" transform="scale(0.015625)"/>
       <path id="DejaVuSans-73" d="M 2834 3397 
L 2834 2853 
Q 2591 2978 2328 3040 
Q 2066 3103 1784 3103 
Q 1356 3103 1142 2972 
Q 928 2841 928 2578 
Q 928 2378 1081 2264 
Q 1234 2150 1697 2047 
L 1894 2003 
Q 2506 1872 2764 1633 
Q 3022 1394 3022 966 
Q 3022 478 2636 193 
Q 2250 -91 1575 -91 
Q 1294 -91 989 -36 
Q 684 19 347 128 
L 347 722 
Q 666 556 975 473 
Q 1284 391 1588 391 
Q 1994 391 2212 530 
Q 2431 669 2431 922 
Q 2431 1156 2273 1281 
Q 2116 1406 1581 1522 
L 1381 1569 
Q 847 1681 609 1914 
Q 372 2147 372 2553 
Q 372 3047 722 3315 
Q 1072 3584 1716 3584 
Q 2034 3584 2315 3537 
Q 2597 3491 2834 3397 
z
" transform="scale(0.015625)"/>
       <path id="DejaVuSans-6f" d="M 1959 3097 
Q 1497 3097 1228 2736 
Q 959 2375 959 1747 
Q 959 1119 1226 758 
Q 1494 397 1959 397 
Q 2419 397 2687 759 
Q 2956 1122 2956 1747 
Q 2956 2369 2687 2733 
Q 2419 3097 1959 3097 
z
M 1959 3584 
Q 2709 3584 3137 3096 
Q 3566 2609 3566 1747 
Q 3566 888 3137 398 
Q 2709 -91 1959 -91 
Q 1206 -91 779 398 
Q 353 888 353 1747 
Q 353 2609 779 3096 
Q 1206 3584 1959 3584 
z
" transform="scale(0.015625)"/>
       <path id="DejaVuSans-20" transform="scale(0.015625)"/>
       <path id="DejaVuSans-61" d="M 2194 1759 
Q 1497 1759 1228 1600 
Q 959 1441 959 1056 
Q 959 750 1161 570 
Q 1363 391 1709 391 
Q 2188 391 2477 730 
Q 2766 1069 2766 1631 
L 2766 1759 
L 2194 1759 
z
M 3341 1997 
L 3341 0 
L 2766 0 
L 2766 531 
Q 2569 213 2275 61 
Q 1981 -91 1556 -91 
Q 1019 -91 701 211 
Q 384 513 384 1019 
Q 384 1609 779 1909 
Q 1175 2209 1959 2209 
L 2766 2209 
L 2766 2266 
Q 2766 2663 2505 2880 
Q 2244 3097 1772 3097 
Q 1472 3097 1187 3025 
Q 903 2953 641 2809 
L 641 3341 
Q 956 3463 1253 3523 
Q 1550 3584 1831 3584 
Q 2591 3584 2966 3190 
Q 3341 2797 3341 1997 
z
" transform="scale(0.015625)"/>
       <path id="DejaVuSans-74" d="M 1172 4494 
L 1172 3500 
L 2356 3500 
L 2356 3053 
L 1172 3053 
L 1172 1153 
Q 1172 725 1289 603 
Q 1406 481 1766 481 
L 2356 481 
L 2356 0 
L 1766 0 
Q 1100 0 847 248 
Q 594 497 594 1153 
L 594 3053 
L 172 3053 
L 172 3500 
L 594 3500 
L 594 4494 
L 1172 4494 
z
" transform="scale(0.015625)"/>
       <path id="DejaVuSans-72" d="M 2631 2963 
Q 2534 3019 2420 3045 
Q 2306 3072 2169 3072 
Q 1681 3072 1420 2755 
Q 1159 2438 1159 1844 
L 1159 0 
L 581 0 
L 581 3500 
L 1159 3500 
L 1159 2956 
Q 1341 3275 1631 3429 
Q 1922 3584 2338 3584 
Q 2397 3584 2469 3576 
Q 2541 3569 2628 3553 
L 2631 2963 
z
" transform="scale(0.015625)"/>
       <path id="DejaVuSans-63" d="M 3122 3366 
L 3122 2828 
Q 2878 2963 2633 3030 
Q 2388 3097 2138 3097 
Q 1578 3097 1268 2742 
Q 959 2388 959 1747 
Q 959 1106 1268 751 
Q 1578 397 2138 397 
Q 2388 397 2633 464 
Q 2878 531 3122 666 
L 3122 134 
Q 2881 22 2623 -34 
Q 2366 -91 2075 -91 
Q 1284 -91 818 406 
Q 353 903 353 1747 
Q 353 2603 823 3093 
Q 1294 3584 2113 3584 
Q 2378 3584 2631 3529 
Q 2884 3475 3122 3366 
z
" transform="scale(0.015625)"/>
       <path id="DejaVuSans-Oblique-6e" d="M 3566 2113 
L 3156 0 
L 2578 0 
L 2988 2091 
Q 3016 2238 3031 2350 
Q 3047 2463 3047 2528 
Q 3047 2791 2881 2937 
Q 2716 3084 2419 3084 
Q 1956 3084 1622 2776 
Q 1288 2469 1184 1941 
L 800 0 
L 225 0 
L 903 3500 
L 1478 3500 
L 1363 2950 
Q 1603 3253 1940 3418 
Q 2278 3584 2650 3584 
Q 3113 3584 3367 3334 
Q 3622 3084 3622 2631 
Q 3622 2519 3608 2391 
Q 3594 2263 3566 2113 
z
" transform="scale(0.015625)"/>
      </defs>
      <use xlink:href="#DejaVuSans-44" transform="translate(0 0.015625)"/>
      <use xlink:href="#DejaVuSans-69" transform="translate(77.001953 0.015625)"/>
      <use xlink:href="#DejaVuSans-6d" transform="translate(104.785156 0.015625)"/>
      <use xlink:href="#DejaVuSans-65" transform="translate(202.197266 0.015625)"/>
      <use xlink:href="#DejaVuSans-6e" transform="translate(263.720703 0.015625)"/>
      <use xlink:href="#DejaVuSans-73" transform="translate(327.099609 0.015625)"/>
      <use xlink:href="#DejaVuSans-69" transform="translate(379.199219 0.015625)"/>
      <use xlink:href="#DejaVuSans-6f" transform="translate(406.982422 0.015625)"/>
      <use xlink:href="#DejaVuSans-6e" transform="translate(468.164062 0.015625)"/>
      <use xlink:href="#DejaVuSans-65" transform="translate(531.542969 0.015625)"/>
      <use xlink:href="#DejaVuSans-20" transform="translate(593.066406 0.015625)"/>
      <use xlink:href="#DejaVuSans-6d" transform="translate(624.853516 0.015625)"/>
      <use xlink:href="#DejaVuSans-61" transform="translate(722.265625 0.015625)"/>
      <use xlink:href="#DejaVuSans-74" transform="translate(783.544922 0.015625)"/>
      <use xlink:href="#DejaVuSans-72" transform="translate(822.753906 0.015625)"/>
      <use xlink:href="#DejaVuSans-69" transform="translate(863.867188 0.015625)"/>
      <use xlink:href="#DejaVuSans-63" transform="translate(891.650391 0.015625)"/>
      <use xlink:href="#DejaVuSans-65" transform="translate(946.630859 0.015625)"/>
      <use xlink:href="#DejaVuSans-20" transform="translate(1008.154297 0.015625)"/>
      <use xlink:href="#DejaVuSans-Oblique-6e" transform="translate(1039.941406 0.015625)"/>
     </g>
    </g>
   </g>
   <g id="matplotlib.axis_2">
    <g id="ytick_1">
     <g id="line2d_43">
      <path d="M 57.71375 467.743759 
L 1062.11375 467.743759 
" clip-path="url(#p52468d5d08)" style="fill: none; stroke-dasharray: 2.96,1.28; stroke-dashoffset: 0; stroke: #b0b0b0; stroke-width: 0.8"/>
     </g>
     <g id="line2d_44">
      <defs>
       <path id="mb549d02d21" d="M 0 0 
L -3.5 0 
" style="stroke: #000000; stroke-width: 0.8"/>
      </defs>
      <g>
       <use xlink:href="#mb549d02d21" x="57.71375" y="467.743759" style="stroke: #000000; stroke-width: 0.8"/>
      </g>
     </g>
     <g id="text_5">
      <!-- $\mathdefault{10^{-15}}$ -->
      <g transform="translate(22.81375 471.542978) scale(0.1 -0.1)">
       <defs>
        <path id="DejaVuSans-2212" d="M 678 2272 
L 4684 2272 
L 4684 1741 
L 678 1741 
L 678 2272 
z
" transform="scale(0.015625)"/>
        <path id="DejaVuSans-35" d="M 691 4666 
L 3169 4666 
L 3169 4134 
L 1269 4134 
L 1269 2991 
Q 1406 3038 1543 3061 
Q 1681 3084 1819 3084 
Q 2600 3084 3056 2656 
Q 3513 2228 3513 1497 
Q 3513 744 3044 326 
Q 2575 -91 1722 -91 
Q 1428 -91 1123 -41 
Q 819 9 494 109 
L 494 744 
Q 775 591 1075 516 
Q 1375 441 1709 441 
Q 2250 441 2565 725 
Q 2881 1009 2881 1497 
Q 2881 1984 2565 2268 
Q 2250 2553 1709 2553 
Q 1456 2553 1204 2497 
Q 953 2441 691 2322 
L 691 4666 
z
" transform="scale(0.015625)"/>
       </defs>
       <use xlink:href="#DejaVuSans-31" transform="translate(0 0.684375)"/>
       <use xlink:href="#DejaVuSans-30" transform="translate(63.623047 0.684375)"/>
       <use xlink:href="#DejaVuSans-2212" transform="translate(128.203125 38.965625) scale(0.7)"/>
       <use xlink:href="#DejaVuSans-31" transform="translate(186.855469 38.965625) scale(0.7)"/>
       <use xlink:href="#DejaVuSans-35" transform="translate(231.391602 38.965625) scale(0.7)"/>
      </g>
     </g>
    </g>
    <g id="ytick_2">
     <g id="line2d_45">
      <path d="M 57.71375 109.29677 
L 1062.11375 109.29677 
" clip-path="url(#p52468d5d08)" style="fill: none; stroke-dasharray: 2.96,1.28; stroke-dashoffset: 0; stroke: #b0b0b0; stroke-width: 0.8"/>
     </g>
     <g id="line2d_46">
      <g>
       <use xlink:href="#mb549d02d21" x="57.71375" y="109.29677" style="stroke: #000000; stroke-width: 0.8"/>
      </g>
     </g>
     <g id="text_6">
      <!-- $\mathdefault{10^{-14}}$ -->
      <g transform="translate(22.81375 113.095988) scale(0.1 -0.1)">
       <defs>
        <path id="DejaVuSans-34" d="M 2419 4116 
L 825 1625 
L 2419 1625 
L 2419 4116 
z
M 2253 4666 
L 3047 4666 
L 3047 1625 
L 3713 1625 
L 3713 1100 
L 3047 1100 
L 3047 0 
L 2419 0 
L 2419 1100 
L 313 1100 
L 313 1709 
L 2253 4666 
z
" transform="scale(0.015625)"/>
       </defs>
       <use xlink:href="#DejaVuSans-31" transform="translate(0 0.684375)"/>
       <use xlink:href="#DejaVuSans-30" transform="translate(63.623047 0.684375)"/>
       <use xlink:href="#DejaVuSans-2212" transform="translate(128.203125 38.965625) scale(0.7)"/>
       <use xlink:href="#DejaVuSans-31" transform="translate(186.855469 38.965625) scale(0.7)"/>
       <use xlink:href="#DejaVuSans-34" transform="translate(231.391602 38.965625) scale(0.7)"/>
      </g>
     </g>
    </g>
    <g id="ytick_3">
     <g id="line2d_47">
      <path d="M 57.71375 575.647055 
L 1062.11375 575.647055 
" clip-path="url(#p52468d5d08)" style="fill: none; stroke-dasharray: 2.96,1.28; stroke-dashoffset: 0; stroke: #b0b0b0; stroke-width: 0.8"/>
     </g>
     <g id="line2d_48">
      <defs>
       <path id="m07b13a6eb5" d="M 0 0 
L -2 0 
" style="stroke: #000000; stroke-width: 0.6"/>
      </defs>
      <g>
       <use xlink:href="#m07b13a6eb5" x="57.71375" y="575.647055" style="stroke: #000000; stroke-width: 0.6"/>
      </g>
     </g>
    </g>
    <g id="ytick_4">
     <g id="line2d_49">
      <path d="M 57.71375 547.264776 
L 1062.11375 547.264776 
" clip-path="url(#p52468d5d08)" style="fill: none; stroke-dasharray: 2.96,1.28; stroke-dashoffset: 0; stroke: #b0b0b0; stroke-width: 0.8"/>
     </g>
     <g id="line2d_50">
      <g>
       <use xlink:href="#m07b13a6eb5" x="57.71375" y="547.264776" style="stroke: #000000; stroke-width: 0.6"/>
      </g>
     </g>
    </g>
    <g id="ytick_5">
     <g id="line2d_51">
      <path d="M 57.71375 523.267901 
L 1062.11375 523.267901 
" clip-path="url(#p52468d5d08)" style="fill: none; stroke-dasharray: 2.96,1.28; stroke-dashoffset: 0; stroke: #b0b0b0; stroke-width: 0.8"/>
     </g>
     <g id="line2d_52">
      <g>
       <use xlink:href="#m07b13a6eb5" x="57.71375" y="523.267901" style="stroke: #000000; stroke-width: 0.6"/>
      </g>
     </g>
    </g>
    <g id="ytick_6">
     <g id="line2d_53">
      <path d="M 57.71375 502.480862 
L 1062.11375 502.480862 
" clip-path="url(#p52468d5d08)" style="fill: none; stroke-dasharray: 2.96,1.28; stroke-dashoffset: 0; stroke: #b0b0b0; stroke-width: 0.8"/>
     </g>
     <g id="line2d_54">
      <g>
       <use xlink:href="#m07b13a6eb5" x="57.71375" y="502.480862" style="stroke: #000000; stroke-width: 0.6"/>
      </g>
     </g>
    </g>
    <g id="ytick_7">
     <g id="line2d_55">
      <path d="M 57.71375 484.145394 
L 1062.11375 484.145394 
" clip-path="url(#p52468d5d08)" style="fill: none; stroke-dasharray: 2.96,1.28; stroke-dashoffset: 0; stroke: #b0b0b0; stroke-width: 0.8"/>
     </g>
     <g id="line2d_56">
      <g>
       <use xlink:href="#m07b13a6eb5" x="57.71375" y="484.145394" style="stroke: #000000; stroke-width: 0.6"/>
      </g>
     </g>
    </g>
    <g id="ytick_8">
     <g id="line2d_57">
      <path d="M 57.71375 359.840464 
L 1062.11375 359.840464 
" clip-path="url(#p52468d5d08)" style="fill: none; stroke-dasharray: 2.96,1.28; stroke-dashoffset: 0; stroke: #b0b0b0; stroke-width: 0.8"/>
     </g>
     <g id="line2d_58">
      <g>
       <use xlink:href="#m07b13a6eb5" x="57.71375" y="359.840464" style="stroke: #000000; stroke-width: 0.6"/>
      </g>
     </g>
    </g>
    <g id="ytick_9">
     <g id="line2d_59">
      <path d="M 57.71375 296.721082 
L 1062.11375 296.721082 
" clip-path="url(#p52468d5d08)" style="fill: none; stroke-dasharray: 2.96,1.28; stroke-dashoffset: 0; stroke: #b0b0b0; stroke-width: 0.8"/>
     </g>
     <g id="line2d_60">
      <g>
       <use xlink:href="#m07b13a6eb5" x="57.71375" y="296.721082" style="stroke: #000000; stroke-width: 0.6"/>
      </g>
     </g>
    </g>
    <g id="ytick_10">
     <g id="line2d_61">
      <path d="M 57.71375 251.937168 
L 1062.11375 251.937168 
" clip-path="url(#p52468d5d08)" style="fill: none; stroke-dasharray: 2.96,1.28; stroke-dashoffset: 0; stroke: #b0b0b0; stroke-width: 0.8"/>
     </g>
     <g id="line2d_62">
      <g>
       <use xlink:href="#m07b13a6eb5" x="57.71375" y="251.937168" style="stroke: #000000; stroke-width: 0.6"/>
      </g>
     </g>
    </g>
    <g id="ytick_11">
     <g id="line2d_63">
      <path d="M 57.71375 217.200065 
L 1062.11375 217.200065 
" clip-path="url(#p52468d5d08)" style="fill: none; stroke-dasharray: 2.96,1.28; stroke-dashoffset: 0; stroke: #b0b0b0; stroke-width: 0.8"/>
     </g>
     <g id="line2d_64">
      <g>
       <use xlink:href="#m07b13a6eb5" x="57.71375" y="217.200065" style="stroke: #000000; stroke-width: 0.6"/>
      </g>
     </g>
    </g>
    <g id="ytick_12">
     <g id="line2d_65">
      <path d="M 57.71375 188.817786 
L 1062.11375 188.817786 
" clip-path="url(#p52468d5d08)" style="fill: none; stroke-dasharray: 2.96,1.28; stroke-dashoffset: 0; stroke: #b0b0b0; stroke-width: 0.8"/>
     </g>
     <g id="line2d_66">
      <g>
       <use xlink:href="#m07b13a6eb5" x="57.71375" y="188.817786" style="stroke: #000000; stroke-width: 0.6"/>
      </g>
     </g>
    </g>
    <g id="ytick_13">
     <g id="line2d_67">
      <path d="M 57.71375 164.820911 
L 1062.11375 164.820911 
" clip-path="url(#p52468d5d08)" style="fill: none; stroke-dasharray: 2.96,1.28; stroke-dashoffset: 0; stroke: #b0b0b0; stroke-width: 0.8"/>
     </g>
     <g id="line2d_68">
      <g>
       <use xlink:href="#m07b13a6eb5" x="57.71375" y="164.820911" style="stroke: #000000; stroke-width: 0.6"/>
      </g>
     </g>
    </g>
    <g id="ytick_14">
     <g id="line2d_69">
      <path d="M 57.71375 144.033872 
L 1062.11375 144.033872 
" clip-path="url(#p52468d5d08)" style="fill: none; stroke-dasharray: 2.96,1.28; stroke-dashoffset: 0; stroke: #b0b0b0; stroke-width: 0.8"/>
     </g>
     <g id="line2d_70">
      <g>
       <use xlink:href="#m07b13a6eb5" x="57.71375" y="144.033872" style="stroke: #000000; stroke-width: 0.6"/>
      </g>
     </g>
    </g>
    <g id="ytick_15">
     <g id="line2d_71">
      <path d="M 57.71375 125.698404 
L 1062.11375 125.698404 
" clip-path="url(#p52468d5d08)" style="fill: none; stroke-dasharray: 2.96,1.28; stroke-dashoffset: 0; stroke: #b0b0b0; stroke-width: 0.8"/>
     </g>
     <g id="line2d_72">
      <g>
       <use xlink:href="#m07b13a6eb5" x="57.71375" y="125.698404" style="stroke: #000000; stroke-width: 0.6"/>
      </g>
     </g>
    </g>
    <g id="text_7">
     <!-- Errore -->
     <g transform="translate(16.318125 319.219063) rotate(-90) scale(0.12 -0.12)">
      <defs>
       <path id="DejaVuSans-45" d="M 628 4666 
L 3578 4666 
L 3578 4134 
L 1259 4134 
L 1259 2753 
L 3481 2753 
L 3481 2222 
L 1259 2222 
L 1259 531 
L 3634 531 
L 3634 0 
L 628 0 
L 628 4666 
z
" transform="scale(0.015625)"/>
      </defs>
      <use xlink:href="#DejaVuSans-45"/>
      <use xlink:href="#DejaVuSans-72" x="63.183594"/>
      <use xlink:href="#DejaVuSans-72" x="102.546875"/>
      <use xlink:href="#DejaVuSans-6f" x="141.410156"/>
      <use xlink:href="#DejaVuSans-72" x="202.591797"/>
      <use xlink:href="#DejaVuSans-65" x="241.455078"/>
     </g>
    </g>
   </g>
   <g id="line2d_73">
    <path d="M 103.368295 553.04 
L 122.265938 548.103622 
L 155.388615 546.698531 
L 196.558346 541.705797 
L 219.911797 535.142464 
L 259.699814 528.04085 
L 285.045998 527.005151 
L 321.195836 517.762107 
L 351.760088 511.19731 
L 383.13198 503.746155 
L 414.385886 497.402447 
L 448.459525 487.539154 
L 480.508992 480.266552 
L 510.650031 472.55398 
L 543.381247 461.105266 
L 575.173214 452.519003 
L 605.737466 442.831058 
L 637.645962 432.783378 
L 669.735416 422.352933 
L 701.273996 411.755103 
L 732.669592 400.403668 
L 764.061717 390.124268 
L 796.037186 377.846655 
L 827.203185 366.526717 
L 859.014225 355.312471 
L 890.204149 343.528614 
L 921.996115 332.089119 
L 953.243369 320.157314 
L 984.934299 307.958346 
L 1016.459205 296.380364 
" clip-path="url(#p52468d5d08)" style="fill: none; stroke: #1f77b4; stroke-width: 1.5; stroke-linecap: square"/>
    <defs>
     <path id="m0dfc699bee" d="M 0 1.5 
C 0.397805 1.5 0.77937 1.341951 1.06066 1.06066 
C 1.341951 0.77937 1.5 0.397805 1.5 0 
C 1.5 -0.397805 1.341951 -0.77937 1.06066 -1.06066 
C 0.77937 -1.341951 0.397805 -1.5 0 -1.5 
C -0.397805 -1.5 -0.77937 -1.341951 -1.06066 -1.06066 
C -1.341951 -0.77937 -1.5 -0.397805 -1.5 0 
C -1.5 0.397805 -1.341951 0.77937 -1.06066 1.06066 
C -0.77937 1.341951 -0.397805 1.5 0 1.5 
z
" style="stroke: #1f77b4"/>
    </defs>
    <g clip-path="url(#p52468d5d08)">
     <use xlink:href="#m0dfc699bee" x="103.368295" y="553.04" style="fill: #1f77b4; stroke: #1f77b4"/>
     <use xlink:href="#m0dfc699bee" x="122.265938" y="548.103622" style="fill: #1f77b4; stroke: #1f77b4"/>
     <use xlink:href="#m0dfc699bee" x="155.388615" y="546.698531" style="fill: #1f77b4; stroke: #1f77b4"/>
     <use xlink:href="#m0dfc699bee" x="196.558346" y="541.705797" style="fill: #1f77b4; stroke: #1f77b4"/>
     <use xlink:href="#m0dfc699bee" x="219.911797" y="535.142464" style="fill: #1f77b4; stroke: #1f77b4"/>
     <use xlink:href="#m0dfc699bee" x="259.699814" y="528.04085" style="fill: #1f77b4; stroke: #1f77b4"/>
     <use xlink:href="#m0dfc699bee" x="285.045998" y="527.005151" style="fill: #1f77b4; stroke: #1f77b4"/>
     <use xlink:href="#m0dfc699bee" x="321.195836" y="517.762107" style="fill: #1f77b4; stroke: #1f77b4"/>
     <use xlink:href="#m0dfc699bee" x="351.760088" y="511.19731" style="fill: #1f77b4; stroke: #1f77b4"/>
     <use xlink:href="#m0dfc699bee" x="383.13198" y="503.746155" style="fill: #1f77b4; stroke: #1f77b4"/>
     <use xlink:href="#m0dfc699bee" x="414.385886" y="497.402447" style="fill: #1f77b4; stroke: #1f77b4"/>
     <use xlink:href="#m0dfc699bee" x="448.459525" y="487.539154" style="fill: #1f77b4; stroke: #1f77b4"/>
     <use xlink:href="#m0dfc699bee" x="480.508992" y="480.266552" style="fill: #1f77b4; stroke: #1f77b4"/>
     <use xlink:href="#m0dfc699bee" x="510.650031" y="472.55398" style="fill: #1f77b4; stroke: #1f77b4"/>
     <use xlink:href="#m0dfc699bee" x="543.381247" y="461.105266" style="fill: #1f77b4; stroke: #1f77b4"/>
     <use xlink:href="#m0dfc699bee" x="575.173214" y="452.519003" style="fill: #1f77b4; stroke: #1f77b4"/>
     <use xlink:href="#m0dfc699bee" x="605.737466" y="442.831058" style="fill: #1f77b4; stroke: #1f77b4"/>
     <use xlink:href="#m0dfc699bee" x="637.645962" y="432.783378" style="fill: #1f77b4; stroke: #1f77b4"/>
     <use xlink:href="#m0dfc699bee" x="669.735416" y="422.352933" style="fill: #1f77b4; stroke: #1f77b4"/>
     <use xlink:href="#m0dfc699bee" x="701.273996" y="411.755103" style="fill: #1f77b4; stroke: #1f77b4"/>
     <use xlink:href="#m0dfc699bee" x="732.669592" y="400.403668" style="fill: #1f77b4; stroke: #1f77b4"/>
     <use xlink:href="#m0dfc699bee" x="764.061717" y="390.124268" style="fill: #1f77b4; stroke: #1f77b4"/>
     <use xlink:href="#m0dfc699bee" x="796.037186" y="377.846655" style="fill: #1f77b4; stroke: #1f77b4"/>
     <use xlink:href="#m0dfc699bee" x="827.203185" y="366.526717" style="fill: #1f77b4; stroke: #1f77b4"/>
     <use xlink:href="#m0dfc699bee" x="859.014225" y="355.312471" style="fill: #1f77b4; stroke: #1f77b4"/>
     <use xlink:href="#m0dfc699bee" x="890.204149" y="343.528614" style="fill: #1f77b4; stroke: #1f77b4"/>
     <use xlink:href="#m0dfc699bee" x="921.996115" y="332.089119" style="fill: #1f77b4; stroke: #1f77b4"/>
     <use xlink:href="#m0dfc699bee" x="953.243369" y="320.157314" style="fill: #1f77b4; stroke: #1f77b4"/>
     <use xlink:href="#m0dfc699bee" x="984.934299" y="307.958346" style="fill: #1f77b4; stroke: #1f77b4"/>
     <use xlink:href="#m0dfc699bee" x="1016.459205" y="296.380364" style="fill: #1f77b4; stroke: #1f77b4"/>
    </g>
   </g>
   <g id="line2d_74">
    <path d="M 103.368295 315.147996 
L 122.265938 297.714626 
L 155.388615 280.952379 
L 196.558346 259.082004 
L 219.911797 241.503756 
L 259.699814 206.865165 
L 285.045998 187.234376 
L 321.195836 189.777242 
L 351.760088 170.700906 
L 383.13198 157.209999 
L 414.385886 147.585584 
L 448.459525 166.140936 
L 480.508992 165.984903 
L 510.650031 169.145764 
L 543.381247 101.324176 
L 575.173214 169.266091 
L 605.737466 162.217392 
L 637.645962 89.366587 
L 669.735416 172.164145 
L 701.273996 162.379945 
L 732.669592 160.007909 
L 764.061717 157.671474 
L 796.037186 148.170734 
L 827.203185 135.357308 
L 859.014225 128.189668 
L 890.204149 117.478318 
L 921.996115 101.986943 
L 953.243369 82.643316 
L 984.934299 73.018752 
L 1016.459205 49.04 
" clip-path="url(#p52468d5d08)" style="fill: none; stroke: #ff7f0e; stroke-width: 1.5; stroke-linecap: square"/>
    <defs>
     <path id="m006f89d59b" d="M 0 1.5 
C 0.397805 1.5 0.77937 1.341951 1.06066 1.06066 
C 1.341951 0.77937 1.5 0.397805 1.5 0 
C 1.5 -0.397805 1.341951 -0.77937 1.06066 -1.06066 
C 0.77937 -1.341951 0.397805 -1.5 0 -1.5 
C -0.397805 -1.5 -0.77937 -1.341951 -1.06066 -1.06066 
C -1.341951 -0.77937 -1.5 -0.397805 -1.5 0 
C -1.5 0.397805 -1.341951 0.77937 -1.06066 1.06066 
C -0.77937 1.341951 -0.397805 1.5 0 1.5 
z
" style="stroke: #ff7f0e"/>
    </defs>
    <g clip-path="url(#p52468d5d08)">
     <use xlink:href="#m006f89d59b" x="103.368295" y="315.147996" style="fill: #ff7f0e; stroke: #ff7f0e"/>
     <use xlink:href="#m006f89d59b" x="122.265938" y="297.714626" style="fill: #ff7f0e; stroke: #ff7f0e"/>
     <use xlink:href="#m006f89d59b" x="155.388615" y="280.952379" style="fill: #ff7f0e; stroke: #ff7f0e"/>
     <use xlink:href="#m006f89d59b" x="196.558346" y="259.082004" style="fill: #ff7f0e; stroke: #ff7f0e"/>
     <use xlink:href="#m006f89d59b" x="219.911797" y="241.503756" style="fill: #ff7f0e; stroke: #ff7f0e"/>
     <use xlink:href="#m006f89d59b" x="259.699814" y="206.865165" style="fill: #ff7f0e; stroke: #ff7f0e"/>
     <use xlink:href="#m006f89d59b" x="285.045998" y="187.234376" style="fill: #ff7f0e; stroke: #ff7f0e"/>
     <use xlink:href="#m006f89d59b" x="321.195836" y="189.777242" style="fill: #ff7f0e; stroke: #ff7f0e"/>
     <use xlink:href="#m006f89d59b" x="351.760088" y="170.700906" style="fill: #ff7f0e; stroke: #ff7f0e"/>
     <use xlink:href="#m006f89d59b" x="383.13198" y="157.209999" style="fill: #ff7f0e; stroke: #ff7f0e"/>
     <use xlink:href="#m006f89d59b" x="414.385886" y="147.585584" style="fill: #ff7f0e; stroke: #ff7f0e"/>
     <use xlink:href="#m006f89d59b" x="448.459525" y="166.140936" style="fill: #ff7f0e; stroke: #ff7f0e"/>
     <use xlink:href="#m006f89d59b" x="480.508992" y="165.984903" style="fill: #ff7f0e; stroke: #ff7f0e"/>
     <use xlink:href="#m006f89d59b" x="510.650031" y="169.145764" style="fill: #ff7f0e; stroke: #ff7f0e"/>
     <use xlink:href="#m006f89d59b" x="543.381247" y="101.324176" style="fill: #ff7f0e; stroke: #ff7f0e"/>
     <use xlink:href="#m006f89d59b" x="575.173214" y="169.266091" style="fill: #ff7f0e; stroke: #ff7f0e"/>
     <use xlink:href="#m006f89d59b" x="605.737466" y="162.217392" style="fill: #ff7f0e; stroke: #ff7f0e"/>
     <use xlink:href="#m006f89d59b" x="637.645962" y="89.366587" style="fill: #ff7f0e; stroke: #ff7f0e"/>
     <use xlink:href="#m006f89d59b" x="669.735416" y="172.164145" style="fill: #ff7f0e; stroke: #ff7f0e"/>
     <use xlink:href="#m006f89d59b" x="701.273996" y="162.379945" style="fill: #ff7f0e; stroke: #ff7f0e"/>
     <use xlink:href="#m006f89d59b" x="732.669592" y="160.007909" style="fill: #ff7f0e; stroke: #ff7f0e"/>
     <use xlink:href="#m006f89d59b" x="764.061717" y="157.671474" style="fill: #ff7f0e; stroke: #ff7f0e"/>
     <use xlink:href="#m006f89d59b" x="796.037186" y="148.170734" style="fill: #ff7f0e; stroke: #ff7f0e"/>
     <use xlink:href="#m006f89d59b" x="827.203185" y="135.357308" style="fill: #ff7f0e; stroke: #ff7f0e"/>
     <use xlink:href="#m006f89d59b" x="859.014225" y="128.189668" style="fill: #ff7f0e; stroke: #ff7f0e"/>
     <use xlink:href="#m006f89d59b" x="890.204149" y="117.478318" style="fill: #ff7f0e; stroke: #ff7f0e"/>
     <use xlink:href="#m006f89d59b" x="921.996115" y="101.986943" style="fill: #ff7f0e; stroke: #ff7f0e"/>
     <use xlink:href="#m006f89d59b" x="953.243369" y="82.643316" style="fill: #ff7f0e; stroke: #ff7f0e"/>
     <use xlink:href="#m006f89d59b" x="984.934299" y="73.018752" style="fill: #ff7f0e; stroke: #ff7f0e"/>
     <use xlink:href="#m006f89d59b" x="1016.459205" y="49.04" style="fill: #ff7f0e; stroke: #ff7f0e"/>
    </g>
   </g>
   <g id="line2d_75">
    <path d="M 103.368295 548.549926 
L 122.265938 544.244718 
L 155.388615 534.861241 
L 196.558346 515.086301 
L 219.911797 496.528907 
L 259.699814 466.90777 
L 285.045998 442.820697 
L 321.195836 420.899195 
L 351.760088 412.347975 
L 383.13198 405.21602 
L 414.385886 403.626543 
L 448.459525 396.842433 
L 480.508992 394.654197 
L 510.650031 365.74264 
L 543.381247 349.655305 
L 575.173214 480.401504 
L 605.737466 474.2546 
L 637.645962 470.191854 
L 669.735416 464.527175 
L 701.273996 457.649469 
L 732.669592 451.232869 
L 764.061717 443.709176 
L 796.037186 434.256756 
L 827.203185 426.744693 
L 859.014225 415.762017 
L 890.204149 403.499794 
L 921.996115 389.996442 
L 953.243369 375.663121 
L 984.934299 360.502069 
L 1016.459205 344.818123 
" clip-path="url(#p52468d5d08)" style="fill: none; stroke: #2ca02c; stroke-width: 1.5; stroke-linecap: square"/>
    <defs>
     <path id="m9eb97cc99f" d="M 0 1.5 
C 0.397805 1.5 0.77937 1.341951 1.06066 1.06066 
C 1.341951 0.77937 1.5 0.397805 1.5 0 
C 1.5 -0.397805 1.341951 -0.77937 1.06066 -1.06066 
C 0.77937 -1.341951 0.397805 -1.5 0 -1.5 
C -0.397805 -1.5 -0.77937 -1.341951 -1.06066 -1.06066 
C -1.341951 -0.77937 -1.5 -0.397805 -1.5 0 
C -1.5 0.397805 -1.341951 0.77937 -1.06066 1.06066 
C -0.77937 1.341951 -0.397805 1.5 0 1.5 
z
" style="stroke: #2ca02c"/>
    </defs>
    <g clip-path="url(#p52468d5d08)">
     <use xlink:href="#m9eb97cc99f" x="103.368295" y="548.549926" style="fill: #2ca02c; stroke: #2ca02c"/>
     <use xlink:href="#m9eb97cc99f" x="122.265938" y="544.244718" style="fill: #2ca02c; stroke: #2ca02c"/>
     <use xlink:href="#m9eb97cc99f" x="155.388615" y="534.861241" style="fill: #2ca02c; stroke: #2ca02c"/>
     <use xlink:href="#m9eb97cc99f" x="196.558346" y="515.086301" style="fill: #2ca02c; stroke: #2ca02c"/>
     <use xlink:href="#m9eb97cc99f" x="219.911797" y="496.528907" style="fill: #2ca02c; stroke: #2ca02c"/>
     <use xlink:href="#m9eb97cc99f" x="259.699814" y="466.90777" style="fill: #2ca02c; stroke: #2ca02c"/>
     <use xlink:href="#m9eb97cc99f" x="285.045998" y="442.820697" style="fill: #2ca02c; stroke: #2ca02c"/>
     <use xlink:href="#m9eb97cc99f" x="321.195836" y="420.899195" style="fill: #2ca02c; stroke: #2ca02c"/>
     <use xlink:href="#m9eb97cc99f" x="351.760088" y="412.347975" style="fill: #2ca02c; stroke: #2ca02c"/>
     <use xlink:href="#m9eb97cc99f" x="383.13198" y="405.21602" style="fill: #2ca02c; stroke: #2ca02c"/>
     <use xlink:href="#m9eb97cc99f" x="414.385886" y="403.626543" style="fill: #2ca02c; stroke: #2ca02c"/>
     <use xlink:href="#m9eb97cc99f" x="448.459525" y="396.842433" style="fill: #2ca02c; stroke: #2ca02c"/>
     <use xlink:href="#m9eb97cc99f" x="480.508992" y="394.654197" style="fill: #2ca02c; stroke: #2ca02c"/>
     <use xlink:href="#m9eb97cc99f" x="510.650031" y="365.74264" style="fill: #2ca02c; stroke: #2ca02c"/>
     <use xlink:href="#m9eb97cc99f" x="543.381247" y="349.655305" style="fill: #2ca02c; stroke: #2ca02c"/>
     <use xlink:href="#m9eb97cc99f" x="575.173214" y="480.401504" style="fill: #2ca02c; stroke: #2ca02c"/>
     <use xlink:href="#m9eb97cc99f" x="605.737466" y="474.2546" style="fill: #2ca02c; stroke: #2ca02c"/>
     <use xlink:href="#m9eb97cc99f" x="637.645962" y="470.191854" style="fill: #2ca02c; stroke: #2ca02c"/>
     <use xlink:href="#m9eb97cc99f" x="669.735416" y="464.527175" style="fill: #2ca02c; stroke: #2ca02c"/>
     <use xlink:href="#m9eb97cc99f" x="701.273996" y="457.649469" style="fill: #2ca02c; stroke: #2ca02c"/>
     <use xlink:href="#m9eb97cc99f" x="732.669592" y="451.232869" style="fill: #2ca02c; stroke: #2ca02c"/>
     <use xlink:href="#m9eb97cc99f" x="764.061717" y="443.709176" style="fill: #2ca02c; stroke: #2ca02c"/>
     <use xlink:href="#m9eb97cc99f" x="796.037186" y="434.256756" style="fill: #2ca02c; stroke: #2ca02c"/>
     <use xlink:href="#m9eb97cc99f" x="827.203185" y="426.744693" style="fill: #2ca02c; stroke: #2ca02c"/>
     <use xlink:href="#m9eb97cc99f" x="859.014225" y="415.762017" style="fill: #2ca02c; stroke: #2ca02c"/>
     <use xlink:href="#m9eb97cc99f" x="890.204149" y="403.499794" style="fill: #2ca02c; stroke: #2ca02c"/>
     <use xlink:href="#m9eb97cc99f" x="921.996115" y="389.996442" style="fill: #2ca02c; stroke: #2ca02c"/>
     <use xlink:href="#m9eb97cc99f" x="953.243369" y="375.663121" style="fill: #2ca02c; stroke: #2ca02c"/>
     <use xlink:href="#m9eb97cc99f" x="984.934299" y="360.502069" style="fill: #2ca02c; stroke: #2ca02c"/>
     <use xlink:href="#m9eb97cc99f" x="1016.459205" y="344.818123" style="fill: #2ca02c; stroke: #2ca02c"/>
    </g>
   </g>
   <g id="line2d_76">
    <path d="M 103.368295 342.998748 
L 122.265938 336.766854 
L 155.388615 321.10385 
L 196.558346 311.187848 
L 219.911797 301.282973 
L 259.699814 290.446251 
L 285.045998 285.14972 
L 321.195836 274.266664 
L 351.760088 269.772062 
L 383.13198 260.572041 
L 414.385886 253.436954 
L 448.459525 246.461512 
L 480.508992 241.454178 
L 510.650031 266.671585 
L 543.381247 262.416317 
L 575.173214 258.990317 
L 605.737466 255.593121 
L 637.645962 266.884536 
L 669.735416 315.259325 
L 701.273996 311.899612 
L 732.669592 307.784235 
L 764.061717 296.858613 
L 796.037186 290.778349 
L 827.203185 292.029447 
L 859.014225 282.245989 
L 890.204149 260.899178 
L 921.996115 255.975685 
L 953.243369 263.764154 
L 984.934299 260.264176 
L 1016.459205 259.565611 
" clip-path="url(#p52468d5d08)" style="fill: none; stroke: #d62728; stroke-width: 1.5; stroke-linecap: square"/>
    <defs>
     <path id="mcc2dbbd9b7" d="M 0 1.5 
C 0.397805 1.5 0.77937 1.341951 1.06066 1.06066 
C 1.341951 0.77937 1.5 0.397805 1.5 0 
C 1.5 -0.397805 1.341951 -0.77937 1.06066 -1.06066 
C 0.77937 -1.341951 0.397805 -1.5 0 -1.5 
C -0.397805 -1.5 -0.77937 -1.341951 -1.06066 -1.06066 
C -1.341951 -0.77937 -1.5 -0.397805 -1.5 0 
C -1.5 0.397805 -1.341951 0.77937 -1.06066 1.06066 
C -0.77937 1.341951 -0.397805 1.5 0 1.5 
z
" style="stroke: #d62728"/>
    </defs>
    <g clip-path="url(#p52468d5d08)">
     <use xlink:href="#mcc2dbbd9b7" x="103.368295" y="342.998748" style="fill: #d62728; stroke: #d62728"/>
     <use xlink:href="#mcc2dbbd9b7" x="122.265938" y="336.766854" style="fill: #d62728; stroke: #d62728"/>
     <use xlink:href="#mcc2dbbd9b7" x="155.388615" y="321.10385" style="fill: #d62728; stroke: #d62728"/>
     <use xlink:href="#mcc2dbbd9b7" x="196.558346" y="311.187848" style="fill: #d62728; stroke: #d62728"/>
     <use xlink:href="#mcc2dbbd9b7" x="219.911797" y="301.282973" style="fill: #d62728; stroke: #d62728"/>
     <use xlink:href="#mcc2dbbd9b7" x="259.699814" y="290.446251" style="fill: #d62728; stroke: #d62728"/>
     <use xlink:href="#mcc2dbbd9b7" x="285.045998" y="285.14972" style="fill: #d62728; stroke: #d62728"/>
     <use xlink:href="#mcc2dbbd9b7" x="321.195836" y="274.266664" style="fill: #d62728; stroke: #d62728"/>
     <use xlink:href="#mcc2dbbd9b7" x="351.760088" y="269.772062" style="fill: #d62728; stroke: #d62728"/>
     <use xlink:href="#mcc2dbbd9b7" x="383.13198" y="260.572041" style="fill: #d62728; stroke: #d62728"/>
     <use xlink:href="#mcc2dbbd9b7" x="414.385886" y="253.436954" style="fill: #d62728; stroke: #d62728"/>
     <use xlink:href="#mcc2dbbd9b7" x="448.459525" y="246.461512" style="fill: #d62728; stroke: #d62728"/>
     <use xlink:href="#mcc2dbbd9b7" x="480.508992" y="241.454178" style="fill: #d62728; stroke: #d62728"/>
     <use xlink:href="#mcc2dbbd9b7" x="510.650031" y="266.671585" style="fill: #d62728; stroke: #d62728"/>
     <use xlink:href="#mcc2dbbd9b7" x="543.381247" y="262.416317" style="fill: #d62728; stroke: #d62728"/>
     <use xlink:href="#mcc2dbbd9b7" x="575.173214" y="258.990317" style="fill: #d62728; stroke: #d62728"/>
     <use xlink:href="#mcc2dbbd9b7" x="605.737466" y="255.593121" style="fill: #d62728; stroke: #d62728"/>
     <use xlink:href="#mcc2dbbd9b7" x="637.645962" y="266.884536" style="fill: #d62728; stroke: #d62728"/>
     <use xlink:href="#mcc2dbbd9b7" x="669.735416" y="315.259325" style="fill: #d62728; stroke: #d62728"/>
     <use xlink:href="#mcc2dbbd9b7" x="701.273996" y="311.899612" style="fill: #d62728; stroke: #d62728"/>
     <use xlink:href="#mcc2dbbd9b7" x="732.669592" y="307.784235" style="fill: #d62728; stroke: #d62728"/>
     <use xlink:href="#mcc2dbbd9b7" x="764.061717" y="296.858613" style="fill: #d62728; stroke: #d62728"/>
     <use xlink:href="#mcc2dbbd9b7" x="796.037186" y="290.778349" style="fill: #d62728; stroke: #d62728"/>
     <use xlink:href="#mcc2dbbd9b7" x="827.203185" y="292.029447" style="fill: #d62728; stroke: #d62728"/>
     <use xlink:href="#mcc2dbbd9b7" x="859.014225" y="282.245989" style="fill: #d62728; stroke: #d62728"/>
     <use xlink:href="#mcc2dbbd9b7" x="890.204149" y="260.899178" style="fill: #d62728; stroke: #d62728"/>
     <use xlink:href="#mcc2dbbd9b7" x="921.996115" y="255.975685" style="fill: #d62728; stroke: #d62728"/>
     <use xlink:href="#mcc2dbbd9b7" x="953.243369" y="263.764154" style="fill: #d62728; stroke: #d62728"/>
     <use xlink:href="#mcc2dbbd9b7" x="984.934299" y="260.264176" style="fill: #d62728; stroke: #d62728"/>
     <use xlink:href="#mcc2dbbd9b7" x="1016.459205" y="259.565611" style="fill: #d62728; stroke: #d62728"/>
    </g>
   </g>
   <g id="line2d_77">
    <path d="M 103.368295 377.977827 
L 122.265938 366.801697 
L 155.388615 341.88916 
L 196.558346 320.253142 
L 219.911797 309.094959 
L 259.699814 342.394363 
L 285.045998 338.203781 
L 321.195836 349.67669 
L 351.760088 353.289521 
L 383.13198 359.710068 
L 414.385886 363.487556 
L 448.459525 363.322187 
L 480.508992 363.207538 
L 510.650031 362.26851 
L 543.381247 359.569478 
L 575.173214 358.280086 
L 605.737466 361.239271 
L 637.645962 359.398104 
L 669.735416 356.708827 
L 701.273996 358.908745 
L 732.669592 358.36209 
L 764.061717 357.317095 
L 796.037186 354.98009 
L 827.203185 356.28851 
L 859.014225 354.041839 
L 890.204149 353.671487 
L 921.996115 352.84416 
L 953.243369 355.599291 
L 984.934299 353.353032 
L 1016.459205 352.514781 
" clip-path="url(#p52468d5d08)" style="fill: none; stroke: #9467bd; stroke-width: 1.5; stroke-linecap: square"/>
    <defs>
     <path id="m62d17a85a8" d="M 0 1.5 
C 0.397805 1.5 0.77937 1.341951 1.06066 1.06066 
C 1.341951 0.77937 1.5 0.397805 1.5 0 
C 1.5 -0.397805 1.341951 -0.77937 1.06066 -1.06066 
C 0.77937 -1.341951 0.397805 -1.5 0 -1.5 
C -0.397805 -1.5 -0.77937 -1.341951 -1.06066 -1.06066 
C -1.341951 -0.77937 -1.5 -0.397805 -1.5 0 
C -1.5 0.397805 -1.341951 0.77937 -1.06066 1.06066 
C -0.77937 1.341951 -0.397805 1.5 0 1.5 
z
" style="stroke: #9467bd"/>
    </defs>
    <g clip-path="url(#p52468d5d08)">
     <use xlink:href="#m62d17a85a8" x="103.368295" y="377.977827" style="fill: #9467bd; stroke: #9467bd"/>
     <use xlink:href="#m62d17a85a8" x="122.265938" y="366.801697" style="fill: #9467bd; stroke: #9467bd"/>
     <use xlink:href="#m62d17a85a8" x="155.388615" y="341.88916" style="fill: #9467bd; stroke: #9467bd"/>
     <use xlink:href="#m62d17a85a8" x="196.558346" y="320.253142" style="fill: #9467bd; stroke: #9467bd"/>
     <use xlink:href="#m62d17a85a8" x="219.911797" y="309.094959" style="fill: #9467bd; stroke: #9467bd"/>
     <use xlink:href="#m62d17a85a8" x="259.699814" y="342.394363" style="fill: #9467bd; stroke: #9467bd"/>
     <use xlink:href="#m62d17a85a8" x="285.045998" y="338.203781" style="fill: #9467bd; stroke: #9467bd"/>
     <use xlink:href="#m62d17a85a8" x="321.195836" y="349.67669" style="fill: #9467bd; stroke: #9467bd"/>
     <use xlink:href="#m62d17a85a8" x="351.760088" y="353.289521" style="fill: #9467bd; stroke: #9467bd"/>
     <use xlink:href="#m62d17a85a8" x="383.13198" y="359.710068" style="fill: #9467bd; stroke: #9467bd"/>
     <use xlink:href="#m62d17a85a8" x="414.385886" y="363.487556" style="fill: #9467bd; stroke: #9467bd"/>
     <use xlink:href="#m62d17a85a8" x="448.459525" y="363.322187" style="fill: #9467bd; stroke: #9467bd"/>
     <use xlink:href="#m62d17a85a8" x="480.508992" y="363.207538" style="fill: #9467bd; stroke: #9467bd"/>
     <use xlink:href="#m62d17a85a8" x="510.650031" y="362.26851" style="fill: #9467bd; stroke: #9467bd"/>
     <use xlink:href="#m62d17a85a8" x="543.381247" y="359.569478" style="fill: #9467bd; stroke: #9467bd"/>
     <use xlink:href="#m62d17a85a8" x="575.173214" y="358.280086" style="fill: #9467bd; stroke: #9467bd"/>
     <use xlink:href="#m62d17a85a8" x="605.737466" y="361.239271" style="fill: #9467bd; stroke: #9467bd"/>
     <use xlink:href="#m62d17a85a8" x="637.645962" y="359.398104" style="fill: #9467bd; stroke: #9467bd"/>
     <use xlink:href="#m62d17a85a8" x="669.735416" y="356.708827" style="fill: #9467bd; stroke: #9467bd"/>
     <use xlink:href="#m62d17a85a8" x="701.273996" y="358.908745" style="fill: #9467bd; stroke: #9467bd"/>
     <use xlink:href="#m62d17a85a8" x="732.669592" y="358.36209" style="fill: #9467bd; stroke: #9467bd"/>
     <use xlink:href="#m62d17a85a8" x="764.061717" y="357.317095" style="fill: #9467bd; stroke: #9467bd"/>
     <use xlink:href="#m62d17a85a8" x="796.037186" y="354.98009" style="fill: #9467bd; stroke: #9467bd"/>
     <use xlink:href="#m62d17a85a8" x="827.203185" y="356.28851" style="fill: #9467bd; stroke: #9467bd"/>
     <use xlink:href="#m62d17a85a8" x="859.014225" y="354.041839" style="fill: #9467bd; stroke: #9467bd"/>
     <use xlink:href="#m62d17a85a8" x="890.204149" y="353.671487" style="fill: #9467bd; stroke: #9467bd"/>
     <use xlink:href="#m62d17a85a8" x="921.996115" y="352.84416" style="fill: #9467bd; stroke: #9467bd"/>
     <use xlink:href="#m62d17a85a8" x="953.243369" y="355.599291" style="fill: #9467bd; stroke: #9467bd"/>
     <use xlink:href="#m62d17a85a8" x="984.934299" y="353.353032" style="fill: #9467bd; stroke: #9467bd"/>
     <use xlink:href="#m62d17a85a8" x="1016.459205" y="352.514781" style="fill: #9467bd; stroke: #9467bd"/>
    </g>
   </g>
   <g id="line2d_78">
    <path d="M 103.368295 406.1432 
L 122.265938 391.077766 
L 155.388615 369.872115 
L 196.558346 350.32432 
L 219.911797 342.067426 
L 259.699814 326.823891 
L 285.045998 323.894733 
L 321.195836 312.320551 
L 351.760088 307.234917 
L 383.13198 299.367423 
L 414.385886 293.035545 
L 448.459525 289.849059 
L 480.508992 283.286512 
L 510.650031 279.411401 
L 543.381247 274.038632 
L 575.173214 269.932307 
L 605.737466 266.566045 
L 637.645962 262.986848 
L 669.735416 259.582199 
L 701.273996 255.561163 
L 732.669592 252.202298 
L 764.061717 248.116454 
L 796.037186 247.476806 
L 827.203185 242.953703 
L 859.014225 241.697241 
L 890.204149 239.631742 
L 921.996115 234.623306 
L 953.243369 234.778811 
L 984.934299 230.879917 
L 1016.459205 229.237626 
" clip-path="url(#p52468d5d08)" style="fill: none; stroke: #8c564b; stroke-width: 1.5; stroke-linecap: square"/>
    <defs>
     <path id="me47a3c36a9" d="M 0 1.5 
C 0.397805 1.5 0.77937 1.341951 1.06066 1.06066 
C 1.341951 0.77937 1.5 0.397805 1.5 0 
C 1.5 -0.397805 1.341951 -0.77937 1.06066 -1.06066 
C 0.77937 -1.341951 0.397805 -1.5 0 -1.5 
C -0.397805 -1.5 -0.77937 -1.341951 -1.06066 -1.06066 
C -1.341951 -0.77937 -1.5 -0.397805 -1.5 0 
C -1.5 0.397805 -1.341951 0.77937 -1.06066 1.06066 
C -0.77937 1.341951 -0.397805 1.5 0 1.5 
z
" style="stroke: #8c564b"/>
    </defs>
    <g clip-path="url(#p52468d5d08)">
     <use xlink:href="#me47a3c36a9" x="103.368295" y="406.1432" style="fill: #8c564b; stroke: #8c564b"/>
     <use xlink:href="#me47a3c36a9" x="122.265938" y="391.077766" style="fill: #8c564b; stroke: #8c564b"/>
     <use xlink:href="#me47a3c36a9" x="155.388615" y="369.872115" style="fill: #8c564b; stroke: #8c564b"/>
     <use xlink:href="#me47a3c36a9" x="196.558346" y="350.32432" style="fill: #8c564b; stroke: #8c564b"/>
     <use xlink:href="#me47a3c36a9" x="219.911797" y="342.067426" style="fill: #8c564b; stroke: #8c564b"/>
     <use xlink:href="#me47a3c36a9" x="259.699814" y="326.823891" style="fill: #8c564b; stroke: #8c564b"/>
     <use xlink:href="#me47a3c36a9" x="285.045998" y="323.894733" style="fill: #8c564b; stroke: #8c564b"/>
     <use xlink:href="#me47a3c36a9" x="321.195836" y="312.320551" style="fill: #8c564b; stroke: #8c564b"/>
     <use xlink:href="#me47a3c36a9" x="351.760088" y="307.234917" style="fill: #8c564b; stroke: #8c564b"/>
     <use xlink:href="#me47a3c36a9" x="383.13198" y="299.367423" style="fill: #8c564b; stroke: #8c564b"/>
     <use xlink:href="#me47a3c36a9" x="414.385886" y="293.035545" style="fill: #8c564b; stroke: #8c564b"/>
     <use xlink:href="#me47a3c36a9" x="448.459525" y="289.849059" style="fill: #8c564b; stroke: #8c564b"/>
     <use xlink:href="#me47a3c36a9" x="480.508992" y="283.286512" style="fill: #8c564b; stroke: #8c564b"/>
     <use xlink:href="#me47a3c36a9" x="510.650031" y="279.411401" style="fill: #8c564b; stroke: #8c564b"/>
     <use xlink:href="#me47a3c36a9" x="543.381247" y="274.038632" style="fill: #8c564b; stroke: #8c564b"/>
     <use xlink:href="#me47a3c36a9" x="575.173214" y="269.932307" style="fill: #8c564b; stroke: #8c564b"/>
     <use xlink:href="#me47a3c36a9" x="605.737466" y="266.566045" style="fill: #8c564b; stroke: #8c564b"/>
     <use xlink:href="#me47a3c36a9" x="637.645962" y="262.986848" style="fill: #8c564b; stroke: #8c564b"/>
     <use xlink:href="#me47a3c36a9" x="669.735416" y="259.582199" style="fill: #8c564b; stroke: #8c564b"/>
     <use xlink:href="#me47a3c36a9" x="701.273996" y="255.561163" style="fill: #8c564b; stroke: #8c564b"/>
     <use xlink:href="#me47a3c36a9" x="732.669592" y="252.202298" style="fill: #8c564b; stroke: #8c564b"/>
     <use xlink:href="#me47a3c36a9" x="764.061717" y="248.116454" style="fill: #8c564b; stroke: #8c564b"/>
     <use xlink:href="#me47a3c36a9" x="796.037186" y="247.476806" style="fill: #8c564b; stroke: #8c564b"/>
     <use xlink:href="#me47a3c36a9" x="827.203185" y="242.953703" style="fill: #8c564b; stroke: #8c564b"/>
     <use xlink:href="#me47a3c36a9" x="859.014225" y="241.697241" style="fill: #8c564b; stroke: #8c564b"/>
     <use xlink:href="#me47a3c36a9" x="890.204149" y="239.631742" style="fill: #8c564b; stroke: #8c564b"/>
     <use xlink:href="#me47a3c36a9" x="921.996115" y="234.623306" style="fill: #8c564b; stroke: #8c564b"/>
     <use xlink:href="#me47a3c36a9" x="953.243369" y="234.778811" style="fill: #8c564b; stroke: #8c564b"/>
     <use xlink:href="#me47a3c36a9" x="984.934299" y="230.879917" style="fill: #8c564b; stroke: #8c564b"/>
     <use xlink:href="#me47a3c36a9" x="1016.459205" y="229.237626" style="fill: #8c564b; stroke: #8c564b"/>
    </g>
   </g>
   <g id="line2d_79">
    <path d="M 103.368295 393.843923 
L 122.265938 378.684113 
L 155.388615 354.279817 
L 196.558346 334.771809 
L 219.911797 327.491024 
L 259.699814 313.745485 
L 285.045998 309.955679 
L 321.195836 297.723805 
L 351.760088 291.897502 
L 383.13198 283.643397 
L 414.385886 279.969989 
L 448.459525 273.473292 
L 480.508992 267.890912 
L 510.650031 262.574085 
L 543.381247 258.534042 
L 575.173214 252.921653 
L 605.737466 251.576218 
L 637.645962 248.296282 
L 669.735416 244.799073 
L 701.273996 241.611173 
L 732.669592 239.035243 
L 764.061717 233.636694 
L 796.037186 232.085598 
L 827.203185 229.548856 
L 859.014225 225.142458 
L 890.204149 223.679807 
L 921.996115 221.032365 
L 953.243369 216.941335 
L 984.934299 216.078497 
L 1016.459205 214.271184 
" clip-path="url(#p52468d5d08)" style="fill: none; stroke: #e377c2; stroke-width: 1.5; stroke-linecap: square"/>
    <defs>
     <path id="m022f10d2d4" d="M 0 1.5 
C 0.397805 1.5 0.77937 1.341951 1.06066 1.06066 
C 1.341951 0.77937 1.5 0.397805 1.5 0 
C 1.5 -0.397805 1.341951 -0.77937 1.06066 -1.06066 
C 0.77937 -1.341951 0.397805 -1.5 0 -1.5 
C -0.397805 -1.5 -0.77937 -1.341951 -1.06066 -1.06066 
C -1.341951 -0.77937 -1.5 -0.397805 -1.5 0 
C -1.5 0.397805 -1.341951 0.77937 -1.06066 1.06066 
C -0.77937 1.341951 -0.397805 1.5 0 1.5 
z
" style="stroke: #e377c2"/>
    </defs>
    <g clip-path="url(#p52468d5d08)">
     <use xlink:href="#m022f10d2d4" x="103.368295" y="393.843923" style="fill: #e377c2; stroke: #e377c2"/>
     <use xlink:href="#m022f10d2d4" x="122.265938" y="378.684113" style="fill: #e377c2; stroke: #e377c2"/>
     <use xlink:href="#m022f10d2d4" x="155.388615" y="354.279817" style="fill: #e377c2; stroke: #e377c2"/>
     <use xlink:href="#m022f10d2d4" x="196.558346" y="334.771809" style="fill: #e377c2; stroke: #e377c2"/>
     <use xlink:href="#m022f10d2d4" x="219.911797" y="327.491024" style="fill: #e377c2; stroke: #e377c2"/>
     <use xlink:href="#m022f10d2d4" x="259.699814" y="313.745485" style="fill: #e377c2; stroke: #e377c2"/>
     <use xlink:href="#m022f10d2d4" x="285.045998" y="309.955679" style="fill: #e377c2; stroke: #e377c2"/>
     <use xlink:href="#m022f10d2d4" x="321.195836" y="297.723805" style="fill: #e377c2; stroke: #e377c2"/>
     <use xlink:href="#m022f10d2d4" x="351.760088" y="291.897502" style="fill: #e377c2; stroke: #e377c2"/>
     <use xlink:href="#m022f10d2d4" x="383.13198" y="283.643397" style="fill: #e377c2; stroke: #e377c2"/>
     <use xlink:href="#m022f10d2d4" x="414.385886" y="279.969989" style="fill: #e377c2; stroke: #e377c2"/>
     <use xlink:href="#m022f10d2d4" x="448.459525" y="273.473292" style="fill: #e377c2; stroke: #e377c2"/>
     <use xlink:href="#m022f10d2d4" x="480.508992" y="267.890912" style="fill: #e377c2; stroke: #e377c2"/>
     <use xlink:href="#m022f10d2d4" x="510.650031" y="262.574085" style="fill: #e377c2; stroke: #e377c2"/>
     <use xlink:href="#m022f10d2d4" x="543.381247" y="258.534042" style="fill: #e377c2; stroke: #e377c2"/>
     <use xlink:href="#m022f10d2d4" x="575.173214" y="252.921653" style="fill: #e377c2; stroke: #e377c2"/>
     <use xlink:href="#m022f10d2d4" x="605.737466" y="251.576218" style="fill: #e377c2; stroke: #e377c2"/>
     <use xlink:href="#m022f10d2d4" x="637.645962" y="248.296282" style="fill: #e377c2; stroke: #e377c2"/>
     <use xlink:href="#m022f10d2d4" x="669.735416" y="244.799073" style="fill: #e377c2; stroke: #e377c2"/>
     <use xlink:href="#m022f10d2d4" x="701.273996" y="241.611173" style="fill: #e377c2; stroke: #e377c2"/>
     <use xlink:href="#m022f10d2d4" x="732.669592" y="239.035243" style="fill: #e377c2; stroke: #e377c2"/>
     <use xlink:href="#m022f10d2d4" x="764.061717" y="233.636694" style="fill: #e377c2; stroke: #e377c2"/>
     <use xlink:href="#m022f10d2d4" x="796.037186" y="232.085598" style="fill: #e377c2; stroke: #e377c2"/>
     <use xlink:href="#m022f10d2d4" x="827.203185" y="229.548856" style="fill: #e377c2; stroke: #e377c2"/>
     <use xlink:href="#m022f10d2d4" x="859.014225" y="225.142458" style="fill: #e377c2; stroke: #e377c2"/>
     <use xlink:href="#m022f10d2d4" x="890.204149" y="223.679807" style="fill: #e377c2; stroke: #e377c2"/>
     <use xlink:href="#m022f10d2d4" x="921.996115" y="221.032365" style="fill: #e377c2; stroke: #e377c2"/>
     <use xlink:href="#m022f10d2d4" x="953.243369" y="216.941335" style="fill: #e377c2; stroke: #e377c2"/>
     <use xlink:href="#m022f10d2d4" x="984.934299" y="216.078497" style="fill: #e377c2; stroke: #e377c2"/>
     <use xlink:href="#m022f10d2d4" x="1016.459205" y="214.271184" style="fill: #e377c2; stroke: #e377c2"/>
    </g>
   </g>
   <g id="patch_3">
    <path d="M 57.71375 578.24 
L 57.71375 23.84 
" style="fill: none; stroke: #000000; stroke-width: 0.8; stroke-linejoin: miter; stroke-linecap: square"/>
   </g>
   <g id="patch_4">
    <path d="M 1062.11375 578.24 
L 1062.11375 23.84 
" style="fill: none; stroke: #000000; stroke-width: 0.8; stroke-linejoin: miter; stroke-linecap: square"/>
   </g>
   <g id="patch_5">
    <path d="M 57.71375 578.24 
L 1062.11375 578.24 
" style="fill: none; stroke: #000000; stroke-width: 0.8; stroke-linejoin: miter; stroke-linecap: square"/>
   </g>
   <g id="patch_6">
    <path d="M 57.71375 23.84 
L 1062.11375 23.84 
" style="fill: none; stroke: #000000; stroke-width: 0.8; stroke-linejoin: miter; stroke-linecap: square"/>
   </g>
   <g id="text_8">
    <!-- Confronto degli errori di calcolo di $\pi$ su matrice Q sparsa con 9 archi per nodo -->
    <g transform="translate(286.98375 17.84) scale(0.14 -0.14)">
     <defs>
      <path id="DejaVuSans-43" d="M 4122 4306 
L 4122 3641 
Q 3803 3938 3442 4084 
Q 3081 4231 2675 4231 
Q 1875 4231 1450 3742 
Q 1025 3253 1025 2328 
Q 1025 1406 1450 917 
Q 1875 428 2675 428 
Q 3081 428 3442 575 
Q 3803 722 4122 1019 
L 4122 359 
Q 3791 134 3420 21 
Q 3050 -91 2638 -91 
Q 1578 -91 968 557 
Q 359 1206 359 2328 
Q 359 3453 968 4101 
Q 1578 4750 2638 4750 
Q 3056 4750 3426 4639 
Q 3797 4528 4122 4306 
z
" transform="scale(0.015625)"/>
      <path id="DejaVuSans-66" d="M 2375 4863 
L 2375 4384 
L 1825 4384 
Q 1516 4384 1395 4259 
Q 1275 4134 1275 3809 
L 1275 3500 
L 2222 3500 
L 2222 3053 
L 1275 3053 
L 1275 0 
L 697 0 
L 697 3053 
L 147 3053 
L 147 3500 
L 697 3500 
L 697 3744 
Q 697 4328 969 4595 
Q 1241 4863 1831 4863 
L 2375 4863 
z
" transform="scale(0.015625)"/>
      <path id="DejaVuSans-64" d="M 2906 2969 
L 2906 4863 
L 3481 4863 
L 3481 0 
L 2906 0 
L 2906 525 
Q 2725 213 2448 61 
Q 2172 -91 1784 -91 
Q 1150 -91 751 415 
Q 353 922 353 1747 
Q 353 2572 751 3078 
Q 1150 3584 1784 3584 
Q 2172 3584 2448 3432 
Q 2725 3281 2906 2969 
z
M 947 1747 
Q 947 1113 1208 752 
Q 1469 391 1925 391 
Q 2381 391 2643 752 
Q 2906 1113 2906 1747 
Q 2906 2381 2643 2742 
Q 2381 3103 1925 3103 
Q 1469 3103 1208 2742 
Q 947 2381 947 1747 
z
" transform="scale(0.015625)"/>
      <path id="DejaVuSans-67" d="M 2906 1791 
Q 2906 2416 2648 2759 
Q 2391 3103 1925 3103 
Q 1463 3103 1205 2759 
Q 947 2416 947 1791 
Q 947 1169 1205 825 
Q 1463 481 1925 481 
Q 2391 481 2648 825 
Q 2906 1169 2906 1791 
z
M 3481 434 
Q 3481 -459 3084 -895 
Q 2688 -1331 1869 -1331 
Q 1566 -1331 1297 -1286 
Q 1028 -1241 775 -1147 
L 775 -588 
Q 1028 -725 1275 -790 
Q 1522 -856 1778 -856 
Q 2344 -856 2625 -561 
Q 2906 -266 2906 331 
L 2906 616 
Q 2728 306 2450 153 
Q 2172 0 1784 0 
Q 1141 0 747 490 
Q 353 981 353 1791 
Q 353 2603 747 3093 
Q 1141 3584 1784 3584 
Q 2172 3584 2450 3431 
Q 2728 3278 2906 2969 
L 2906 3500 
L 3481 3500 
L 3481 434 
z
" transform="scale(0.015625)"/>
      <path id="DejaVuSans-6c" d="M 603 4863 
L 1178 4863 
L 1178 0 
L 603 0 
L 603 4863 
z
" transform="scale(0.015625)"/>
      <path id="DejaVuSans-Oblique-3c0" d="M 584 3500 
L 3938 3500 
L 3825 2925 
L 3384 2925 
L 2966 775 
Q 2922 550 2981 450 
Q 3038 353 3209 353 
Q 3256 353 3325 363 
Q 3397 369 3419 372 
L 3338 -44 
Q 3222 -84 3103 -103 
Q 2981 -122 2866 -122 
Q 2491 -122 2388 81 
Q 2284 288 2391 838 
L 2797 2925 
L 1506 2925 
L 938 0 
L 350 0 
L 919 2925 
L 472 2925 
L 584 3500 
z
" transform="scale(0.015625)"/>
      <path id="DejaVuSans-75" d="M 544 1381 
L 544 3500 
L 1119 3500 
L 1119 1403 
Q 1119 906 1312 657 
Q 1506 409 1894 409 
Q 2359 409 2629 706 
Q 2900 1003 2900 1516 
L 2900 3500 
L 3475 3500 
L 3475 0 
L 2900 0 
L 2900 538 
Q 2691 219 2414 64 
Q 2138 -91 1772 -91 
Q 1169 -91 856 284 
Q 544 659 544 1381 
z
M 1991 3584 
L 1991 3584 
z
" transform="scale(0.015625)"/>
      <path id="DejaVuSans-51" d="M 2522 4238 
Q 1834 4238 1429 3725 
Q 1025 3213 1025 2328 
Q 1025 1447 1429 934 
Q 1834 422 2522 422 
Q 3209 422 3611 934 
Q 4013 1447 4013 2328 
Q 4013 3213 3611 3725 
Q 3209 4238 2522 4238 
z
M 3406 84 
L 4238 -825 
L 3475 -825 
L 2784 -78 
Q 2681 -84 2626 -87 
Q 2572 -91 2522 -91 
Q 1538 -91 948 567 
Q 359 1225 359 2328 
Q 359 3434 948 4092 
Q 1538 4750 2522 4750 
Q 3503 4750 4090 4092 
Q 4678 3434 4678 2328 
Q 4678 1516 4351 937 
Q 4025 359 3406 84 
z
" transform="scale(0.015625)"/>
      <path id="DejaVuSans-70" d="M 1159 525 
L 1159 -1331 
L 581 -1331 
L 581 3500 
L 1159 3500 
L 1159 2969 
Q 1341 3281 1617 3432 
Q 1894 3584 2278 3584 
Q 2916 3584 3314 3078 
Q 3713 2572 3713 1747 
Q 3713 922 3314 415 
Q 2916 -91 2278 -91 
Q 1894 -91 1617 61 
Q 1341 213 1159 525 
z
M 3116 1747 
Q 3116 2381 2855 2742 
Q 2594 3103 2138 3103 
Q 1681 3103 1420 2742 
Q 1159 2381 1159 1747 
Q 1159 1113 1420 752 
Q 1681 391 2138 391 
Q 2594 391 2855 752 
Q 3116 1113 3116 1747 
z
" transform="scale(0.015625)"/>
      <path id="DejaVuSans-39" d="M 703 97 
L 703 672 
Q 941 559 1184 500 
Q 1428 441 1663 441 
Q 2288 441 2617 861 
Q 2947 1281 2994 2138 
Q 2813 1869 2534 1725 
Q 2256 1581 1919 1581 
Q 1219 1581 811 2004 
Q 403 2428 403 3163 
Q 403 3881 828 4315 
Q 1253 4750 1959 4750 
Q 2769 4750 3195 4129 
Q 3622 3509 3622 2328 
Q 3622 1225 3098 567 
Q 2575 -91 1691 -91 
Q 1453 -91 1209 -44 
Q 966 3 703 97 
z
M 1959 2075 
Q 2384 2075 2632 2365 
Q 2881 2656 2881 3163 
Q 2881 3666 2632 3958 
Q 2384 4250 1959 4250 
Q 1534 4250 1286 3958 
Q 1038 3666 1038 3163 
Q 1038 2656 1286 2365 
Q 1534 2075 1959 2075 
z
" transform="scale(0.015625)"/>
      <path id="DejaVuSans-68" d="M 3513 2113 
L 3513 0 
L 2938 0 
L 2938 2094 
Q 2938 2591 2744 2837 
Q 2550 3084 2163 3084 
Q 1697 3084 1428 2787 
Q 1159 2491 1159 1978 
L 1159 0 
L 581 0 
L 581 4863 
L 1159 4863 
L 1159 2956 
Q 1366 3272 1645 3428 
Q 1925 3584 2291 3584 
Q 2894 3584 3203 3211 
Q 3513 2838 3513 2113 
z
" transform="scale(0.015625)"/>
     </defs>
     <use xlink:href="#DejaVuSans-43" transform="translate(0 0.015625)"/>
     <use xlink:href="#DejaVuSans-6f" transform="translate(69.824219 0.015625)"/>
     <use xlink:href="#DejaVuSans-6e" transform="translate(131.005859 0.015625)"/>
     <use xlink:href="#DejaVuSans-66" transform="translate(194.384766 0.015625)"/>
     <use xlink:href="#DejaVuSans-72" transform="translate(229.589844 0.015625)"/>
     <use xlink:href="#DejaVuSans-6f" transform="translate(270.703125 0.015625)"/>
     <use xlink:href="#DejaVuSans-6e" transform="translate(331.884766 0.015625)"/>
     <use xlink:href="#DejaVuSans-74" transform="translate(395.263672 0.015625)"/>
     <use xlink:href="#DejaVuSans-6f" transform="translate(434.472656 0.015625)"/>
     <use xlink:href="#DejaVuSans-20" transform="translate(495.654297 0.015625)"/>
     <use xlink:href="#DejaVuSans-64" transform="translate(527.441406 0.015625)"/>
     <use xlink:href="#DejaVuSans-65" transform="translate(590.917969 0.015625)"/>
     <use xlink:href="#DejaVuSans-67" transform="translate(652.441406 0.015625)"/>
     <use xlink:href="#DejaVuSans-6c" transform="translate(715.917969 0.015625)"/>
     <use xlink:href="#DejaVuSans-69" transform="translate(743.701172 0.015625)"/>
     <use xlink:href="#DejaVuSans-20" transform="translate(771.484375 0.015625)"/>
     <use xlink:href="#DejaVuSans-65" transform="translate(803.271484 0.015625)"/>
     <use xlink:href="#DejaVuSans-72" transform="translate(864.794922 0.015625)"/>
     <use xlink:href="#DejaVuSans-72" transform="translate(905.908203 0.015625)"/>
     <use xlink:href="#DejaVuSans-6f" transform="translate(947.021484 0.015625)"/>
     <use xlink:href="#DejaVuSans-72" transform="translate(1008.203125 0.015625)"/>
     <use xlink:href="#DejaVuSans-69" transform="translate(1049.316406 0.015625)"/>
     <use xlink:href="#DejaVuSans-20" transform="translate(1077.099609 0.015625)"/>
     <use xlink:href="#DejaVuSans-64" transform="translate(1108.886719 0.015625)"/>
     <use xlink:href="#DejaVuSans-69" transform="translate(1172.363281 0.015625)"/>
     <use xlink:href="#DejaVuSans-20" transform="translate(1200.146484 0.015625)"/>
     <use xlink:href="#DejaVuSans-63" transform="translate(1231.933594 0.015625)"/>
     <use xlink:href="#DejaVuSans-61" transform="translate(1286.914062 0.015625)"/>
     <use xlink:href="#DejaVuSans-6c" transform="translate(1348.193359 0.015625)"/>
     <use xlink:href="#DejaVuSans-63" transform="translate(1375.976562 0.015625)"/>
     <use xlink:href="#DejaVuSans-6f" transform="translate(1430.957031 0.015625)"/>
     <use xlink:href="#DejaVuSans-6c" transform="translate(1492.138672 0.015625)"/>
     <use xlink:href="#DejaVuSans-6f" transform="translate(1519.921875 0.015625)"/>
     <use xlink:href="#DejaVuSans-20" transform="translate(1581.103516 0.015625)"/>
     <use xlink:href="#DejaVuSans-64" transform="translate(1612.890625 0.015625)"/>
     <use xlink:href="#DejaVuSans-69" transform="translate(1676.367188 0.015625)"/>
     <use xlink:href="#DejaVuSans-20" transform="translate(1704.150391 0.015625)"/>
     <use xlink:href="#DejaVuSans-Oblique-3c0" transform="translate(1735.9375 0.015625)"/>
     <use xlink:href="#DejaVuSans-20" transform="translate(1796.142578 0.015625)"/>
     <use xlink:href="#DejaVuSans-73" transform="translate(1827.929688 0.015625)"/>
     <use xlink:href="#DejaVuSans-75" transform="translate(1880.029297 0.015625)"/>
     <use xlink:href="#DejaVuSans-20" transform="translate(1943.408203 0.015625)"/>
     <use xlink:href="#DejaVuSans-6d" transform="translate(1975.195312 0.015625)"/>
     <use xlink:href="#DejaVuSans-61" transform="translate(2072.607422 0.015625)"/>
     <use xlink:href="#DejaVuSans-74" transform="translate(2133.886719 0.015625)"/>
     <use xlink:href="#DejaVuSans-72" transform="translate(2173.095703 0.015625)"/>
     <use xlink:href="#DejaVuSans-69" transform="translate(2214.208984 0.015625)"/>
     <use xlink:href="#DejaVuSans-63" transform="translate(2241.992188 0.015625)"/>
     <use xlink:href="#DejaVuSans-65" transform="translate(2296.972656 0.015625)"/>
     <use xlink:href="#DejaVuSans-20" transform="translate(2358.496094 0.015625)"/>
     <use xlink:href="#DejaVuSans-51" transform="translate(2390.283203 0.015625)"/>
     <use xlink:href="#DejaVuSans-20" transform="translate(2468.994141 0.015625)"/>
     <use xlink:href="#DejaVuSans-73" transform="translate(2500.78125 0.015625)"/>
     <use xlink:href="#DejaVuSans-70" transform="translate(2552.880859 0.015625)"/>
     <use xlink:href="#DejaVuSans-61" transform="translate(2616.357422 0.015625)"/>
     <use xlink:href="#DejaVuSans-72" transform="translate(2677.636719 0.015625)"/>
     <use xlink:href="#DejaVuSans-73" transform="translate(2718.75 0.015625)"/>
     <use xlink:href="#DejaVuSans-61" transform="translate(2770.849609 0.015625)"/>
     <use xlink:href="#DejaVuSans-20" transform="translate(2832.128906 0.015625)"/>
     <use xlink:href="#DejaVuSans-63" transform="translate(2863.916016 0.015625)"/>
     <use xlink:href="#DejaVuSans-6f" transform="translate(2918.896484 0.015625)"/>
     <use xlink:href="#DejaVuSans-6e" transform="translate(2980.078125 0.015625)"/>
     <use xlink:href="#DejaVuSans-20" transform="translate(3043.457031 0.015625)"/>
     <use xlink:href="#DejaVuSans-39" transform="translate(3075.244141 0.015625)"/>
     <use xlink:href="#DejaVuSans-20" transform="translate(3138.867188 0.015625)"/>
     <use xlink:href="#DejaVuSans-61" transform="translate(3170.654297 0.015625)"/>
     <use xlink:href="#DejaVuSans-72" transform="translate(3231.933594 0.015625)"/>
     <use xlink:href="#DejaVuSans-63" transform="translate(3273.046875 0.015625)"/>
     <use xlink:href="#DejaVuSans-68" transform="translate(3328.027344 0.015625)"/>
     <use xlink:href="#DejaVuSans-69" transform="translate(3391.40625 0.015625)"/>
     <use xlink:href="#DejaVuSans-20" transform="translate(3419.189453 0.015625)"/>
     <use xlink:href="#DejaVuSans-70" transform="translate(3450.976562 0.015625)"/>
     <use xlink:href="#DejaVuSans-65" transform="translate(3514.453125 0.015625)"/>
     <use xlink:href="#DejaVuSans-72" transform="translate(3575.976562 0.015625)"/>
     <use xlink:href="#DejaVuSans-20" transform="translate(3617.089844 0.015625)"/>
     <use xlink:href="#DejaVuSans-6e" transform="translate(3648.876953 0.015625)"/>
     <use xlink:href="#DejaVuSans-6f" transform="translate(3712.255859 0.015625)"/>
     <use xlink:href="#DejaVuSans-64" transform="translate(3773.4375 0.015625)"/>
     <use xlink:href="#DejaVuSans-6f" transform="translate(3836.914062 0.015625)"/>
    </g>
   </g>
   <g id="legend_1">
    <g id="patch_7">
     <path d="M 64.01375 125.014063 
L 161.064687 125.014063 
Q 162.864688 125.014063 162.864688 123.214063 
L 162.864688 30.14 
Q 162.864688 28.34 161.064687 28.34 
L 64.01375 28.34 
Q 62.21375 28.34 62.21375 30.14 
L 62.21375 123.214063 
Q 62.21375 125.014063 64.01375 125.014063 
z
" style="fill: #ffffff; opacity: 0.8; stroke: #cccccc; stroke-linejoin: miter"/>
    </g>
    <g id="line2d_80">
     <path d="M 65.81375 35.628594 
L 74.81375 35.628594 
L 83.81375 35.628594 
" style="fill: none; stroke: #1f77b4; stroke-width: 1.5; stroke-linecap: square"/>
     <g>
      <use xlink:href="#m0dfc699bee" x="74.81375" y="35.628594" style="fill: #1f77b4; stroke: #1f77b4"/>
     </g>
    </g>
    <g id="text_9">
     <!-- ght -->
     <g transform="translate(91.01375 38.778594) scale(0.09 -0.09)">
      <use xlink:href="#DejaVuSans-67"/>
      <use xlink:href="#DejaVuSans-68" x="63.476562"/>
      <use xlink:href="#DejaVuSans-74" x="126.855469"/>
     </g>
    </g>
    <g id="line2d_81">
     <path d="M 65.81375 48.838906 
L 74.81375 48.838906 
L 83.81375 48.838906 
" style="fill: none; stroke: #ff7f0e; stroke-width: 1.5; stroke-linecap: square"/>
     <g>
      <use xlink:href="#m006f89d59b" x="74.81375" y="48.838906" style="fill: #ff7f0e; stroke: #ff7f0e"/>
     </g>
    </g>
    <g id="text_10">
     <!-- system_numpy -->
     <g transform="translate(91.01375 51.988906) scale(0.09 -0.09)">
      <defs>
       <path id="DejaVuSans-79" d="M 2059 -325 
Q 1816 -950 1584 -1140 
Q 1353 -1331 966 -1331 
L 506 -1331 
L 506 -850 
L 844 -850 
Q 1081 -850 1212 -737 
Q 1344 -625 1503 -206 
L 1606 56 
L 191 3500 
L 800 3500 
L 1894 763 
L 2988 3500 
L 3597 3500 
L 2059 -325 
z
" transform="scale(0.015625)"/>
       <path id="DejaVuSans-5f" d="M 3263 -1063 
L 3263 -1509 
L -63 -1509 
L -63 -1063 
L 3263 -1063 
z
" transform="scale(0.015625)"/>
      </defs>
      <use xlink:href="#DejaVuSans-73"/>
      <use xlink:href="#DejaVuSans-79" x="52.099609"/>
      <use xlink:href="#DejaVuSans-73" x="111.279297"/>
      <use xlink:href="#DejaVuSans-74" x="163.378906"/>
      <use xlink:href="#DejaVuSans-65" x="202.587891"/>
      <use xlink:href="#DejaVuSans-6d" x="264.111328"/>
      <use xlink:href="#DejaVuSans-5f" x="361.523438"/>
      <use xlink:href="#DejaVuSans-6e" x="411.523438"/>
      <use xlink:href="#DejaVuSans-75" x="474.902344"/>
      <use xlink:href="#DejaVuSans-6d" x="538.28125"/>
      <use xlink:href="#DejaVuSans-70" x="635.693359"/>
      <use xlink:href="#DejaVuSans-79" x="699.169922"/>
     </g>
    </g>
    <g id="line2d_82">
     <path d="M 65.81375 62.299531 
L 74.81375 62.299531 
L 83.81375 62.299531 
" style="fill: none; stroke: #2ca02c; stroke-width: 1.5; stroke-linecap: square"/>
     <g>
      <use xlink:href="#m9eb97cc99f" x="74.81375" y="62.299531" style="fill: #2ca02c; stroke: #2ca02c"/>
     </g>
    </g>
    <g id="text_11">
     <!-- system_scipy -->
     <g transform="translate(91.01375 65.449531) scale(0.09 -0.09)">
      <use xlink:href="#DejaVuSans-73"/>
      <use xlink:href="#DejaVuSans-79" x="52.099609"/>
      <use xlink:href="#DejaVuSans-73" x="111.279297"/>
      <use xlink:href="#DejaVuSans-74" x="163.378906"/>
      <use xlink:href="#DejaVuSans-65" x="202.587891"/>
      <use xlink:href="#DejaVuSans-6d" x="264.111328"/>
      <use xlink:href="#DejaVuSans-5f" x="361.523438"/>
      <use xlink:href="#DejaVuSans-73" x="411.523438"/>
      <use xlink:href="#DejaVuSans-63" x="463.623047"/>
      <use xlink:href="#DejaVuSans-69" x="518.603516"/>
      <use xlink:href="#DejaVuSans-70" x="546.386719"/>
      <use xlink:href="#DejaVuSans-79" x="609.863281"/>
     </g>
    </g>
    <g id="line2d_83">
     <path d="M 65.81375 75.760156 
L 74.81375 75.760156 
L 83.81375 75.760156 
" style="fill: none; stroke: #d62728; stroke-width: 1.5; stroke-linecap: square"/>
     <g>
      <use xlink:href="#mcc2dbbd9b7" x="74.81375" y="75.760156" style="fill: #d62728; stroke: #d62728"/>
     </g>
    </g>
    <g id="text_12">
     <!-- eig_numpy -->
     <g transform="translate(91.01375 78.910156) scale(0.09 -0.09)">
      <use xlink:href="#DejaVuSans-65"/>
      <use xlink:href="#DejaVuSans-69" x="61.523438"/>
      <use xlink:href="#DejaVuSans-67" x="89.306641"/>
      <use xlink:href="#DejaVuSans-5f" x="152.783203"/>
      <use xlink:href="#DejaVuSans-6e" x="202.783203"/>
      <use xlink:href="#DejaVuSans-75" x="266.162109"/>
      <use xlink:href="#DejaVuSans-6d" x="329.541016"/>
      <use xlink:href="#DejaVuSans-70" x="426.953125"/>
      <use xlink:href="#DejaVuSans-79" x="490.429688"/>
     </g>
    </g>
    <g id="line2d_84">
     <path d="M 65.81375 89.220781 
L 74.81375 89.220781 
L 83.81375 89.220781 
" style="fill: none; stroke: #9467bd; stroke-width: 1.5; stroke-linecap: square"/>
     <g>
      <use xlink:href="#m62d17a85a8" x="74.81375" y="89.220781" style="fill: #9467bd; stroke: #9467bd"/>
     </g>
    </g>
    <g id="text_13">
     <!-- eig_scipy -->
     <g transform="translate(91.01375 92.370781) scale(0.09 -0.09)">
      <use xlink:href="#DejaVuSans-65"/>
      <use xlink:href="#DejaVuSans-69" x="61.523438"/>
      <use xlink:href="#DejaVuSans-67" x="89.306641"/>
      <use xlink:href="#DejaVuSans-5f" x="152.783203"/>
      <use xlink:href="#DejaVuSans-73" x="202.783203"/>
      <use xlink:href="#DejaVuSans-63" x="254.882812"/>
      <use xlink:href="#DejaVuSans-69" x="309.863281"/>
      <use xlink:href="#DejaVuSans-70" x="337.646484"/>
      <use xlink:href="#DejaVuSans-79" x="401.123047"/>
     </g>
    </g>
    <g id="line2d_85">
     <path d="M 65.81375 102.681406 
L 74.81375 102.681406 
L 83.81375 102.681406 
" style="fill: none; stroke: #8c564b; stroke-width: 1.5; stroke-linecap: square"/>
     <g>
      <use xlink:href="#me47a3c36a9" x="74.81375" y="102.681406" style="fill: #8c564b; stroke: #8c564b"/>
     </g>
    </g>
    <g id="text_14">
     <!-- power_numpy -->
     <g transform="translate(91.01375 105.831406) scale(0.09 -0.09)">
      <defs>
       <path id="DejaVuSans-77" d="M 269 3500 
L 844 3500 
L 1563 769 
L 2278 3500 
L 2956 3500 
L 3675 769 
L 4391 3500 
L 4966 3500 
L 4050 0 
L 3372 0 
L 2619 2869 
L 1863 0 
L 1184 0 
L 269 3500 
z
" transform="scale(0.015625)"/>
      </defs>
      <use xlink:href="#DejaVuSans-70"/>
      <use xlink:href="#DejaVuSans-6f" x="63.476562"/>
      <use xlink:href="#DejaVuSans-77" x="124.658203"/>
      <use xlink:href="#DejaVuSans-65" x="206.445312"/>
      <use xlink:href="#DejaVuSans-72" x="267.96875"/>
      <use xlink:href="#DejaVuSans-5f" x="309.082031"/>
      <use xlink:href="#DejaVuSans-6e" x="359.082031"/>
      <use xlink:href="#DejaVuSans-75" x="422.460938"/>
      <use xlink:href="#DejaVuSans-6d" x="485.839844"/>
      <use xlink:href="#DejaVuSans-70" x="583.251953"/>
      <use xlink:href="#DejaVuSans-79" x="646.728516"/>
     </g>
    </g>
    <g id="line2d_86">
     <path d="M 65.81375 116.142031 
L 74.81375 116.142031 
L 83.81375 116.142031 
" style="fill: none; stroke: #e377c2; stroke-width: 1.5; stroke-linecap: square"/>
     <g>
      <use xlink:href="#m022f10d2d4" x="74.81375" y="116.142031" style="fill: #e377c2; stroke: #e377c2"/>
     </g>
    </g>
    <g id="text_15">
     <!-- power_scipy -->
     <g transform="translate(91.01375 119.292031) scale(0.09 -0.09)">
      <use xlink:href="#DejaVuSans-70"/>
      <use xlink:href="#DejaVuSans-6f" x="63.476562"/>
      <use xlink:href="#DejaVuSans-77" x="124.658203"/>
      <use xlink:href="#DejaVuSans-65" x="206.445312"/>
      <use xlink:href="#DejaVuSans-72" x="267.96875"/>
      <use xlink:href="#DejaVuSans-5f" x="309.082031"/>
      <use xlink:href="#DejaVuSans-73" x="359.082031"/>
      <use xlink:href="#DejaVuSans-63" x="411.181641"/>
      <use xlink:href="#DejaVuSans-69" x="466.162109"/>
      <use xlink:href="#DejaVuSans-70" x="493.945312"/>
      <use xlink:href="#DejaVuSans-79" x="557.421875"/>
     </g>
    </g>
   </g>
  </g>
 </g>
 <defs>
  <clipPath id="p52468d5d08">
   <rect x="57.71375" y="23.84" width="1004.4" height="554.4"/>
  </clipPath>
 </defs>
</svg>
